<svg width="256" height="257" viewBox="0 0 256 257" fill="none" xmlns="http://www.w3.org/2000/svg">
<path d="M255.153 37.938L134.897 252.976C132.414 257.416 126.035 257.442 123.515 253.024L0.874998 37.958C-1.871 33.144 2.246 27.312 7.702 28.288L128.087 49.805C128.855 49.9422 129.641 49.9409 130.409 49.801L248.276 28.318C253.714 27.327 257.85 33.114 255.153 37.938Z" fill="url(#paint0_linear_1_3638)"/>
<path d="M185.432 0.0630014L96.44 17.501C95.729 17.6403 95.0844 18.012 94.6076 18.5575C94.1308 19.1031 93.8488 19.7917 93.806 20.515L88.332 112.971C88.3019 113.478 88.3904 113.985 88.5905 114.452C88.7906 114.919 89.0968 115.333 89.4848 115.661C89.8728 115.989 90.3318 116.221 90.8256 116.341C91.3193 116.46 91.834 116.463 92.329 116.349L117.106 110.631C119.424 110.096 121.519 112.138 121.042 114.469L113.681 150.516C113.186 152.942 115.463 155.016 117.832 154.296L133.136 149.647C135.508 148.927 137.788 151.007 137.286 153.435L125.588 210.056C124.856 213.598 129.567 215.529 131.531 212.493L132.844 210.465L205.36 65.745C206.575 63.322 204.48 60.559 201.82 61.073L176.315 65.995C173.919 66.457 171.88 64.225 172.556 61.881L189.202 4.176C189.879 1.826 187.831 -0.406999 185.432 0.0630014Z" fill="url(#paint1_linear_1_3638)"/>
<defs>
<linearGradient id="paint0_linear_1_3638" x1="-211.968" y1="1773.92" x2="12757.5" y2="19387.6" gradientUnits="userSpaceOnUse">
<stop stop-color="#41D1FF"/>
<stop offset="1" stop-color="#BD34FE"/>
</linearGradient>
<linearGradient id="paint1_linear_1_3638" x1="5180.13" y1="479.787" x2="7848.21" y2="18782.2" gradientUnits="userSpaceOnUse">
<stop stop-color="#FFEA83"/>
<stop offset="0.08333" stop-color="#FFDD35"/>
<stop offset="1" stop-color="#FFA800"/>
</linearGradient>
</defs>
</svg>
