<svg width="512" height="144" viewBox="0 0 512 144" fill="none" xmlns="http://www.w3.org/2000/svg">
<path d="M116.494 0C123.539 0 129.27 5.627 129.434 12.634L129.438 12.944V130.876C129.438 137.921 123.809 143.652 116.804 143.816L116.494 143.82H12.944C5.9 143.82 0.168 138.191 0.004 131.186L0 130.876V12.944C0 5.898 5.63 0.168 12.634 0.004L12.944 0H116.494ZM116.494 7.191H12.944C11.4569 7.19293 10.0281 7.76987 8.95657 8.80112C7.88506 9.83237 7.25385 11.238 7.195 12.724L7.191 12.944V130.876C7.19293 132.363 7.76987 133.792 8.80112 134.863C9.83237 135.935 11.238 136.566 12.724 136.625L12.944 136.629H116.494C117.981 136.627 119.41 136.051 120.481 135.02C121.553 133.988 122.184 132.583 122.243 131.097L122.247 130.877V12.943C122.245 11.4178 121.638 9.95556 120.56 8.87706C119.481 7.79857 118.019 7.19285 116.494 7.191ZM32.36 93.483L48.54 107.865L32.36 122.247V93.483ZM46.742 21.573V62.402C53.922 60.065 63.959 57.528 73.708 57.528C82.598 57.528 87.919 61.023 90.818 63.955C96.909 70.118 97.084 77.943 97.078 79.055L97.077 79.101L97.079 122.247H82.697V79.3C82.627 75.943 81.009 71.911 73.707 71.911C59.231 71.911 43.01 79.119 42.528 79.335L42.518 79.339L32.36 83.942V21.573H46.742ZM97.079 21.573C96.108 29.742 92.796 37.573 86.292 44.943H71.91C77.562 37.528 81.111 29.724 82.697 21.573H97.079ZM365.095 45.821C377.855 45.821 391.117 53.925 391.117 73.348C391.117 92.775 377.855 100.876 365.095 100.876C352.262 100.876 339.002 92.775 339.002 73.348C339.002 53.925 352.262 45.821 365.095 45.821ZM481.819 46.826V78.513C481.819 85.821 484.185 89.12 489.922 89.12C495.655 89.12 497.949 85.821 497.949 78.513V46.826H512V78.583C512 92.636 505.262 100.662 489.778 100.662C474.292 100.662 467.482 92.636 467.482 78.583V46.826H481.819ZM176.135 46.826V66.538H193.769V46.826H208.108V99.874H193.769V78.44H176.135V99.874H161.798V46.826H176.135ZM264.425 46.826V58.727H240.91V67.329H257.685V78.513H240.91V88.333H265.644V99.874H226.574V46.826H264.425ZM302.109 46.826C315.729 46.826 324.045 51.344 324.045 64.102C324.045 72.417 320.53 77.222 313.578 79.585L324.832 99.875H309.636L299.383 81.453H295.441V99.874H281.391V46.826H302.109ZM421.413 46.826V66.04L436.04 46.826H452.669L434.819 67.759L454.245 99.874H438.044L425.501 78.654L421.413 83.385V99.875H407.078V46.825L421.413 46.826ZM365.095 57.65C357.568 57.65 353.339 63.6 353.339 73.348C353.339 83.101 357.568 89.408 365.095 89.408C372.55 89.408 376.778 83.101 376.778 73.348C376.778 63.599 372.55 57.65 365.095 57.65ZM301.605 58.438H295.441V70.553H301.605C307.484 70.553 310.064 68.904 310.064 64.46C310.064 60.018 307.484 58.438 301.605 58.438Z" fill="#430098"/>
</svg>
