<svg width="262" height="295" viewBox="0 0 262 295" fill="none" xmlns="http://www.w3.org/2000/svg">
<g filter="url(#filter0_f_1_3575)">
<path d="M248.125 249.359C248.125 266.714 195.508 280.856 130.585 280.856C65.662 280.856 13.044 266.806 13.044 249.359C13.044 232.003 65.662 217.861 130.584 217.861C195.508 217.861 248.034 232.003 248.125 249.359Z" fill="black" fill-opacity="0.2"/>
</g>
<path d="M66.213 215.474C54.826 199.128 52.622 145.868 79.16 113.084C92.292 97.383 95.69 86.455 96.7 71.67C97.434 54.865 84.854 4.81899 132.237 1.05399C180.264 -2.80301 177.601 44.58 177.325 69.65C177.142 90.77 192.845 102.8 203.68 119.33C223.607 149.633 221.954 201.791 199.915 230.075C171.999 265.429 148.124 250.093 132.237 251.379C102.485 253.124 101.475 268.919 66.213 215.474Z" fill="black"/>
<path d="M182.1 122.451C190.365 130.073 211.761 164.141 177.876 185.446C165.939 192.884 188.529 221.167 199.364 207.485C218.557 182.875 206.344 143.572 194.773 129.522C187.059 119.605 175.122 115.748 182.101 122.452" fill="url(#paint0_linear_1_3575)"/>
<path d="M179.805 117.86C193.395 128.88 218.097 167.447 182.009 192.608C170.163 200.414 192.477 225.116 205.058 212.535C248.676 168.641 203.956 118.227 188.528 100.871C174.754 85.72 162.541 104.361 179.805 117.86Z" fill="black" stroke="black" stroke-width="0.977"/>
<path d="M160.245 25.02C159.786 37.601 145.92 48.53 129.299 49.54C112.678 50.55 99.639 41 100.097 28.419C100.557 15.838 114.423 4.91 131.044 3.9C147.664 2.982 160.704 12.44 160.245 25.02Z" fill="url(#paint1_linear_1_3575)"/>
<path d="M120.483 54.957C120.943 63.13 117.086 70.017 111.76 70.292C106.434 70.568 101.75 64.232 101.291 56.059C100.832 47.886 104.689 40.999 110.015 40.724C115.341 40.448 120.025 46.784 120.483 54.957Z" fill="url(#paint2_linear_1_3575)"/>
<path d="M130.125 55.6C130.309 65.058 136.462 72.588 143.808 72.405C151.154 72.221 156.939 64.415 156.756 54.865C156.572 45.407 150.42 37.877 143.073 38.061C135.727 38.244 129.85 46.141 130.125 55.6Z" fill="url(#paint3_linear_1_3575)"/>
<path d="M136.186 57.712C136.094 62.946 138.666 67.17 142.063 67.17C145.369 67.17 148.216 62.946 148.308 57.804C148.399 52.57 145.828 48.345 142.43 48.345C139.033 48.345 136.278 52.57 136.186 57.712ZM114.974 57.804C115.433 62.12 113.78 65.793 111.392 66.16C109.005 66.436 106.709 63.222 106.25 58.906C105.79 54.59 107.444 50.916 109.831 50.549C112.219 50.274 114.515 53.488 114.974 57.804Z" fill="black"/>
<path d="M137.564 54.773C137.288 57.712 138.666 60.099 140.594 60.283C142.522 60.467 144.359 58.171 144.634 55.324C144.91 52.386 143.532 49.998 141.604 49.814C139.676 49.631 137.839 51.926 137.564 54.773Z" fill="url(#paint4_linear_1_3575)"/>
<path d="M112.953 55.508C113.229 57.896 112.219 60.008 110.75 60.191C109.28 60.375 107.903 58.538 107.627 56.059C107.352 53.671 108.362 51.559 109.831 51.376C111.301 51.192 112.678 53.12 112.953 55.508Z" fill="url(#paint5_linear_1_3575)"/>
<path d="M84.027 145.684C90.547 130.899 104.413 104.912 104.689 84.801C104.689 68.823 152.532 64.966 156.389 80.945C160.245 96.923 169.979 120.798 176.223 132.369C182.468 143.847 200.558 180.487 181.274 212.443C163.918 240.727 111.301 263.133 83.201 208.587C73.651 189.67 75.395 166.254 84.027 145.684Z" fill="url(#paint6_linear_1_3575)"/>
<path d="M78.15 134.664C72.549 145.224 60.978 172.957 89.262 188.109C119.657 204.271 119.565 237.421 83.017 221.626C49.592 207.393 64.376 149.724 73.743 135.95C79.803 126.308 88.986 114.462 78.15 134.664Z" fill="url(#paint7_linear_1_3575)"/>
<path d="M82.925 122.727C74.018 137.236 52.714 171.396 81.273 189.211C119.657 212.811 108.821 236.319 73.743 215.106C24.339 185.538 67.773 125.849 87.517 103.076C110.107 77.547 91.833 107.76 82.925 122.727Z" fill="black" stroke="black" stroke-width="1.25"/>
<path d="M169.428 151.285C169.428 167.447 153.909 188.385 127.278 188.201C99.822 188.384 88.16 167.447 88.16 151.285C88.16 135.124 106.342 121.992 128.748 121.992C151.246 122.084 169.428 135.124 169.428 151.285Z" fill="url(#paint8_linear_1_3575)"/>
<path d="M154.92 100.504C154.644 117.217 143.716 121.166 129.942 121.166C116.167 121.166 106.158 118.686 104.964 100.504C104.964 89.117 116.167 82.506 129.942 82.506C143.716 82.414 154.92 89.026 154.92 100.504Z" fill="url(#paint9_linear_1_3575)"/>
<path d="M71.63 126.216C80.63 112.534 99.638 91.505 75.212 129.155C55.377 160.193 67.866 180.12 74.294 185.629C92.843 202.159 92.108 213.269 77.508 204.546C46.194 185.905 52.714 154.499 71.63 126.216Z" fill="url(#paint10_linear_1_3575)"/>
<path d="M201.936 131.818C194.13 115.748 169.336 74.976 203.129 122.359C233.892 165.243 212.312 195.088 208.455 198.026C204.599 200.965 191.651 206.934 195.415 196.557C199.273 186.18 218.373 166.529 201.935 131.817" fill="url(#paint11_linear_1_3575)"/>
<path d="M64.835 258.542C44.265 247.614 14.421 260.654 25.257 231.085C27.461 224.381 22.043 214.28 25.532 207.76C29.665 199.771 38.572 201.516 43.898 196.19C49.132 190.68 52.438 181.13 62.264 182.6C71.998 184.068 78.518 196.006 85.313 210.699C90.363 221.167 108.178 235.952 106.985 247.706C105.515 265.704 85.037 269.102 64.835 258.542Z" fill="url(#paint12_linear_1_3575)" stroke="#E68C3F" stroke-width="6.25"/>
<path d="M214.608 189.119C211.486 194.996 198.446 204.454 189.722 201.975C180.907 199.587 176.866 186.18 178.611 175.987C180.264 164.601 189.722 163.957 201.661 169.651C214.516 175.987 218.373 181.313 214.608 189.119Z" fill="url(#paint13_linear_1_3575)"/>
<path d="M207.445 253.49C222.505 235.217 256.023 238.982 233.433 213.913C228.658 208.495 230.127 196.924 224.25 191.966C217.363 185.905 209.741 190.864 202.762 187.742C195.783 184.344 188.437 177.824 179.897 182.415C171.357 187.099 170.438 199.22 169.612 215.198C168.877 226.677 158.409 245.869 164.01 256.429C172.091 272.775 193.12 270.57 207.445 253.49Z" fill="url(#paint14_linear_1_3575)" stroke="#E68C3F" stroke-width="6.251"/>
<path d="M200.925 229.064C224.25 194.629 206.895 194.904 201.017 192.241C195.14 189.486 188.987 184.068 182.101 187.833C175.213 191.69 174.846 201.608 174.662 214.647C174.387 224.014 166.582 239.717 171.265 248.44C176.958 258.633 190.732 243.849 200.925 229.064Z" fill="url(#paint15_linear_1_3575)"/>
<path d="M60.06 234.023C25.165 211.433 41.51 203.72 46.745 200.138C53.081 195.547 53.173 186.731 60.978 187.558C68.784 188.384 73.375 198.026 78.609 209.964C82.466 218.504 95.873 229.891 94.863 239.717C93.578 251.287 75.12 243.665 60.06 234.023Z" fill="url(#paint16_linear_1_3575)"/>
<path d="M212.588 188.843C209.833 193.619 198.63 201.149 191.192 199.128C183.57 197.2 180.08 186.456 181.642 178.375C183.019 169.192 191.192 168.733 201.476 173.325C212.404 178.283 215.802 182.507 212.588 188.843Z" fill="black"/>
<path d="M205.058 186.18C203.313 189.486 195.967 194.72 190.824 193.343C185.682 191.966 183.111 184.528 183.937 178.926C184.672 172.59 190.181 172.222 197.16 175.345C204.69 178.835 207.078 181.773 205.058 186.18Z" fill="url(#paint17_linear_1_3575)"/>
<path d="M110.107 66.344C113.78 62.946 122.687 52.57 139.584 63.405C142.706 65.425 145.277 65.609 151.246 68.18C163.276 73.14 157.582 85.077 144.726 89.117C139.216 90.862 134.258 97.566 124.34 96.923C115.8 96.463 113.596 90.863 108.362 87.832C99.087 82.598 97.71 75.527 102.76 71.762C107.811 67.997 109.74 66.619 110.107 66.344Z" fill="url(#paint18_linear_1_3575)" stroke="#E68C3F" stroke-width="3.75"/>
<path d="M151.43 75.986C146.38 76.261 135.451 87.189 123.973 87.189C112.494 87.189 105.607 76.537 103.863 76.537" stroke="#E68C3F" stroke-width="2.5"/>
<path d="M115.8 65.426C117.637 63.773 123.422 59.273 131.044 63.864C132.697 64.783 134.35 65.793 136.737 67.17C141.604 70.017 139.217 74.15 133.339 76.72C130.676 77.822 126.269 80.21 122.963 80.026C119.29 79.659 116.81 77.271 114.423 75.71C109.923 72.772 110.199 70.292 112.311 68.364C113.871 66.894 115.615 65.517 115.8 65.426Z" fill="url(#paint19_linear_1_3575)"/>
<defs>
<filter id="filter0_f_1_3575" x="0.0439987" y="204.861" width="261.081" height="88.995" filterUnits="userSpaceOnUse" color-interpolation-filters="sRGB">
<feFlood flood-opacity="0" result="BackgroundImageFix"/>
<feBlend mode="normal" in="SourceGraphic" in2="BackgroundImageFix" result="shape"/>
<feGaussianBlur stdDeviation="6.5" result="effect1_foregroundBlur_1_3575"/>
</filter>
<linearGradient id="paint0_linear_1_3575" x1="1869.34" y1="10732.6" x2="2472.04" y2="3973.46" gradientUnits="userSpaceOnUse">
<stop stop-color="#FFEED7"/>
<stop offset="1" stop-color="#BDBFC2"/>
</linearGradient>
<linearGradient id="paint1_linear_1_3575" x1="3373.83" y1="113.881" x2="3086.12" y2="4163.14" gradientUnits="userSpaceOnUse">
<stop stop-color="white" stop-opacity="0.8"/>
<stop offset="1" stop-color="white" stop-opacity="0"/>
</linearGradient>
<linearGradient id="paint2_linear_1_3575" x1="1100.4" y1="2651.56" x2="923.225" y2="336.905" gradientUnits="userSpaceOnUse">
<stop stop-color="#FFEED7"/>
<stop offset="1" stop-color="#BDBFC2"/>
</linearGradient>
<linearGradient id="paint3_linear_1_3575" x1="1460.34" y1="2974.69" x2="1460.3" y2="512.473" gradientUnits="userSpaceOnUse">
<stop stop-color="#FFEED7"/>
<stop offset="1" stop-color="#BDBFC2"/>
</linearGradient>
<linearGradient id="paint4_linear_1_3575" x1="522.405" y1="82.3424" x2="401.043" y2="1026.41" gradientUnits="userSpaceOnUse">
<stop stop-color="white" stop-opacity="0.65"/>
<stop offset="1" stop-color="white" stop-opacity="0"/>
</linearGradient>
<linearGradient id="paint5_linear_1_3575" x1="354.546" y1="99.7621" x2="485.172" y2="864.316" gradientUnits="userSpaceOnUse">
<stop stop-color="white" stop-opacity="0.65"/>
<stop offset="1" stop-color="white" stop-opacity="0"/>
</linearGradient>
<linearGradient id="paint6_linear_1_3575" x1="5733.05" y1="15455.6" x2="5733.05" y2="7028.45" gradientUnits="userSpaceOnUse">
<stop stop-color="#FFEED7"/>
<stop offset="1" stop-color="#BDBFC2"/>
</linearGradient>
<linearGradient id="paint7_linear_1_3575" x1="2685.69" y1="10338.2" x2="534.712" y2="3005.47" gradientUnits="userSpaceOnUse">
<stop stop-color="#FFEED7"/>
<stop offset="1" stop-color="#BDBFC2"/>
</linearGradient>
<linearGradient id="paint8_linear_1_3575" x1="4138.64" y1="997.887" x2="4160.21" y2="6390.36" gradientUnits="userSpaceOnUse">
<stop stop-color="white" stop-opacity="0.8"/>
<stop offset="1" stop-color="white" stop-opacity="0"/>
</linearGradient>
<linearGradient id="paint9_linear_1_3575" x1="2599.12" y1="1525.6" x2="2623.05" y2="3669.72" gradientUnits="userSpaceOnUse">
<stop stop-color="white" stop-opacity="0.65"/>
<stop offset="1" stop-color="white" stop-opacity="0"/>
</linearGradient>
<linearGradient id="paint10_linear_1_3575" x1="1682.55" y1="337.137" x2="1682.55" y2="8205.66" gradientUnits="userSpaceOnUse">
<stop stop-color="white" stop-opacity="0.65"/>
<stop offset="1" stop-color="white" stop-opacity="0"/>
</linearGradient>
<linearGradient id="paint11_linear_1_3575" x1="1858.6" y1="332.488" x2="1855.8" y2="7442.07" gradientUnits="userSpaceOnUse">
<stop stop-color="white" stop-opacity="0.65"/>
<stop offset="1" stop-color="white" stop-opacity="0"/>
</linearGradient>
<linearGradient id="paint12_linear_1_3575" x1="4518.75" y1="4196.49" x2="3351.87" y2="8247.22" gradientUnits="userSpaceOnUse">
<stop stop-color="#FFA63F"/>
<stop offset="1" stop-color="#FFFF00"/>
</linearGradient>
<linearGradient id="paint13_linear_1_3575" x1="2156.34" y1="5348.62" x2="1989.65" y2="-2176" gradientUnits="userSpaceOnUse">
<stop stop-color="#FFEED7"/>
<stop offset="1" stop-color="#BDBFC2"/>
</linearGradient>
<linearGradient id="paint14_linear_1_3575" x1="2568.02" y1="3131.96" x2="5745.3" y2="7633.27" gradientUnits="userSpaceOnUse">
<stop stop-color="#FFA63F"/>
<stop offset="1" stop-color="#FFFF00"/>
</linearGradient>
<linearGradient id="paint15_linear_1_3575" x1="2730.36" y1="-937.111" x2="1644.47" y2="4378.56" gradientUnits="userSpaceOnUse">
<stop stop-color="white" stop-opacity="0.65"/>
<stop offset="1" stop-color="white" stop-opacity="0"/>
</linearGradient>
<linearGradient id="paint16_linear_1_3575" x1="2741.31" y1="278.349" x2="2955.92" y2="6242.31" gradientUnits="userSpaceOnUse">
<stop stop-color="white" stop-opacity="0.65"/>
<stop offset="1" stop-color="white" stop-opacity="0"/>
</linearGradient>
<linearGradient id="paint17_linear_1_3575" x1="1140.09" y1="264.716" x2="1391.52" y2="2049.32" gradientUnits="userSpaceOnUse">
<stop stop-color="white" stop-opacity="0.65"/>
<stop offset="1" stop-color="white" stop-opacity="0"/>
</linearGradient>
<linearGradient id="paint18_linear_1_3575" x1="2984.11" y1="734.285" x2="3005.05" y2="3872.37" gradientUnits="userSpaceOnUse">
<stop stop-color="#FFA63F"/>
<stop offset="1" stop-color="#FFFF00"/>
</linearGradient>
<linearGradient id="paint19_linear_1_3575" x1="1541.29" y1="114.392" x2="1535.61" y2="1773.69" gradientUnits="userSpaceOnUse">
<stop stop-color="white" stop-opacity="0.65"/>
<stop offset="1" stop-color="white" stop-opacity="0"/>
</linearGradient>
</defs>
</svg>
