<svg width="512" height="82" viewBox="0 0 512 82" fill="none" xmlns="http://www.w3.org/2000/svg">
<path d="M511.619 76.575C511.574 76.295 511.531 76.019 511.485 75.742C510.303 68.6123 507.998 61.715 504.656 55.307C501.384 49.0281 497.162 43.2925 492.139 38.303C488.471 34.655 484.405 31.4314 480.016 28.693C480.043 28.649 480.066 28.603 480.092 28.559C481.47 26.178 482.852 23.799 484.231 21.418C486.546 17.4229 488.862 13.4279 491.177 9.433C491.74 8.46228 492.033 7.35843 492.026 6.23614C492.018 5.11384 491.71 4.01404 491.134 3.051C490.601 2.15751 489.852 1.41181 488.957 0.881999C488.142 0.398821 487.229 0.104917 486.285 0.0219993C485.562 -0.0383409 484.835 0.0248972 484.133 0.208999C483.336 0.42018 482.588 0.786648 481.933 1.28739C481.278 1.78812 480.728 2.41328 480.315 3.127L477.412 8.137L473.369 15.112C471.99 17.494 470.609 19.872 469.229 22.254C469.079 22.514 468.927 22.774 468.777 23.036C468.568 22.953 468.361 22.87 468.152 22.79C460.339 19.8153 452.047 18.2956 443.687 18.306C443.452 18.306 443.218 18.306 442.981 18.31C435.525 18.3774 428.129 19.661 421.086 22.11C420.292 22.387 419.506 22.68 418.727 22.986C418.587 22.743 418.443 22.5 418.305 22.256C416.927 19.876 415.545 17.496 414.166 15.116C411.851 11.1207 409.535 7.12541 407.22 3.13C406.623 2.09807 405.745 1.25777 404.687 0.707774C403.63 0.157776 402.437 -0.0790862 401.25 0.0249993C400.305 0.105066 399.391 0.399159 398.576 0.884999C397.164 1.72232 396.139 3.08106 395.72 4.668C395.411 5.83266 395.442 7.06154 395.81 8.209C395.947 8.629 396.126 9.039 396.355 9.435C397.325 11.104 398.294 12.776 399.258 14.445C400.608 16.77 401.956 19.095 403.304 21.42C404.682 23.801 406.063 26.18 407.441 28.561C407.451 28.581 407.465 28.601 407.475 28.621C403.041 31.3763 398.935 34.6261 395.235 38.308C392.48 41.0481 389.961 44.0152 387.704 47.178C385.854 49.7696 384.188 52.4876 382.718 55.312C380.18 60.1791 378.237 65.3338 376.931 70.665C376.521 72.3458 376.174 74.0413 375.89 75.748C375.678 77.0226 375.502 78.3032 375.364 79.588H512C511.891 78.583 511.76 77.5805 511.609 76.581L511.619 76.575Z" fill="#34A853"/>
<path d="M479.223 60.692C481.957 58.872 482.355 54.662 480.11 51.287C477.867 47.913 473.832 46.654 471.1 48.474C468.365 50.294 467.967 54.504 470.212 57.878C472.455 61.253 476.491 62.512 479.223 60.692ZM417.272 57.89C419.517 54.516 419.119 50.305 416.385 48.485C413.65 46.665 409.617 47.925 407.372 51.299C405.129 54.673 405.527 58.884 408.259 60.704C410.993 62.524 415.029 61.264 417.272 57.89ZM307.781 53.996C307.781 44.828 314.399 37.594 322.748 37.594C331.098 37.594 337.205 44.624 337.205 53.996C337.205 63.369 330.995 70.602 322.748 70.602C314.5 70.602 307.781 63.267 307.781 53.996ZM279.071 79.567H290.779V28.629H279.07L279.071 79.567ZM277.237 11.617C277.237 15.997 280.802 19.563 284.975 19.563C289.149 19.563 292.612 15.997 292.612 11.616C292.612 7.541 289.149 4.078 284.975 4.078C280.802 4.078 277.237 7.542 277.237 11.617ZM231.32 53.894C231.32 44.724 238.04 37.594 246.693 37.594C255.348 37.594 262.067 44.724 262.067 53.894C262.067 63.062 255.245 70.601 246.693 70.601C238.141 70.601 231.32 63.164 231.32 53.894ZM219.407 53.894C219.407 69.174 231.422 81.196 246.693 81.196C261.966 81.196 273.979 69.175 273.979 53.894C273.979 38.612 262.169 26.998 246.693 26.998C231.219 26.998 219.407 38.714 219.407 53.894ZM187.744 79.566H199.452V52.876C199.452 42.281 205.051 37.594 214.419 37.594C216.149 37.594 217.474 37.696 218.694 38.002V27.712C217.474 27.305 215.334 26.999 212.994 26.999C197.11 26.999 187.744 36.983 187.744 52.876V79.566ZM140.808 53.996C140.808 44.826 147.426 37.593 155.774 37.593C164.124 37.593 170.232 44.623 170.232 53.995C170.232 63.368 164.022 70.601 155.774 70.601C147.527 70.601 140.808 63.267 140.808 53.996ZM128.896 53.995C128.896 68.766 140.706 81.195 154.654 81.195C160.457 81.195 165.752 78.852 168.908 74.981H169.418V79.565H181.126V0.00299835H169.418V32.806H168.908C165.853 29.14 160.56 27 154.654 27C140.604 27 128.896 39.327 128.896 53.997M77.582 79.567H89.29V49.717C89.29 42.587 94.075 37.594 100.693 37.594C107.311 37.594 112.096 42.586 112.096 49.718V79.567H123.805V49.717C123.805 37.289 113.929 26.999 100.693 26.999C87.458 26.999 77.582 37.289 77.582 49.718V79.567ZM23.824 49.004L36.45 12.84H37.06L49.686 49.005L23.824 49.004ZM0 79.567H13.236L19.853 60.618H53.656L60.273 79.567H73.51L44.085 0.00299835H29.424L0 79.567ZM321.627 81.197C327.431 81.197 332.725 78.854 335.882 74.983H336.392V79.567H348.1V0.00299835H336.39V32.806H335.88C332.828 29.14 327.534 27 321.628 27C307.579 27 295.871 39.327 295.871 53.997C295.871 68.667 307.681 81.198 321.628 81.198" fill="#202124"/>
</svg>
