<svg width="512" height="112" viewBox="0 0 512 112" fill="none" xmlns="http://www.w3.org/2000/svg">
<path d="M105.092 109.34H0V4.289H105.092L52.546 56.794L105.092 109.34Z" fill="url(#paint0_linear_1_3565)"/>
<path d="M269.144 30.636C276.398 30.636 283.316 32.613 289.246 35.914C295.176 39.194 299.801 44.135 303.06 50.086C306.362 56.352 308.338 63.27 308.338 70.84C308.338 78.41 306.698 85.327 303.397 91.593C300.096 97.523 295.491 102.464 289.561 105.765C283.631 109.403 276.714 111.043 269.144 111.043C261.574 111.043 254.657 109.066 248.727 105.765C242.461 102.464 237.857 97.523 234.555 91.593C231.254 85.663 229.614 78.409 229.614 70.84C229.614 63.27 231.254 56.352 234.554 50.086C237.856 44.156 242.797 39.552 248.727 35.914C254.657 32.276 261.574 30.636 269.144 30.636ZM232.263 3.953L184.49 55.006L232.915 109.34H211.509L165.713 58.602V109.34H148.913V4.29H165.713V52.714L211.173 3.954L232.263 3.953ZM268.85 45.733C264.245 45.733 260.292 46.722 256.99 49.035C253.69 51.011 251.061 53.976 249.084 57.929C247.108 61.567 246.12 66.172 246.12 71.113C246.12 76.054 246.771 80.343 248.748 84.297C250.725 87.913 253.353 90.878 256.654 93.191C260.271 95.504 264.244 96.492 268.514 96.492C272.782 96.492 276.734 95.504 280.036 93.192C283.337 91.215 285.966 88.25 287.942 84.297C289.919 80.344 290.907 76.054 290.907 71.113C290.907 66.172 290.255 61.883 288.279 57.929C286.302 54.312 283.674 51.348 280.372 49.035C277.092 46.722 273.139 45.733 268.85 45.733ZM342.297 13.183H326.148V26.368C326.148 28.344 325.812 29.984 324.508 30.973C323.52 31.961 321.88 32.613 319.903 32.613H311.997V46.448H325.833V87.955C325.833 92.245 326.821 96.198 328.461 99.478C330.091 102.759 332.75 105.418 336.031 107.048C339.331 109.024 342.948 109.676 347.553 109.676H360.064V95.19H350.834C348.521 95.19 346.544 94.538 344.904 92.561C343.409 90.693 342.594 88.3725 342.591 85.98V46.45H360.38V32.612H342.59V13.182L342.297 13.183ZM372.933 0H389.397V109.34H372.933V0ZM408.173 0.336H424.974V17.473H408.174L408.173 0.336ZM408.173 32.613H424.638V109.655H408.174L408.173 32.613ZM508.661 45.123C506.348 40.519 503.068 36.881 498.779 34.589C494.489 31.961 489.548 30.636 483.955 30.636C478.025 30.636 472.747 32.276 468.143 34.926C464.526 37.239 461.561 40.519 459.248 44.156V32.297H443.436V109.34H459.9V66.172C459.9 61.882 460.552 58.265 462.213 54.964C463.853 51.663 466.166 49.371 468.794 47.394C471.759 45.754 475.06 44.766 479.014 44.766C482.63 44.766 485.279 45.418 487.908 47.079C490.536 48.74 492.198 50.696 493.501 53.345C494.826 55.974 495.477 59.275 495.477 62.891V109.003H511.941V60.915C512.299 55.006 510.995 49.749 508.661 45.123Z" fill="black"/>
<defs>
<linearGradient id="paint0_linear_1_3565" x1="10508.3" y1="7.33499" x2="5.14999" y2="10510.3" gradientUnits="userSpaceOnUse">
<stop offset="0.00344" stop-color="#E44857"/>
<stop offset="0.4689" stop-color="#C711E1"/>
<stop offset="1" stop-color="#7F52FF"/>
</linearGradient>
</defs>
</svg>
