<svg width="512" height="187" viewBox="0 0 512 187" fill="none" xmlns="http://www.w3.org/2000/svg">
<path d="M124.61 80.875C130.888 118.179 35.6429 131.801 71.5069 159.107C82.7729 167.684 94.2769 161.113 92.5339 147.807C91.0799 136.707 131.549 129.985 128.379 146.761C124.229 168.761 102.045 186.127 82.8119 186.127C43.7169 186.127 6.24887 140.664 13.5719 107.894C24.3929 59.444 119.4 49.911 124.61 80.875ZM197.321 65.172C201.604 65.172 205.701 65.648 209.611 66.598C213.485 67.5247 217.223 68.9454 220.735 70.825L216.268 84.031C214.313 82.961 212.074 81.906 209.998 81.164C206.462 79.976 202.912 79.381 199.348 79.381C192.736 79.381 187.634 81.571 184.041 85.951C180.476 90.297 178.694 96.527 178.694 104.641C178.694 112.688 180.419 118.901 183.868 123.281C187.318 127.661 192.502 129.851 198.572 129.851C204.738 129.851 208.558 128.297 210.595 126.659V113.503H197.235V100.363H223.106V136.93C214.896 143.825 202.859 144.053 197.163 144.06H196.416C185.693 144.06 177.199 140.529 170.932 133.467C164.666 126.371 161.532 116.763 161.532 104.642C161.532 92.385 164.723 82.742 171.105 75.715C177.487 68.687 186.225 65.172 197.321 65.172ZM334.446 65.179C344.794 65.179 352.906 68.673 358.77 75.667C364.634 82.661 367.563 92.325 367.563 104.65C367.563 116.94 364.633 126.578 358.77 133.572C352.906 140.566 344.794 144.06 334.446 144.06C324.126 144.06 316.036 140.566 310.142 133.572C304.278 126.578 301.329 116.94 301.329 104.65C301.329 92.325 304.279 82.661 310.142 75.667C315.805 68.947 323.505 65.442 333.256 65.179C333.652 65.169 334.043 65.179 334.446 65.179ZM399.589 66.548L414.249 114.016L428.996 66.548H446.854L454.922 142.583H439.226L434.386 95.037L419.553 142.811H409.032L394.199 93.424L389.359 142.583H373.619L381.687 66.548H399.589ZM244.927 66.548L278.022 112.244V66.548H292.147V142.583H281.673L248.58 96.887V142.583H234.455V66.548H244.927ZM511.051 66.548V81.368H482.851V97.139H504.529V110.346H482.851V127.763H512V142.583H466.25V66.548H511.051ZM334.213 79.376L333.983 79.378C329.15 79.512 325.389 81.718 322.688 85.993C319.899 90.407 318.492 96.637 318.492 104.65C318.492 112.628 319.899 118.812 322.688 123.225C325.476 127.639 329.387 129.861 334.446 129.861C339.534 129.861 343.476 127.639 346.265 123.225C349.053 118.812 350.46 112.628 350.46 104.65C350.46 96.637 349.053 90.407 346.265 85.993C343.476 81.58 339.534 79.378 334.446 79.378L334.213 79.376ZM18.0169 76.26C9.76987 79.89 -8.96713 56.487 5.05287 46.8C19.0799 37.115 26.2659 72.63 18.0169 76.26ZM41.2599 57.67C31.4479 59.675 16.5919 29.842 34.1059 22.615C51.6159 15.39 51.0779 55.668 41.2599 57.67ZM135.465 0C174.187 0 133.043 55.15 111.263 55.15C89.4809 55.15 96.7439 0 135.465 0ZM71.1699 48.317C59.5679 47.608 51.9039 9.712 73.6949 6.884C95.4929 4.056 82.7679 49.024 71.1699 48.317Z" fill="black"/>
</svg>
