<svg width="512" height="228" viewBox="0 0 512 228" fill="none" xmlns="http://www.w3.org/2000/svg">
<path d="M161.667 75.8433L121.418 38.0788L80.833 0L38.153 40.0454L0 75.8433L80.833 151.688L161.667 75.8433Z" fill="url(#paint0_linear_1_3568)"/>
<path d="M80.833 151.688L121.082 189.452L161.667 227.531L204.347 187.485L242.5 151.688L161.667 75.8433L80.833 151.688Z" fill="url(#paint1_linear_1_3568)"/>
<path d="M161.667 75.8433H80.833V151.688H161.667V75.8433Z" fill="black"/>
<path d="M312.036 150.614V129.697L319.428 121.544L341.089 150.614H359.804L330.701 112.147L357.889 82.172H340.519L312.966 112.906H312.036V82.172H296.424V150.614H312.036ZM371.279 85.9213V98.8638H362.386V109.35H371.279V136.529C371.279 146.674 376.761 150.804 390.615 150.804C393.145 150.807 395.672 150.601 398.164 150.187V139.99C396.689 140.154 395.204 140.233 393.718 140.227C388.599 140.227 386.325 138.046 386.325 133.353V109.35H398.164V98.8685H386.325V85.9213H371.279ZM435.594 151.704C453.116 151.704 463.666 141.559 463.666 124.478C463.666 107.548 452.965 97.2565 435.594 97.2565C418.223 97.2565 407.521 107.592 407.521 124.478C407.521 141.507 418.066 151.704 435.594 151.704ZM435.594 140.797C427.53 140.797 422.977 134.823 422.977 124.479C422.977 114.239 427.575 108.214 435.594 108.214C443.552 108.214 448.205 114.235 448.205 124.479C448.205 134.818 443.607 140.797 435.594 140.797ZM475.964 150.61H491.011V121.397C491.011 114.05 496.645 109.54 504.866 109.54C507.296 109.54 510.813 109.92 512 110.299V98.1582C510.712 97.7792 508.175 97.5418 506.109 97.5418C498.873 97.5418 492.977 101.477 491.476 106.692H490.546V98.3956H475.97V150.615L475.964 150.61Z" fill="#27282C"/>
<defs>
<linearGradient id="paint0_linear_1_3568" x1="3874.35" y1="3635.19" x2="11545.7" y2="11811.2" gradientUnits="userSpaceOnUse">
<stop offset="0.296" stop-color="#00AFFF"/>
<stop offset="0.694" stop-color="#5282FF"/>
<stop offset="1" stop-color="#945DFF"/>
</linearGradient>
<linearGradient id="paint1_linear_1_3568" x1="4317.48" y1="4050.97" x2="11570.3" y2="11780.9" gradientUnits="userSpaceOnUse">
<stop offset="0.108" stop-color="#C757BC"/>
<stop offset="0.173" stop-color="#CD5CA9"/>
<stop offset="0.492" stop-color="#E8744F"/>
<stop offset="0.716" stop-color="#F88316"/>
<stop offset="0.823" stop-color="#FF8900"/>
</linearGradient>
</defs>
</svg>
