<svg width="319" height="249" viewBox="0 0 319 249" fill="none" xmlns="http://www.w3.org/2000/svg">
<path d="M159.258 134.138V166.178C211.437 166.178 252.065 113.715 234.996 56.8096C227.537 31.942 208.55 12.1815 184.656 4.41845C129.978 -13.3461 79.5693 28.9372 79.5693 83.2425H110.425C110.429 83.2425 110.433 83.2347 110.433 83.2347C110.438 49.1529 142.843 22.8055 177.272 35.808C190.027 40.6246 200.2 51.211 204.832 64.4845C217.326 100.294 192.047 134.009 159.329 134.057V102.121L159.324 102.119H128.563C128.561 102.119 128.558 102.124 128.558 102.124V134.138H159.258ZM128.552 158.745H104.917L104.912 158.739V134.138H128.558V158.74C128.558 158.74 128.556 158.745 128.552 158.745ZM104.929 134.138H85.1157C85.107 134.138 85.1007 134.133 85.1007 134.133V113.522C85.1007 113.522 85.107 113.506 85.1157 113.506H104.914C104.922 113.506 104.929 113.513 104.929 113.513V134.138ZM27.5337 198.679C23.5225 195.781 18.5307 194.313 12.6977 194.313H0V236.24H12.6977C18.517 236.24 23.5101 234.69 27.5387 231.636C29.7318 230.016 31.4539 227.753 32.6601 224.913C33.8589 222.086 34.467 218.753 34.467 215.005C34.467 211.3 33.8589 208.008 32.6576 205.223C31.4539 202.421 29.7293 200.221 27.5337 198.679ZM7.41675 201.4H11.4018C15.8366 201.4 19.4864 202.307 22.2552 204.101C25.3269 206.029 26.8857 209.697 26.8857 215.004C26.8857 220.47 25.3231 224.304 22.2428 226.403H22.2403C19.5898 228.227 15.9612 229.153 11.4566 229.153H7.41675V201.4ZM39.6669 236.24H46.807V206.71H39.6669V236.24ZM43.3055 193.797C42.0843 193.797 41.0339 194.247 40.1865 195.129C39.3305 195.979 38.8956 197.056 38.8956 198.33C38.8956 199.601 39.328 200.694 40.1815 201.581C41.0339 202.471 42.0856 202.921 43.3055 202.921C44.5254 202.921 45.5759 202.471 46.4307 201.581C47.2855 200.693 47.7167 199.598 47.7167 198.33C47.7167 197.058 47.283 195.981 46.4307 195.136C46.0245 194.703 45.5379 194.361 45.0006 194.131C44.4633 193.901 43.8865 193.788 43.3055 193.797ZM72.7357 209.178C70.5825 207.184 68.1788 206.022 65.5794 206.022C61.638 206.022 58.362 207.44 55.8437 210.236C53.2942 213.009 51.9995 216.578 51.9995 220.845C51.9995 225.012 53.273 228.569 55.7901 231.422C58.3259 234.182 61.6206 235.58 65.5794 235.58C68.332 235.58 70.6984 234.782 72.6261 233.207V233.888C72.6261 236.337 71.9956 238.244 70.7532 239.552C69.5108 240.86 67.7887 241.522 65.6355 241.522C62.3396 241.522 60.2736 240.173 57.7589 236.637L52.8967 241.499L53.0275 241.691C54.078 243.224 55.6867 244.725 57.81 246.152C59.9334 247.572 62.6025 248.294 65.7452 248.294C69.9844 248.294 73.4124 246.934 75.9382 244.253C78.4765 241.557 79.7637 237.948 79.7637 233.528V206.709H72.7357V209.178ZM70.8629 226.617C69.6155 228.093 68.013 228.808 65.9657 228.808C63.9184 228.808 62.3246 228.093 61.0947 226.62C59.8723 225.154 59.2505 223.209 59.2505 220.844C59.2505 218.439 59.8723 216.472 61.096 214.995C62.3084 213.534 63.947 212.793 65.9657 212.793C68.0106 212.793 69.6143 213.514 70.8629 214.999C72.1052 216.474 72.7357 218.44 72.7357 220.844C72.7357 223.209 72.1052 225.153 70.8629 226.617ZM85.8746 236.24H93.0147V206.71H85.8746V236.24ZM89.5131 193.797C88.2932 193.797 87.2415 194.247 86.3942 195.129C85.5381 195.979 85.1032 197.056 85.1032 198.33C85.1032 199.601 85.5356 200.694 86.3892 201.581C87.2415 202.471 88.2932 202.921 89.5144 202.921C90.0955 202.93 90.6723 202.816 91.2096 202.586C91.747 202.356 92.2335 202.014 92.6396 201.581C93.4932 200.693 93.9256 199.598 93.9256 198.33C93.9256 197.058 93.4894 195.981 92.6396 195.136C92.2333 194.703 91.7467 194.362 91.2094 194.132C90.6721 193.902 90.0941 193.788 89.5131 193.797ZM108.666 198.732H101.638V206.71H97.5542V213.482H101.636V225.748C101.636 229.587 102.373 232.334 103.827 233.911C105.285 235.496 107.873 236.298 111.52 236.298C112.681 236.298 113.848 236.258 114.99 236.182L115.311 236.158V229.391L112.864 229.525C111.163 229.525 110.029 229.214 109.489 228.603C108.941 227.98 108.666 226.665 108.666 224.695V213.482H115.311V206.71H108.666V198.732ZM139.815 208.919C137.651 206.997 134.66 206.022 130.926 206.022C128.55 206.022 126.328 206.564 124.319 207.624C122.46 208.606 120.634 210.231 119.474 212.358L119.546 212.449L124.118 217.003C126.001 213.878 128.096 212.793 130.872 212.793C132.364 212.793 133.601 213.21 134.553 214.031C135.5 214.847 135.961 215.884 135.961 217.198V218.632C134.259 218.083 132.488 217.799 130.707 217.789C127.153 217.789 124.262 218.658 122.115 220.374C119.939 222.112 118.837 224.595 118.837 227.761C118.837 230.535 119.766 232.789 121.606 234.465C123.463 236.081 125.781 236.901 128.501 236.901C131.219 236.901 133.762 235.76 136.071 233.808V236.24H143.1V217.256C143.1 213.663 141.995 210.858 139.815 208.919ZM127.139 224.956C127.949 224.368 129.093 224.071 130.541 224.071C132.259 224.071 134.081 224.431 135.961 225.14V228.037C134.409 229.538 132.335 230.3 129.797 230.3C128.561 230.3 127.6 230.015 126.94 229.448C126.292 228.896 125.976 228.192 125.976 227.301C125.976 226.288 126.356 225.52 127.139 224.956ZM148.789 236.24H155.929V194.312H148.789V236.24ZM181.835 236.872C170.383 236.872 161.066 227.176 161.066 215.258C161.066 203.34 170.382 193.643 181.834 193.643C193.285 193.643 202.601 203.34 202.601 215.258C202.601 227.176 193.287 236.872 181.835 236.872ZM181.834 201.259C174.417 201.259 168.385 207.539 168.385 215.258C168.385 222.976 174.417 229.254 181.832 229.254C189.248 229.254 195.282 222.977 195.282 215.258C195.282 207.539 189.248 201.261 181.832 201.261M228.058 225.682C226.78 227.172 225.474 228.464 224.468 229.134C223.481 229.793 222.235 230.13 220.765 230.13C218.661 230.13 216.97 229.333 215.592 227.69C214.221 226.056 213.527 223.957 213.527 221.447C213.527 218.938 214.212 216.843 215.565 215.22C216.925 213.586 218.607 212.795 220.709 212.795C223.01 212.795 225.435 214.283 227.512 216.84L232.231 212.13C229.153 207.962 225.229 206.023 220.545 206.023C216.625 206.023 213.227 207.509 210.445 210.439C207.679 213.346 206.276 217.051 206.276 221.447C206.276 225.843 207.678 229.557 210.442 232.486C213.208 235.417 216.607 236.903 220.545 236.903C225.714 236.903 229.887 234.58 232.699 230.325L228.058 225.682ZM257.361 210.837C256.349 209.369 254.971 208.187 253.261 207.322C251.559 206.46 249.573 206.023 247.362 206.023C243.377 206.023 240.115 207.553 237.667 210.575C235.29 213.571 234.086 217.297 234.086 221.649C234.086 226.123 235.407 229.828 238.014 232.658C240.606 235.474 244.076 236.903 248.327 236.903C253.141 236.903 257.093 234.876 260.07 230.879L260.23 230.663L255.573 226.005C255.141 226.547 254.53 227.162 253.97 227.709C253.266 228.402 252.603 228.937 251.895 229.304C250.827 229.857 249.631 230.13 248.292 230.13C246.314 230.13 244.675 229.525 243.423 228.33C242.252 227.212 241.566 225.706 241.385 223.845H260.3L260.365 221.133C260.365 219.213 260.113 217.364 259.619 215.634C259.129 213.915 258.366 212.293 257.361 210.837ZM241.756 217.789C242.1 216.376 242.725 215.201 243.621 214.288C244.588 213.296 245.848 212.794 247.363 212.794C249.095 212.794 250.435 213.306 251.346 214.32C252.191 215.257 252.667 216.423 252.766 217.789H241.756ZM284.781 208.92C282.617 206.998 279.625 206.023 275.891 206.023C273.515 206.023 271.293 206.565 269.285 207.626C267.424 208.608 265.599 210.233 264.44 212.359L264.512 212.45L269.084 217.005C270.967 213.879 273.062 212.794 275.838 212.794C277.329 212.794 278.567 213.211 279.519 214.032C280.466 214.848 280.927 215.886 280.927 217.199V218.634C279.224 218.084 277.453 217.8 275.671 217.791C272.119 217.791 269.226 218.66 267.079 220.375C264.905 222.113 263.802 224.597 263.802 227.762C263.802 230.536 264.731 232.79 266.572 234.466C268.427 236.082 270.746 236.903 273.465 236.903C276.184 236.903 278.728 235.761 281.035 233.81V236.241H288.066V217.258C288.066 213.664 286.96 210.859 284.781 208.92ZM272.105 224.957C272.914 224.37 274.057 224.073 275.506 224.073C277.225 224.073 279.046 224.432 280.927 225.141V228.039C279.373 229.539 277.301 230.302 274.761 230.302C273.526 230.302 272.566 230.016 271.905 229.45C271.257 228.897 270.942 228.193 270.942 227.302C270.942 226.289 271.322 225.521 272.105 224.957ZM315.532 209.5C313.543 207.194 310.75 206.023 307.224 206.023C304.392 206.023 302.092 206.87 300.371 208.539V206.71H293.369V236.241H300.509V219.955C300.509 217.718 301.02 215.941 302.029 214.673C303.036 213.41 304.419 212.794 306.26 212.794C307.877 212.794 309.102 213.344 310.007 214.473C310.915 215.608 311.375 217.171 311.375 219.124V236.241H318.515V219.124C318.515 215.034 317.512 211.795 315.532 209.5Z" fill="#0080FF"/>
</svg>
