<svg width="256" height="108" viewBox="0 0 256 108" fill="none" xmlns="http://www.w3.org/2000/svg">
<path d="M152.984 37.214C147.387 37.214 143.219 39.962 143.219 46.576C143.219 51.559 145.966 55.019 152.682 55.019C158.375 55.019 162.242 51.664 162.242 46.369C162.242 40.369 158.782 37.214 152.984 37.214ZM141.794 83.915C140.469 85.54 139.149 87.268 139.149 89.305C139.149 93.372 144.335 94.596 151.459 94.596C157.359 94.596 165.397 94.182 165.397 88.696C165.397 85.435 161.53 85.234 156.644 84.928L141.794 83.915ZM171.907 37.521C173.735 39.861 175.671 43.118 175.671 47.797C175.671 59.089 166.82 65.701 154.004 65.701C150.745 65.701 147.795 65.295 145.966 64.787L142.607 70.177L152.576 70.787C170.178 71.909 180.551 72.419 180.551 85.944C180.551 97.646 170.279 104.255 152.576 104.255C134.163 104.255 127.143 99.575 127.143 91.539C127.143 86.961 129.178 84.524 132.739 81.161C129.381 79.742 128.263 77.2 128.263 74.451C128.263 72.211 129.381 70.178 131.215 68.243C133.045 66.313 135.079 64.378 137.521 62.14C132.537 59.698 128.771 54.408 128.771 46.878C128.771 35.181 136.504 27.147 152.066 27.147C156.442 27.147 159.088 27.549 161.428 28.164H181.268V36.808L171.907 37.521ZM199.166 19.034C193.366 19.034 190.009 15.674 190.009 9.873C190.009 4.08 193.365 0.923 199.166 0.923C205.066 0.923 208.424 4.08 208.424 9.873C208.424 15.674 205.067 19.034 199.166 19.034ZM186.04 80.171V72.138L191.23 71.428C192.655 71.223 192.857 70.919 192.857 69.39V39.48C192.857 38.364 192.553 37.648 191.532 37.346L186.04 35.411L187.158 27.173H208.219V69.39C208.219 71.02 208.317 71.223 209.848 71.429L215.036 72.139V80.171H186.04ZM255.267 76.227C250.891 78.362 244.482 80.295 238.681 80.295C226.575 80.295 221.999 75.417 221.999 63.915V37.264C221.999 36.654 221.999 36.247 221.182 36.247H214.062V27.19C223.017 26.17 226.575 21.694 227.694 10.605H237.36V25.055C237.36 25.765 237.36 26.072 238.175 26.072H252.518V36.245H237.36V60.558C237.36 66.56 238.786 68.898 244.277 68.898C247.129 68.898 250.076 68.188 252.517 67.272L255.267 76.227Z" fill="#2F2707"/>
<path d="M104.529 49.53L58.013 3.017C57.376 2.37976 56.6196 1.87427 55.7872 1.52939C54.9548 1.18451 54.0625 1.007 53.1615 1.007C52.2605 1.007 51.3682 1.18451 50.5358 1.52939C49.7034 1.87427 48.947 2.37976 48.31 3.017L38.651 12.677L50.904 24.929C52.3443 24.4392 53.8929 24.3625 55.3746 24.7077C56.8562 25.0529 58.2115 25.8061 59.287 26.882C60.3683 27.9647 61.1232 29.3297 61.4656 30.8211C61.8079 32.3125 61.7239 33.8701 61.223 35.316L73.03 47.125C75.887 46.141 79.184 46.778 81.465 49.063C82.2234 49.8209 82.8249 50.7208 83.2354 51.7112C83.6458 52.7017 83.8571 53.7634 83.8571 54.8355C83.8571 55.9076 83.6458 56.9693 83.2354 57.9598C82.8249 58.9502 82.2234 59.8501 81.465 60.608C80.1308 61.9435 78.3749 62.7753 76.4964 62.9619C74.6179 63.1485 72.7327 62.6783 71.1618 61.6314C69.591 60.5844 68.4315 59.0255 67.8807 57.2198C67.3299 55.4142 67.4219 53.4735 68.141 51.728L57.129 40.716L57.128 69.696C57.9263 70.0907 58.6554 70.6121 59.287 71.24C60.0453 71.9981 60.6468 72.8982 61.0572 73.8888C61.4676 74.8795 61.6789 75.9412 61.6789 77.0135C61.6789 78.0858 61.4676 79.1475 61.0572 80.1382C60.6468 81.1288 60.0453 82.0289 59.287 82.787C56.097 85.977 50.927 85.977 47.742 82.787C46.7905 81.8362 46.0886 80.665 45.6989 79.3775C45.3092 78.09 45.2436 76.7262 45.508 75.4073C45.7724 74.0884 46.3586 72.8552 47.2145 71.8175C48.0704 70.7797 49.1695 69.9696 50.414 69.459V40.209C49.4129 39.8002 48.5042 39.1942 47.742 38.427C45.326 36.014 44.745 32.469 45.983 29.502L33.905 17.422L2.011 49.314C1.37367 49.9513 0.868117 50.7079 0.523197 51.5406C0.178276 52.3732 0.000747681 53.2657 0.000747681 54.167C0.000747681 55.0683 0.178276 55.9608 0.523197 56.7934C0.868117 57.6261 1.37367 58.3827 2.011 59.02L48.527 105.534C49.8138 106.82 51.5589 107.543 53.3785 107.543C55.1981 107.543 56.9432 106.82 58.23 105.534L104.529 59.237C105.816 57.9495 106.539 56.2037 106.539 54.3835C106.539 52.5633 105.816 50.8175 104.529 49.53Z" fill="#DE4C36"/>
</svg>
