<svg width="512" height="314" viewBox="0 0 512 314" fill="none" xmlns="http://www.w3.org/2000/svg">
<path d="M253.11 313.094C251.377 313.094 249.759 312.632 248.256 311.823L232.885 302.693C230.573 301.421 231.729 300.959 232.423 300.728C235.543 299.688 236.121 299.456 239.357 297.608C239.704 297.376 240.167 297.492 240.513 297.723L252.302 304.773C252.764 305.004 253.342 305.004 253.688 304.773L299.803 278.075C300.265 277.844 300.497 277.381 300.497 276.804V223.524C300.497 222.945 300.265 222.484 299.803 222.252L253.688 195.67C253.226 195.438 252.648 195.438 252.302 195.67L206.187 222.252C205.725 222.483 205.493 223.061 205.493 223.523V276.803C205.493 277.266 205.725 277.843 206.187 278.075L218.785 285.356C225.604 288.823 229.88 284.778 229.88 280.733V228.146C229.88 227.453 230.458 226.759 231.267 226.759H237.161C237.855 226.759 238.548 227.337 238.548 228.146V280.733C238.548 289.863 233.578 295.18 224.91 295.18C222.252 295.18 220.172 295.18 214.277 292.29L202.142 285.356C199.137 283.623 197.288 280.386 197.288 276.919V223.639C197.288 220.172 199.137 216.935 202.142 215.202L248.256 188.504C251.146 186.886 255.076 186.886 257.965 188.504L304.079 215.202C307.084 216.935 308.934 220.172 308.934 223.639V276.919C308.934 280.386 307.084 283.623 304.079 285.356L257.965 312.054C256.462 312.748 254.728 313.094 253.11 313.094ZM267.327 276.457C247.102 276.457 242.941 267.211 242.941 259.352C242.941 258.658 243.519 257.965 244.328 257.965H250.338C251.031 257.965 251.609 258.427 251.609 259.121C252.534 265.246 255.192 268.251 267.443 268.251C277.151 268.251 281.313 266.055 281.313 260.854C281.313 257.849 280.156 255.654 265.016 254.151C252.418 252.879 244.559 250.106 244.559 240.051C244.559 230.689 252.419 225.141 265.594 225.141C280.387 225.141 287.669 230.227 288.594 241.321C288.594 241.669 288.478 242.015 288.247 242.362C288.015 242.593 287.669 242.824 287.322 242.824H281.312C280.734 242.824 280.156 242.362 280.041 241.784C278.654 235.428 275.071 233.347 265.594 233.347C254.961 233.347 253.689 237.046 253.689 239.819C253.689 243.171 255.192 244.211 269.523 246.06C283.739 247.91 290.443 250.568 290.443 260.507C290.327 270.678 282.006 276.457 267.327 276.457Z" fill="#539E43"/>
<path d="M110.028 104.712C110.028 102.632 108.872 100.666 107.023 99.626L58.019 71.426C57.209 70.963 56.285 70.732 55.361 70.616H54.898C53.974 70.616 53.049 70.963 52.24 71.426L3.236 99.626C1.386 100.666 0.231003 102.631 0.231003 104.712L0.347003 180.529C0.347003 181.569 0.925003 182.609 1.849 183.072C2.774 183.65 3.929 183.65 4.739 183.072L33.864 166.429C35.713 165.389 36.869 163.424 36.869 161.344V125.862C36.869 123.782 38.024 121.817 39.874 120.777L52.24 113.611C53.165 113.033 54.205 112.801 55.245 112.801C56.285 112.801 57.325 113.033 58.135 113.611L70.501 120.777C72.351 121.817 73.506 123.781 73.506 125.862V161.344C73.506 163.424 74.662 165.389 76.511 166.429L105.636 183.072C106.086 183.355 106.607 183.506 107.138 183.506C107.67 183.506 108.191 183.355 108.641 183.072C109.566 182.609 110.144 181.569 110.144 180.529L110.028 104.712ZM345.571 0.347006C344.647 -0.115994 343.491 -0.115994 342.681 0.347006C341.757 0.925006 341.179 1.84901 341.179 2.88901V78.014C341.179 78.707 340.833 79.4 340.139 79.863C339.446 80.209 338.752 80.209 338.059 79.863L325.808 72.813C324.91 72.3016 323.894 72.0327 322.861 72.0327C321.827 72.0327 320.811 72.3016 319.913 72.813L270.909 101.129C269.06 102.169 267.904 104.134 267.904 106.214V162.73C267.904 164.81 269.06 166.776 270.909 167.816L319.913 196.132C320.811 196.643 321.827 196.912 322.861 196.912C323.894 196.912 324.91 196.643 325.808 196.132L374.812 167.816C376.661 166.776 377.817 164.811 377.817 162.73V21.844C377.817 19.648 376.661 17.684 374.812 16.643L345.571 0.347006ZM341.064 144.123C341.064 144.701 340.833 145.163 340.37 145.394L323.612 155.102C323.378 155.216 323.121 155.276 322.861 155.276C322.6 155.276 322.343 155.216 322.109 155.102L305.351 145.394C304.888 145.163 304.657 144.585 304.657 144.123V124.706C304.657 124.128 304.888 123.666 305.351 123.435L322.109 113.726C322.343 113.612 322.6 113.552 322.861 113.552C323.121 113.552 323.378 113.612 323.612 113.726L340.37 123.435C340.833 123.665 341.064 124.244 341.064 124.706V144.123ZM508.648 124.244C510.498 123.204 511.538 121.239 511.538 119.158V105.405C511.538 103.325 510.382 101.36 508.648 100.32L459.991 72.12C459.093 71.6086 458.077 71.3397 457.044 71.3397C456.01 71.3397 454.994 71.6086 454.096 72.12L405.092 100.435C403.242 101.475 402.087 103.44 402.087 105.52V162.037C402.087 164.117 403.243 166.082 405.092 167.122L453.749 194.86C455.599 195.9 457.795 195.9 459.529 194.86L489 178.45C489.925 177.987 490.503 176.947 490.503 175.907C490.503 174.867 489.925 173.827 489 173.364L439.765 145.048C438.84 144.47 438.262 143.546 438.262 142.506V124.823C438.262 123.783 438.84 122.743 439.765 122.28L455.136 113.496C455.586 113.213 456.107 113.063 456.639 113.063C457.17 113.063 457.691 113.213 458.141 113.496L473.513 122.28C474.438 122.858 475.015 123.782 475.015 124.823V138.692C475.015 139.732 475.593 140.772 476.518 141.234C476.968 141.517 477.489 141.668 478.021 141.668C478.552 141.668 479.073 141.517 479.523 141.234L508.648 124.244Z" fill="#333333"/>
<path d="M456.292 121.585C456.464 121.472 456.665 121.412 456.87 121.412C457.076 121.412 457.276 121.472 457.448 121.585L466.81 127.017C467.156 127.249 467.387 127.595 467.387 128.057V138.922C467.387 139.384 467.157 139.731 466.81 139.962L457.448 145.394C457.276 145.507 457.076 145.567 456.87 145.567C456.665 145.567 456.464 145.507 456.292 145.394L446.931 139.962C446.584 139.731 446.353 139.384 446.353 138.922V128.058C446.353 127.595 446.583 127.248 446.931 127.018L456.292 121.585Z" fill="#539E43"/>
<path d="M191.971 72.351C191.073 71.8398 190.057 71.571 189.024 71.571C187.991 71.571 186.975 71.8398 186.077 72.351L137.42 100.434C135.57 101.474 134.53 103.439 134.53 105.519V161.805C134.53 163.885 135.686 165.85 137.42 166.89L186.077 194.975C186.975 195.486 187.991 195.755 189.024 195.755C190.057 195.755 191.073 195.486 191.971 194.975L240.629 166.89C242.478 165.85 243.519 163.885 243.519 161.805V105.52C243.519 103.44 242.362 101.475 240.629 100.435L191.971 72.351Z" fill="url(#paint0_linear_1_3608)"/>
<mask id="mask0_1_3608" style="mask-type:luminance" maskUnits="userSpaceOnUse" x="134" y="71" width="110" height="125">
<path d="M191.971 72.351C191.073 71.8398 190.057 71.571 189.024 71.571C187.991 71.571 186.975 71.8398 186.077 72.351L137.42 100.434C135.57 101.474 134.53 103.439 134.53 105.519V161.805C134.53 163.885 135.686 165.85 137.42 166.89L186.077 194.975C186.975 195.486 187.991 195.755 189.024 195.755C190.057 195.755 191.073 195.486 191.971 194.975L240.629 166.89C242.478 165.85 243.519 163.885 243.519 161.805V105.52C243.519 103.44 242.362 101.475 240.629 100.435L191.971 72.351Z" fill="white"/>
</mask>
<g mask="url(#mask0_1_3608)">
<path d="M240.744 100.435L191.856 72.351C191.376 72.1084 190.872 71.9148 190.353 71.773L135.57 165.621C136.024 166.175 136.572 166.645 137.189 167.008L186.077 195.093C187.464 195.902 189.082 196.133 190.584 195.67L242.016 101.592C241.669 101.13 241.206 100.781 240.744 100.435Z" fill="url(#paint1_linear_1_3608)"/>
</g>
<mask id="mask1_1_3608" style="mask-type:luminance" maskUnits="userSpaceOnUse" x="134" y="71" width="110" height="125">
<path d="M191.971 72.351C191.073 71.8398 190.057 71.571 189.024 71.571C187.991 71.571 186.975 71.8398 186.077 72.351L137.42 100.434C135.57 101.474 134.53 103.439 134.53 105.519V161.805C134.53 163.885 135.686 165.85 137.42 166.89L186.077 194.975C186.975 195.486 187.991 195.755 189.024 195.755C190.057 195.755 191.073 195.486 191.971 194.975L240.629 166.89C242.478 165.85 243.519 163.885 243.519 161.805V105.52C243.519 103.44 242.362 101.475 240.629 100.435L191.971 72.351Z" fill="white"/>
</mask>
<g mask="url(#mask1_1_3608)">
<path fill-rule="evenodd" clip-rule="evenodd" d="M240.86 166.891C242.247 166.082 243.287 164.695 243.75 163.193L190.121 71.657C188.734 71.426 187.231 71.541 185.961 72.35L137.419 100.32L189.774 195.785C190.535 195.66 191.275 195.427 191.97 195.092L240.86 166.891Z" fill="url(#paint2_linear_1_3608)"/>
<path fill-rule="evenodd" clip-rule="evenodd" d="M240.86 166.891L192.087 194.976C191.398 195.327 190.656 195.561 189.891 195.669L190.816 197.403L244.905 166.083V165.389L243.518 163.077C243.287 164.695 242.247 166.082 240.86 166.891Z" fill="url(#paint3_linear_1_3608)"/>
<path fill-rule="evenodd" clip-rule="evenodd" d="M240.86 166.891L192.087 194.976C191.398 195.327 190.656 195.561 189.891 195.669L190.816 197.403L244.905 166.083V165.389L243.518 163.077C243.287 164.695 242.247 166.082 240.86 166.891Z" fill="url(#paint4_linear_1_3608)"/>
</g>
<defs>
<linearGradient id="paint0_linear_1_3608" x1="7566.27" y1="2243.18" x2="2232.99" y2="10623.3" gradientUnits="userSpaceOnUse">
<stop stop-color="#41873F"/>
<stop offset="0.3288" stop-color="#418B3D"/>
<stop offset="0.6352" stop-color="#419637"/>
<stop offset="0.9319" stop-color="#3FA92D"/>
<stop offset="1" stop-color="#3FAE2A"/>
</linearGradient>
<linearGradient id="paint1_linear_1_3608" x1="4742.23" y1="6920.08" x2="18099.2" y2="-336.805" gradientUnits="userSpaceOnUse">
<stop offset="0.1376" stop-color="#41873F"/>
<stop offset="0.4032" stop-color="#54A044"/>
<stop offset="0.7136" stop-color="#66B848"/>
<stop offset="0.9081" stop-color="#6CC04A"/>
</linearGradient>
<linearGradient id="paint2_linear_1_3608" x1="-329.268" y1="6282.84" x2="10929.9" y2="6282.84" gradientUnits="userSpaceOnUse">
<stop offset="0.09192" stop-color="#6CC04A"/>
<stop offset="0.2864" stop-color="#66B848"/>
<stop offset="0.5968" stop-color="#54A044"/>
<stop offset="0.8624" stop-color="#41873F"/>
</linearGradient>
<linearGradient id="paint3_linear_1_3608" x1="-5523.92" y1="1888.82" x2="5735.14" y2="1888.82" gradientUnits="userSpaceOnUse">
<stop offset="0.09192" stop-color="#6CC04A"/>
<stop offset="0.2864" stop-color="#66B848"/>
<stop offset="0.5968" stop-color="#54A044"/>
<stop offset="0.8624" stop-color="#41873F"/>
</linearGradient>
<linearGradient id="paint4_linear_1_3608" x1="7375.43" y1="-7082.08" x2="4523.08" y2="7864.2" gradientUnits="userSpaceOnUse">
<stop stop-color="#41873F"/>
<stop offset="0.3288" stop-color="#418B3D"/>
<stop offset="0.6352" stop-color="#419637"/>
<stop offset="0.9319" stop-color="#3FA92D"/>
<stop offset="1" stop-color="#3FAE2A"/>
</linearGradient>
</defs>
</svg>
