<svg width="512" height="188" viewBox="0 0 512 188" fill="none" xmlns="http://www.w3.org/2000/svg">
<path d="M0 0H512V188H0V0Z" fill="#262626"/>
<path d="M163.014 121.69C163.014 121.08 163.274 120.82 163.884 120.82H173.53C173.877 120.82 174.051 121.08 174.051 121.69V122.124C174.051 122.732 173.878 122.993 173.53 122.993H165.448V129.337H172.661C173.008 129.337 173.182 129.597 173.182 130.206V130.641C173.182 131.249 173.009 131.51 172.661 131.51H165.448V138.289H173.53C173.877 138.289 174.051 138.549 174.051 139.157V139.592C174.051 140.201 173.878 140.462 173.53 140.462H163.796C163.188 140.462 162.927 140.201 162.927 139.592V121.69H163.014ZM177.703 139.765L177.789 129.945L177.786 129.623C177.756 127.578 177.441 126.552 177.441 126.469C177.441 125.948 178.571 125.861 178.918 125.861C179.614 125.861 179.7 126.991 179.874 127.686C181.004 126.382 182.656 125.6 184.22 125.6C187.088 125.6 188.739 127.25 188.739 130.12V139.765C188.739 140.113 188.392 140.374 187.609 140.374H187.523C186.74 140.374 186.393 140.114 186.393 139.765V130.38C186.393 128.728 185.35 127.686 183.525 127.686C182.308 127.686 180.918 128.468 180.049 129.597V139.765C180.049 140.113 179.701 140.375 178.919 140.375H178.832C178.05 140.375 177.702 140.113 177.702 139.765M194.908 139.157C193.865 138.723 193.17 138.027 193.17 136.897C193.17 135.507 194.3 134.899 195.256 134.551C193.605 133.769 192.736 132.205 192.736 130.38C192.736 127.773 194.647 125.6 198.297 125.6C198.993 125.6 199.601 125.687 200.122 125.774H204.902C205.25 125.774 205.424 126.034 205.424 126.643V126.991C205.424 127.599 205.25 127.859 204.902 127.859H202.99C203.599 128.642 203.947 129.51 203.947 130.467C203.947 133.073 202.035 135.247 198.384 135.247H198.124C197.429 135.247 195.777 135.42 195.777 136.376C195.777 138.548 205.163 136.376 205.163 141.851C205.163 144.284 202.73 146.196 198.211 146.196L197.901 146.195C194.413 146.15 191.953 145.332 191.953 142.546C191.779 140.896 193.083 139.766 194.908 139.157ZM198.384 144.111C200.904 144.111 202.555 143.155 202.555 141.851C202.555 140.201 199.6 140.026 196.994 139.591C195.864 140.026 194.212 140.982 194.212 142.199C194.212 143.764 196.125 144.111 198.384 144.111ZM201.426 130.38C201.426 128.247 200.086 127.622 198.393 127.6L198.297 127.599C196.559 127.599 195.168 128.294 195.168 130.379C195.168 132.553 196.559 133.161 198.297 133.161L198.489 133.158C200.137 133.114 201.426 132.472 201.426 130.38ZM216.548 131.25V129.945C216.548 128.728 215.766 127.599 213.506 127.599C210.986 127.599 209.422 128.729 209.16 128.729C208.813 128.729 208.205 127.686 208.205 127.338C208.205 126.642 210.638 125.6 213.419 125.6C216.895 125.6 218.894 127.25 218.894 129.945V136.115C218.894 138.375 219.242 139.505 219.242 139.592C219.242 140.113 218.112 140.2 217.764 140.2C217.069 140.2 216.982 139.07 216.808 138.289C215.766 139.418 214.201 140.374 212.115 140.374C209.422 140.374 207.335 139.071 207.335 136.204C207.335 131.596 212.375 131.249 216.548 131.249M212.202 138.374C214.201 138.374 215.418 137.419 216.548 136.462V133.16L215.978 133.161C213.199 133.172 209.856 133.347 209.856 136.028C209.856 137.592 210.638 138.374 212.202 138.374ZM225.238 139.156C224.196 138.722 223.5 138.026 223.5 136.896C223.5 135.506 224.63 134.898 225.586 134.55C223.935 133.768 223.066 132.204 223.066 130.379C223.066 127.772 224.978 125.599 228.628 125.599C229.323 125.599 229.932 125.686 230.453 125.773H235.233C235.58 125.773 235.754 126.033 235.754 126.642V126.99C235.754 127.598 235.58 127.858 235.233 127.858H233.321C233.929 128.641 234.277 129.509 234.277 130.466C234.277 133.072 232.365 135.246 228.715 135.246H228.455C227.759 135.246 226.108 135.419 226.108 136.375C226.108 138.547 235.494 136.375 235.494 141.85C235.494 144.283 233.06 146.195 228.541 146.195L228.231 146.194C224.744 146.149 222.284 145.331 222.284 142.545C222.11 140.895 223.326 139.765 225.238 139.156ZM228.628 144.11C231.148 144.11 232.799 143.154 232.799 141.85C232.799 140.2 229.844 140.025 227.237 139.59C226.107 140.025 224.456 140.981 224.456 142.198C224.456 143.763 226.368 144.11 228.627 144.11M231.668 130.379C231.668 128.246 230.328 127.621 228.636 127.599L228.54 127.598C226.802 127.598 225.411 128.293 225.411 130.378C225.411 132.552 226.801 133.16 228.54 133.16L228.731 133.157C230.379 133.113 231.668 132.471 231.668 130.379ZM238.708 121.689V120.037C238.708 119.689 239.055 119.429 239.838 119.429H240.185C240.967 119.429 241.315 119.689 241.315 120.037V121.688C241.315 122.035 240.967 122.297 240.185 122.297H239.837C239.055 122.297 238.707 122.036 238.707 121.688M238.793 126.293C238.793 125.946 239.141 125.685 239.923 125.685H240.01C240.792 125.685 241.14 125.945 241.14 126.293V139.677C241.14 140.024 240.792 140.285 240.01 140.285H239.923C239.141 140.285 238.793 140.025 238.793 139.677V126.293ZM246.007 129.943C246.007 127.683 245.66 126.554 245.66 126.467C245.66 125.946 246.79 125.859 247.137 125.859C247.832 125.859 247.919 126.989 248.093 127.684C249.223 126.38 250.874 125.598 252.439 125.598C255.307 125.598 256.958 127.248 256.958 130.118V139.763C256.958 140.111 256.61 140.372 255.828 140.372H255.741C254.959 140.372 254.611 140.112 254.611 139.763V130.378C254.611 128.726 253.569 127.684 251.744 127.684C250.527 127.684 249.137 128.466 248.268 129.595V139.763C248.268 140.111 247.92 140.373 247.138 140.373H247.051C246.269 140.373 245.921 140.111 245.921 139.763L246.007 129.943ZM263.127 139.155C262.085 138.721 261.39 138.025 261.39 136.895C261.39 135.505 262.519 134.897 263.476 134.549C261.824 133.767 260.956 132.203 260.956 130.378C260.956 127.771 262.867 125.598 266.517 125.598C267.213 125.598 267.821 125.685 268.342 125.772H273.122C273.469 125.772 273.644 126.032 273.644 126.641V126.989C273.644 127.597 273.47 127.857 273.122 127.857H271.122C271.732 128.64 272.079 129.508 272.079 130.465C272.079 133.071 270.167 135.245 266.517 135.245H266.257C265.561 135.245 263.91 135.418 263.91 136.374C263.91 138.546 273.296 136.374 273.296 141.849C273.296 144.282 270.862 146.194 266.343 146.194L266.033 146.193C262.546 146.148 260.086 145.33 260.086 142.544C259.999 140.894 261.302 139.764 263.127 139.155ZM266.604 144.109C269.124 144.109 270.775 143.153 270.775 141.849C270.775 140.199 267.82 140.024 265.213 139.589C264.083 140.024 262.432 140.98 262.432 142.197C262.432 143.762 264.257 144.109 266.604 144.109ZM269.646 130.378C269.646 128.245 268.306 127.62 266.613 127.598L266.517 127.597C264.779 127.597 263.388 128.292 263.388 130.377C263.388 132.551 264.778 133.159 266.517 133.159L266.709 133.156C268.356 133.112 269.646 132.47 269.646 130.378ZM283.811 127.771H282.421C282.073 127.771 281.899 127.51 281.899 126.901V126.554C281.899 125.946 282.073 125.685 282.42 125.685H283.811L284.159 122.73C284.159 122.383 284.419 122.122 285.028 122.122H285.288C285.897 122.122 286.158 122.382 286.158 122.73V125.685H288.503C288.851 125.685 289.025 125.945 289.025 126.555V126.901C289.025 127.51 288.852 127.771 288.503 127.771H286.157V136.374C286.157 138.026 286.853 138.46 287.635 138.46C288.417 138.46 288.59 138.287 288.852 138.287C289.199 138.287 289.46 139.329 289.46 139.59C289.46 140.325 288.31 140.446 287.594 140.458L287.461 140.459C286.091 140.459 283.965 139.869 283.899 136.784L283.811 127.771ZM292.937 120.036C292.937 119.688 293.284 119.428 294.066 119.428H294.153C294.935 119.428 295.283 119.688 295.283 120.036V127.51C296.238 126.554 297.716 125.598 299.541 125.598C301.366 125.598 303.973 126.293 303.973 130.118V139.764C303.973 140.111 303.625 140.372 302.843 140.372H302.757C301.975 140.372 301.627 140.112 301.627 139.764V130.378C301.627 128.727 300.671 127.684 298.759 127.684C296.673 127.684 295.283 129.596 295.283 129.596V139.764C295.283 140.111 294.935 140.373 294.153 140.373H294.066C293.284 140.373 292.936 140.112 292.936 139.763L292.937 120.036ZM314.055 125.598C317.879 125.598 319.79 128.118 319.79 132.811C319.79 133.159 319.182 133.941 318.834 133.941H310.057C310.317 136.982 311.622 138.373 314.316 138.373C316.749 138.373 318.052 137.243 318.4 137.243C318.747 137.243 319.356 138.286 319.356 138.633C319.356 139.329 317.183 140.372 314.402 140.372C309.796 140.372 307.623 138.026 307.623 133.072C307.537 128.205 309.796 125.598 314.055 125.598ZM317.27 131.942C317.27 129.074 316.14 127.597 313.968 127.597C311.534 127.597 310.318 129.074 310.057 131.942H317.27ZM330.306 121.426C330.306 121.079 330.654 120.818 331.436 120.818H331.696C332.479 120.818 332.826 121.078 332.826 121.426V139.764C332.826 140.111 332.479 140.372 331.696 140.372H331.436C330.653 140.372 330.306 140.112 330.306 139.764V121.426ZM337.781 139.763L337.867 129.943L337.864 129.621C337.834 127.576 337.519 126.55 337.519 126.467C337.519 125.946 338.649 125.859 338.997 125.859C339.692 125.859 339.779 126.989 339.953 127.684C341.082 126.38 342.734 125.598 344.298 125.598C347.166 125.598 348.818 127.248 348.818 130.118V139.763C348.818 140.111 348.47 140.372 347.688 140.372H347.601C346.819 140.372 346.471 140.112 346.471 139.763V130.378C346.471 128.726 345.428 127.684 343.603 127.684C342.386 127.684 340.996 128.466 340.127 129.595V139.763C340.127 140.111 339.78 140.373 338.997 140.373H338.911C338.129 140.373 337.781 140.111 337.781 139.763ZM353.858 127.771H352.468C352.12 127.771 351.946 127.51 351.946 126.901V126.554C351.946 125.946 352.119 125.685 352.467 125.685H353.857L354.205 122.73C354.205 122.383 354.553 122.122 355.075 122.122H355.335C355.943 122.122 356.204 122.382 356.204 122.73V125.685H358.55C358.898 125.685 359.072 125.945 359.072 126.555V126.901C359.072 127.51 358.898 127.771 358.55 127.771H356.204V136.374C356.204 138.026 356.899 138.46 357.681 138.46C358.464 138.46 358.637 138.287 358.898 138.287C359.246 138.287 359.507 139.329 359.507 139.59C359.507 140.325 358.357 140.446 357.64 140.458L357.508 140.459C356.138 140.459 354.012 139.869 353.946 136.784L353.858 127.771ZM368.371 125.598C372.195 125.598 374.107 128.118 374.107 132.811C374.107 133.159 373.498 133.941 373.151 133.941H364.374C364.634 136.982 365.938 138.373 368.632 138.373C371.065 138.373 372.369 137.243 372.716 137.243C373.064 137.243 373.672 138.286 373.672 138.633C373.672 139.329 371.5 140.372 368.719 140.372C364.113 140.372 361.94 138.026 361.94 133.072C361.94 128.205 364.113 125.598 368.371 125.598ZM371.587 131.942C371.587 129.074 370.457 127.597 368.285 127.597C365.851 127.597 364.634 129.074 364.374 131.942H371.587ZM377.844 139.677V129.943L377.842 129.621C377.811 127.576 377.497 126.55 377.497 126.467C377.497 125.946 378.627 125.859 378.974 125.859C379.669 125.859 379.756 126.989 379.93 127.684C380.886 126.38 382.016 125.598 383.145 125.598C384.188 125.598 384.797 126.032 384.797 126.64C384.797 127.162 384.536 128.118 384.275 128.118C383.927 128.118 383.666 127.858 382.711 127.858C381.233 127.858 380.191 129.508 380.191 129.508V139.677C380.191 140.024 379.843 140.285 379.061 140.285H378.974C378.192 140.285 377.844 140.025 377.844 139.677ZM387.838 129.943C387.838 127.683 387.491 126.554 387.491 126.467C387.491 125.946 388.621 125.859 388.969 125.859C389.664 125.859 389.751 126.989 389.924 127.684C391.054 126.38 392.705 125.598 394.27 125.598C397.138 125.598 398.79 127.248 398.79 130.118V139.763C398.79 140.111 398.441 140.372 397.66 140.372H397.573C396.79 140.372 396.443 140.112 396.443 139.763V130.378C396.443 128.726 395.4 127.684 393.575 127.684C392.358 127.684 390.968 128.466 390.099 129.595V139.763C390.099 140.111 389.751 140.373 388.969 140.373H388.882C388.1 140.373 387.752 140.111 387.752 139.763L387.838 129.943ZM408.957 125.598C412.78 125.598 414.692 128.118 414.692 132.811C414.692 133.159 414.084 133.941 413.737 133.941H404.959C405.219 136.982 406.523 138.373 409.217 138.373C411.651 138.373 412.954 137.243 413.302 137.243C413.649 137.243 414.257 138.286 414.257 138.633C414.257 139.329 412.085 140.372 409.304 140.372C404.698 140.372 402.525 138.026 402.525 133.072C402.438 128.205 404.698 125.598 408.957 125.598ZM412.172 131.942C412.172 129.074 411.042 127.597 408.87 127.597C406.436 127.597 405.22 129.074 404.96 131.942H412.172ZM418.864 127.771H417.473C417.126 127.771 416.951 127.51 416.951 126.901V126.554C416.951 125.946 417.125 125.685 417.473 125.685H418.863L419.211 122.73C419.211 122.383 419.471 122.122 420.081 122.122H420.341C420.949 122.122 421.21 122.382 421.21 122.73V125.685H423.556C423.904 125.685 424.078 125.945 424.078 126.555V126.901C424.078 127.51 423.904 127.771 423.556 127.771H421.21V136.374C421.21 138.026 421.905 138.46 422.687 138.46C423.469 138.46 423.643 138.287 423.904 138.287C424.251 138.287 424.512 139.329 424.512 139.59C424.512 140.325 423.362 140.446 422.646 140.458L422.513 140.459C421.145 140.459 419.018 139.869 418.952 136.784L418.864 127.771Z" fill="#848484"/>
<path d="M184.915 50.86C192.215 50.86 198.993 53.467 198.993 55.466C198.993 56.683 197.429 59.724 196.473 59.724C195.691 59.724 192.128 56.509 185.001 56.509C171.965 56.509 167.707 64.07 167.707 76.932C167.707 88.23 171.097 97.789 184.219 97.789L184.717 97.787C188.365 97.752 191.863 97.332 193.692 96.834V81.973H185.088C184.046 81.973 183.611 81.277 183.611 79.8V78.583C183.611 77.019 184.046 76.41 185.088 76.41H198.038C199.602 76.41 200.21 77.105 200.21 78.583V98.137C200.21 102.308 192.215 103.439 183.785 103.439C169.098 103.439 161.015 95.182 161.015 77.627C161.015 59.203 169.532 50.86 184.915 50.86ZM207.858 101.527V75.629C207.858 69.623 207.011 66.751 206.99 66.344V66.33C206.99 64.94 210.03 64.592 210.987 64.592C212.725 64.592 213.16 67.546 213.594 69.458C216.114 65.895 219.069 63.896 222.111 63.896C224.979 63.896 226.369 65.113 226.369 66.764C226.369 68.154 225.76 70.762 224.891 70.762C223.936 70.762 223.327 69.98 220.807 69.98C216.983 69.98 214.027 74.499 214.027 74.499V101.527C214.027 102.57 213.159 103.178 211.073 103.178H210.813C208.727 103.178 207.858 102.57 207.858 101.527ZM246.531 63.897C256.612 63.897 261.74 70.588 261.74 83.103C261.74 83.972 260.176 86.144 259.307 86.144H236.016C236.624 94.314 240.1 98.051 247.401 98.051C253.831 98.051 257.395 94.921 258.177 94.921C259.22 94.921 260.784 97.79 260.784 98.572C260.784 100.31 254.961 103.265 247.488 103.265C235.356 103.265 229.528 97.132 229.413 84.192L229.411 83.798C229.324 70.848 235.234 63.897 246.531 63.897ZM255.135 80.929C255.135 73.195 252.18 69.284 246.271 69.284C239.84 69.284 236.451 73.194 235.929 80.929H255.135ZM284.77 63.895C294.851 63.895 299.979 70.587 299.979 83.102C299.979 83.971 298.415 86.143 297.545 86.143H274.255C274.863 94.313 278.339 98.05 285.64 98.05C292.07 98.05 295.634 94.92 296.416 94.92C297.459 94.92 299.023 97.789 299.023 98.571C299.023 100.309 293.201 103.264 285.726 103.264C273.472 103.264 267.65 97.007 267.65 83.797C267.65 70.847 273.472 63.895 284.77 63.895ZM293.46 80.929C293.46 73.195 290.506 69.284 284.596 69.284C278.166 69.284 274.776 73.194 274.255 80.929H293.46ZM306.67 101.352V75.63L306.669 75.168C306.627 69.476 305.823 66.742 305.802 66.345V66.331C305.802 64.941 308.843 64.593 309.799 64.593C311.537 64.593 311.972 67.547 312.406 69.459C315.535 65.983 319.793 63.897 323.878 63.897C331.438 63.897 335.871 68.417 335.871 75.803V101.354C335.871 102.397 335.001 103.005 332.916 103.005H332.656C330.569 103.005 329.7 102.397 329.7 101.354V76.324C329.7 71.806 327.006 69.199 322.14 69.199C318.837 69.199 315.274 71.198 312.84 74.326V101.354C312.84 102.397 311.971 103.006 309.885 103.006H309.625C307.539 103.006 306.67 102.397 306.67 101.354" fill="white"/>
<path d="M349.081 90.49C350.385 90.49 354.034 93.879 359.945 93.879L360.159 93.878C363.245 93.834 366.897 92.822 366.897 88.491C366.897 79.8 345.605 83.189 345.605 65.808C345.605 54.945 354.469 50.687 363.073 50.687C370.895 50.687 376.369 53.38 376.369 55.814C376.369 57.814 374.109 62.245 372.285 62.245C371.329 62.245 369.07 60.42 364.116 60.42C358.38 60.42 357.251 63.114 357.251 64.766C357.251 73.196 378.542 69.806 378.542 87.101C378.542 99.355 369.938 103.439 361.856 103.439C350.646 103.439 344.562 99.441 344.562 96.922C344.562 94.748 347.517 90.49 349.082 90.49M400.792 63.81C412.524 63.81 418.607 70.849 418.607 83.624C418.607 96.486 412.524 103.526 400.791 103.526C389.059 103.526 382.888 96.486 382.888 83.624C382.888 70.762 389.058 63.809 400.791 63.809M407.568 83.844L407.569 83.624C407.569 76.236 405.483 72.412 400.79 72.412C396.097 72.412 393.924 76.236 393.924 83.623C393.924 91.01 396.097 94.921 400.79 94.921C405.436 94.921 407.527 91.088 407.568 83.844ZM442.332 63.808L442.647 63.81C447.825 63.878 454.586 65.614 454.586 68.936C454.586 70.326 451.892 74.585 450.675 74.585C450.415 74.585 449.98 74.325 449.371 74.063L449.081 73.911C447.776 73.236 445.845 72.412 442.941 72.412C437.089 72.412 434.646 75.99 434.598 83.397V83.623C434.598 91.183 436.856 94.921 442.505 94.921C445.981 94.921 448.328 93.878 449.719 93.183L449.953 93.083C450.44 92.879 450.796 92.748 451.023 92.748C452.673 92.748 454.846 96.92 454.846 98.31C454.846 102.481 444.331 103.438 441.984 103.438C429.383 103.438 423.386 97.007 423.386 83.798C423.386 70.761 429.122 63.808 442.332 63.808ZM460.147 49.73C460.147 48.193 461.406 47.411 464.417 47.384H466.665C469.795 47.384 471.098 48.165 471.098 49.73V78.93L471.358 79.017L480.309 65.634C481.156 64.449 482.579 64.253 484.659 64.243H487.523C490.303 64.243 491.694 64.677 491.694 65.373C491.694 65.699 491.464 66.181 491.074 66.743L480.744 81.45L492.736 100.482L493.032 101.066C493.222 101.449 493.345 101.748 493.345 102.047C493.345 102.742 492.041 103.177 489.174 103.177H486.045L485.715 103.174C483.715 103.147 482.273 102.858 481.613 101.786L471.358 84.84L471.098 84.927V100.831C471.098 102.395 469.794 103.177 466.665 103.177H464.579C461.451 103.177 460.147 102.395 460.147 100.831V49.73Z" fill="#88CE02"/>
<path d="M24.92 83.016C20.487 85.1 8.755 94.487 6.496 97.268C4.149 100.049 3.454 95.704 5.887 88.491C7.799 82.668 12.666 74.759 20.835 67.981C25.615 64.07 36.131 58.421 42.561 55.118C43.865 54.423 60.725 47.297 75.76 43.734C77.064 43.386 74.196 45.906 73.76 47.297C71.501 53.902 26.397 82.233 26.397 82.233L24.92 83.016ZM88.448 162.708C89.23 167.401 88.535 167.749 83.668 168.358C78.801 168.966 75.238 167.141 73.935 165.924C72.631 164.707 72.371 162.014 73.675 159.58C74.457 158.016 75.239 157.494 75.674 155.582C76.108 153.757 76.456 153.322 76.803 152.628C77.15 152.018 77.238 151.41 77.324 147.152C77.411 142.894 77.324 134.898 77.759 131.509C78.194 128.033 93.229 133.073 93.229 133.073C93.229 133.073 89.665 141.938 88.709 144.11C87.753 146.283 87.84 150.455 87.84 151.324C87.84 152.193 87.493 153.931 87.232 154.018C86.972 154.104 88.102 156.364 87.579 157.668C87.232 158.885 88.361 162.013 88.448 162.708ZM94.184 29.829C93.662 26.526 94.184 20.008 94.879 18.965C97.052 16.01 108.524 15.663 110.957 19.139C112 20.703 111.913 24.353 111.739 26.699C111.566 29.046 110.957 34.087 110.87 35.739C110.784 36.955 98.182 38.867 95.4 35.564C94.618 34.696 94.184 29.829 94.184 29.829ZM119.735 154.278C125.035 158.103 129.12 158.798 131.815 160.188C134.508 161.579 133.813 164.273 129.295 165.055C125.644 165.75 119.908 164.36 116.085 164.36C112.261 164.36 103.744 164.794 101.484 163.23C98.877 161.405 100.006 158.016 100.006 158.016C100.702 156.104 102.44 151.846 101.918 148.369C101.397 144.893 100.701 142.981 99.398 139.765C98.094 136.55 97.138 128.642 98.356 128.207C99.572 127.772 99.224 128.207 100.789 128.554C102.353 128.902 104.091 129.424 107.481 129.424C110.871 129.424 114.607 128.902 115.911 128.641C117.214 128.381 118.257 128.119 117.822 130.814C117.388 133.508 116.084 138.548 115.997 142.459C115.911 146.37 115.911 150.889 116.172 151.671C116.432 152.454 118.344 153.323 119.735 154.278Z" fill="black"/>
<path d="M101.137 38.52C91.577 46.776 73.067 49.035 45.604 59.638C38.564 62.332 19.794 70.414 15.274 78.844C30.482 70.067 36.131 82.147 37.348 94.574C38.478 106.22 44.3 112.304 59.248 111.955C74.631 111.608 79.324 120.559 83.582 131.075C91.838 90.837 105.048 83.015 113.564 76.15C131.641 61.463 109.394 35.565 101.137 38.52Z" fill="#88CE02"/>
<path d="M101.137 38.52C78.194 46.515 55.511 48.514 28.831 64.94C22.487 68.85 9.103 77.713 6.496 94.66C16.229 83.884 38.738 70.327 66.287 61.723C80.192 57.377 90.361 54.51 102.701 49.73C101.833 44.167 101.833 41.996 101.137 38.52Z" fill="#88CE02"/>
<path d="M130.424 86.144C130.424 86.144 128.774 91.794 125.471 93.619C125.471 93.619 123.037 94.488 118.171 91.794C116.781 91.012 115.738 88.318 115.824 87.448C115.911 85.362 117.214 84.407 117.214 84.407C117.214 84.407 118.606 82.06 120.256 82.147C121.908 82.234 124.689 82.494 125.558 81.712C126.34 80.843 130.598 83.276 130.424 86.144ZM94.967 31.48C94.967 31.48 94.619 35.913 94.011 38.694C93.924 39.215 91.317 39.476 89.405 40.258C93.055 50.687 115.042 50.6 117.91 45.472C116.52 44.517 113.739 43.039 112.435 42.518C111.131 41.996 111.218 42.083 111.131 39.65C111.045 37.216 110.871 32.697 110.697 31.48C110.523 30.263 97.052 30.263 94.967 31.48Z" fill="black"/>
<path d="M95.836 31.48C95.836 31.48 95.836 34 95.575 36.434C95.488 37.564 95.401 38.259 95.228 39.128C95.141 39.65 98.182 41.735 99.052 46.341C103.223 55.64 112.87 51.034 116.867 46.601C115.477 45.646 113.217 44.342 110.61 43.299C109.306 42.778 109.915 41.649 109.828 39.215C109.741 36.782 109.393 33.218 109.22 31.915C109.045 30.611 97.922 30.263 95.836 31.48Z" fill="#EFEFEF"/>
<path d="M94.967 31.48C94.967 31.48 94.88 33.045 94.619 34.87C95.749 36 97.226 37.564 98.356 38.52C99.139 39.215 101.05 39.128 102.789 39.128C104.353 39.128 105.743 39.302 106.352 38.955C107.742 38.259 109.742 36.521 110.871 35.218C110.784 33.653 110.697 32.176 110.611 31.48C110.523 30.263 97.052 30.263 94.967 31.48Z" fill="black"/>
<path d="M102.875 38.085C101.832 38.085 100.615 37.999 99.66 37.825C99.225 37.738 98.79 37.477 98.443 37.303C97.834 36.868 97.226 36.347 96.531 35.826C95.141 34.783 95.054 34.174 95.054 33.914C95.662 28.439 94.88 23.833 94.88 23.833C94.88 23.833 94.271 21.486 97.574 20.878C100.876 20.269 102.874 20.183 102.874 20.183C102.874 20.183 104.961 20.183 108.176 20.878C111.479 21.486 110.87 23.833 110.87 23.833C110.87 23.833 110.088 28.439 110.697 33.914C110.697 34.174 110.61 34.783 109.219 35.826C108.002 36.695 107.046 37.65 106.091 37.824C105.135 37.999 103.918 38.085 102.875 38.085Z" fill="black"/>
<path d="M102.875 17.923C97.14 17.923 96.009 19.487 94.358 21.225C94.011 21.66 94.271 24.267 94.88 29.829H95.662C95.662 29.829 95.14 28.265 95.227 26.439C95.314 24.615 95.662 24.702 95.401 24.267C95.054 23.745 94.358 22.877 95.923 22.007C97.487 21.138 99.92 22.703 102.875 22.79C105.83 22.703 108.35 21.138 109.915 22.007C111.479 22.877 110.784 23.745 110.436 24.267C110.089 24.788 110.523 24.614 110.61 26.44C110.653 27.5863 110.506 28.7317 110.175 29.83H110.957C111.479 24.267 111.827 21.834 111.566 21.4C110.088 19.487 108.61 18.01 102.875 17.923ZM130.424 86.405C130.424 86.405 128.774 91.706 125.558 93.531C124.862 93.184 124.949 92.663 124.341 91.881C124.167 91.62 123.558 91.445 123.298 91.185C123.038 90.925 123.124 90.49 122.69 90.142C122.342 89.795 122.081 90.055 121.734 89.795C121.386 89.447 121.299 89.012 121.039 88.752C120.864 88.578 120.169 88.492 119.996 88.317C119.561 87.883 115.738 87.101 115.911 86.231C116.259 84.928 116.954 83.971 116.954 83.971C116.954 83.971 118.605 81.539 120.256 81.625C121.907 81.712 123.472 82.06 124.341 81.278C125.297 80.408 130.685 83.624 130.424 86.405Z" fill="black"/>
<path d="M119.127 47.993C119.127 47.993 124.602 46.689 128.339 50.253C132.076 53.903 131.815 58.421 130.685 61.203C131.641 62.333 133.379 65.46 132.075 69.198C137.812 74.064 135.291 81.538 130.165 86.492C130.165 86.492 128.947 81.972 124.081 81.712C124.254 79.974 119.561 78.583 121.734 74.064C118.432 73.282 118.519 71.023 117.997 68.242C117.562 65.46 119.127 47.993 119.127 47.993Z" fill="black"/>
<path d="M117.128 50.426C117.128 50.426 123.472 47.211 127.209 50.861C130.946 54.511 129.903 58.508 128.773 61.289C129.729 62.419 131.988 65.635 130.598 69.459C130.338 70.327 128.425 70.327 127.034 72.587C130.511 70.587 132.684 71.11 133.466 73.629C134.682 77.54 131.988 82.233 129.642 84.841C129.642 84.754 129.555 84.666 129.555 84.58C129.207 85.884 128.773 88.404 126.165 91.185C124.862 92.575 123.819 92.402 122.342 92.054C120.604 91.619 119.995 90.836 117.562 89.534C116.172 88.751 116.954 87.795 116.954 87.014C116.954 86.839 117.127 86.578 117.388 86.231C117.562 85.796 118.083 85.101 118.865 84.319C118.865 84.319 119.995 82.755 121.647 82.842C123.298 82.929 125.036 82.582 125.471 82.147C125.471 79.105 121.995 79.017 123.211 73.804C123.298 73.543 123.733 73.108 125.123 72.934C123.037 72.5 122.081 72.413 120.603 71.023C119.561 70.067 118.779 68.85 118.518 67.286C117.997 64.592 117.128 50.426 117.128 50.426Z" fill="#EFEFEF"/>
<path d="M98.79 44.951C98.269 44.256 95.575 40.78 90.447 39.389C88.97 38.954 88.014 40.171 86.537 41.04C86.102 40.78 84.19 39.91 83.147 40.518C82.105 41.126 81.41 41.735 80.367 42.17C79.845 41.909 78.455 41.909 77.325 42.343C76.195 42.691 74.457 43.473 72.805 45.733C71.763 49.47 91.229 46.688 91.229 46.688L98.79 44.951Z" fill="black"/>
<path d="M98.964 44.951C96.183 43.995 96.618 40.78 90.447 40.258C89.231 40.171 88.448 41.127 87.579 41.735C88.014 42.17 88.449 42.865 88.709 43.56C87.927 42.691 86.537 41.561 85.146 41.3C83.842 41.04 82.973 41.996 81.583 42.691C81.843 42.951 82.103 43.386 82.451 43.908C81.234 43.126 80.366 42.866 78.714 43.474C77.584 43.821 75.412 44.777 73.761 47.124C72.718 50.861 91.316 46.689 91.316 46.689L98.964 44.951Z" fill="#88CE02"/>
<path d="M115.303 46.342C115.303 46.342 115.303 45.385 115.216 44.517C115.216 44.343 114.521 43.908 114.521 43.735L114.347 43.561C114.347 43.561 115.737 42.778 116.78 43.213C117.91 43.561 118.518 45.038 118.518 45.038C120.518 44.343 120.691 45.125 121.647 46.168C123.733 45.733 123.993 46.515 125.297 48.428C125.297 48.428 123.733 48.167 120.691 48.688C117.736 49.122 115.303 46.255 115.303 46.342Z" fill="black"/>
<path d="M114.955 45.907C114.955 45.907 115.476 45.472 115.302 45.385C116.258 44.864 117.562 44.255 118.17 45.907C120.17 45.211 120.43 46.167 121.386 47.211C123.819 46.081 123.993 47.471 124.166 48.079C123.385 48.079 122.256 48.166 120.691 48.34C117.736 48.775 114.868 45.82 114.955 45.907Z" fill="#88CE02"/>
<path d="M85.407 43.734C85.407 43.734 90.361 45.472 94.532 45.211C98.704 44.864 105.83 44.516 109.654 46.776C109.654 46.776 113.564 45.385 117.214 46.341C120.865 47.297 127.557 53.554 125.558 60.159C125.384 60.594 124.254 61.289 122.951 61.724C122.951 61.724 123.646 64.678 122.429 67.112C121.213 69.458 118.519 73.978 118.432 80.235C118.345 81.277 118.172 83.45 117.997 84.493C111.218 84.233 100.79 81.712 90.535 81.886C90.621 80.756 90.708 80.061 90.795 78.931H91.055C90.535 76.063 90.361 74.586 89.839 72.413C86.537 70.327 83.06 67.894 80.106 63.288C77.238 58.682 85.407 43.734 85.407 43.734ZM118.953 90.664C118.953 90.664 124.341 109.957 117.997 118.039C117.997 118.039 118.953 121.776 116.78 125.774C116.433 127.512 115.998 129.076 115.738 130.814C114.608 138.028 112.695 141.069 112.174 152.628L106.959 152.541C106.959 152.541 106.351 144.198 104.526 139.766C103.484 137.246 99.398 133.856 99.573 130.467C99.747 127.86 100.268 125.687 104.701 122.211C105.048 117.171 100.007 112.39 100.79 93.618L118.953 90.664Z" fill="black"/>
<path d="M117.389 89.881C118.779 98.746 121.995 111.869 116.172 118.299C116.432 119.516 116.606 121.254 116.259 123.253C116.085 124.296 115.737 125.426 115.303 126.642C114.433 128.728 114.086 131.77 113.825 133.594C112.695 140.808 112.695 141.156 112.175 152.714L106.959 152.627C106.959 152.627 106.351 144.284 104.526 139.852C103.484 137.332 101.311 135.159 101.137 131.77C100.963 129.163 102.788 123.949 107.134 124.122C106.874 113.607 102.006 115.692 100.703 93.792L117.389 89.881ZM85.407 43.734C85.407 43.734 87.319 44.343 89.405 44.516C91.491 44.69 93.75 44.516 95.749 44.429C99.92 44.082 105.83 43.647 109.741 45.907C109.741 45.907 111.913 45.211 114.261 45.385C115.303 45.472 116.346 46.341 117.562 46.689C121.386 47.645 125.036 53.989 123.385 59.725C123.211 60.16 121.995 59.725 120.604 60.16C120.864 61.376 121.039 64.157 119.648 67.112C118.17 70.067 116.258 73.891 116.606 81.192C107.481 80.756 103.396 80.148 94.358 79.714C93.576 76.498 93.054 73.283 92.968 71.631C94.184 71.023 94.878 70.502 95.835 69.459C93.228 69.894 92.185 69.719 90.621 68.85C89.056 67.981 86.275 65.2 84.885 63.375C84.711 63.201 83.755 66.069 81.583 66.156C80.8 65.026 84.103 61.811 83.494 60.594C81.322 56.162 85.407 43.734 85.407 43.734Z" fill="#EFEFEF"/>
<path d="M118.083 82.668C118.083 82.668 118.257 85.797 118.257 86.578C118.257 87.448 118.953 90.055 119.039 91.272C118.083 92.922 113.912 96.66 106.351 98.051C98.877 99.615 88.97 87.883 88.97 87.883C89.23 86.753 90.1 83.45 90.708 81.713C90.795 81.539 90.968 81.103 90.968 80.93C91.751 79.8 118.083 82.668 118.083 82.668Z" fill="black"/>
<path d="M116.172 82.93C116.172 85.102 116.519 86.666 116.78 88.057C117.215 90.577 117.91 92.228 117.91 93.879C117.91 98.919 111.305 98.051 105.743 98.225C98.269 99.789 91.924 88.057 91.924 88.057C92.446 86.057 92.794 83.799 93.576 81.887C93.6656 80.8991 93.7814 79.9138 93.923 78.932C104.526 78.932 112 79.54 116.345 79.974C116.519 80.93 116.345 82.582 116.172 82.93Z" fill="#EFEFEF"/>
<path d="M107.828 94.14C107.828 94.14 103.223 83.885 89.404 86.927C86.102 96.226 81.67 106.915 84.538 118.474C81.67 122.384 78.368 124.558 78.368 131.77C78.368 138.984 78.715 140.2 78.715 140.2L88.883 140.722C88.883 140.722 92.185 136.464 93.489 131.858C93.836 130.554 94.184 128.208 93.923 125.514C94.271 124.992 95.748 123.776 95.923 121.429C95.923 121.429 100.876 118.822 103.744 112.479C106.438 106.741 105.743 101.789 107.828 94.14Z" fill="black"/>
<path d="M107.828 94.14C107.568 93.184 104.092 83.798 91.229 86.579C83.669 106.741 86.449 115.084 87.579 118.734C82.452 125.252 80.105 126.642 81.149 139.852H87.927C91.056 134.899 91.751 133.074 91.925 126.556C91.925 126.296 90.969 127.077 90.274 127.946C90.796 125.252 92.273 124.731 93.402 123.08C93.924 122.384 94.358 121.341 94.358 119.95C100.442 115.866 102.701 110.739 104.005 105.437C105.048 101.787 106.265 95.791 107.828 94.14Z" fill="#EFEFEF"/>
<path d="M86.363 80.148C86.363 80.148 88.71 80.235 90.796 80.93C92.794 81.625 92.794 82.06 93.576 82.93C94.359 83.799 96.271 85.102 95.923 86.405C95.749 87.101 95.315 87.275 94.706 87.883C94.446 88.143 92.533 90.229 92.099 90.49C91.839 90.663 91.491 90.924 91.229 91.098L89.926 91.968C89.057 92.402 88.449 92.663 87.493 92.576C87.493 92.576 85.321 92.489 83.93 91.011C83.93 91.011 83.756 90.316 84.104 89.969C84.104 89.969 82.278 88.404 81.757 87.361C81.235 86.319 81.235 84.841 81.583 84.059C81.757 83.276 85.146 81.103 86.363 80.148ZM88.536 164.708L88.276 166.881C88.276 166.881 87.493 167.837 81.67 167.75C75.76 167.663 74.196 165.838 73.675 164.882L73.328 162.622C73.328 162.622 74.458 160.972 74.718 160.972C76.63 161.145 83.148 163.752 87.668 164.447C88.101 164.447 88.188 164.622 88.536 164.708ZM101.137 160.276C101.137 161.231 101.05 161.231 101.05 162.188C102.093 162.97 104.7 163.404 109.654 163.317C116.867 163.143 123.559 165.49 131.728 164.099L131.815 162.535L131.033 162.448L102.093 160.102L101.137 160.276Z" fill="black"/>
<path d="M107.481 163.317H109.654C114.347 163.144 118.779 164.187 123.559 164.447C126.079 164.36 129.208 163.752 128.947 161.927L104.266 159.841C102.788 161.492 103.918 162.883 107.481 163.317ZM79.15 126.73C79.932 127.251 85.233 130.38 93.837 129.945C93.663 131.596 93.75 134.812 89.926 140.461C88.014 143.241 86.362 148.109 86.016 154.279C86.102 155.669 86.884 156.886 85.841 158.711C86.189 159.841 87.579 162.101 88.275 163.491C88.97 164.881 89.318 166.446 84.711 166.533C80.018 166.62 72.457 166.098 73.501 162.449C74.022 160.537 75.5 158.538 75.674 157.755C75.847 156.973 75.847 154.627 77.324 153.062C78.628 148.717 78.194 144.546 77.934 140.635C77.498 136.55 77.411 130.032 79.15 126.73ZM87.232 55.901C93.402 47.645 88.188 41.041 78.281 43.039C74.283 43.821 70.286 46.602 70.025 51.642C68.721 51.816 65.766 51.99 64.289 57.378C63.159 61.55 62.551 62.332 60.552 64.418C59.248 65.895 60.639 68.937 61.594 71.11C64.81 78.583 74.717 79.279 81.409 84.928C83.669 84.319 86.015 81.799 86.711 80.148C81.061 73.456 82.278 70.848 80.018 67.373C82.452 66.503 88.014 63.114 87.232 55.901Z" fill="black"/>
<path d="M86.015 55.38C86.362 54.858 86.971 53.728 87.232 53.294C87.319 53.207 88.275 54.858 88.362 54.771C90.708 50.947 91.316 45.385 88.622 44.864C87.7048 44.7138 86.8032 44.4808 85.928 44.168C84.19 43.56 82.626 43.56 79.845 44.082C76.021 44.777 72.197 47.558 72.197 51.555C72.197 51.816 74.891 52.598 75.673 55.814C74.369 53.989 72.11 51.99 69.416 53.728C66.548 55.553 68.026 59.724 64.201 64.07C62.897 65.547 63.071 67.285 64.461 70.761C66.721 76.237 77.411 79.191 83.234 84.406C84.624 83.797 85.58 82.406 86.275 81.364C82.365 77.28 80.8 73.455 79.671 70.674C78.281 67.459 76.716 65.634 73.674 63.2C75.238 63.808 76.455 64.417 77.15 64.938C77.932 65.46 79.062 65.547 80.105 65.198C83.843 63.896 85.841 58.682 86.015 55.38Z" fill="#EFEFEF"/>
<path d="M123.82 56.77C123.559 60.073 121.126 58.421 119.822 57.813C117.215 56.683 114.607 55.901 111.566 55.901C108.524 55.901 104.613 56.161 101.224 57.031C96.531 58.334 95.14 58.248 93.054 57.204C90.969 56.074 87.319 53.294 87.319 53.294C87.319 53.294 87.232 54.163 88.102 55.293C89.231 56.683 91.752 58.421 95.141 59.551C96.791 60.073 98.096 59.724 99.573 59.377C107.308 57.465 115.477 57.117 122.343 61.289C122.69 61.463 123.907 60.941 124.428 60.159C125.123 59.029 123.82 56.77 123.82 56.77Z" fill="black"/>
<path d="M84.277 89.881C84.972 90.316 85.841 90.577 86.797 91.359C86.797 91.359 86.015 91.359 85.667 91.011C85.233 90.751 84.364 89.969 84.277 89.881Z" fill="#001423"/>
<path d="M109.393 20.965C109.133 20.183 107.22 18.792 102.788 18.792C98.008 18.792 96.618 20.269 96.531 21.052C96.531 21.312 96.183 24.093 96.096 25.222C96.096 25.222 96.096 26.613 96.183 28.699C96.27 30.089 96.618 30.871 96.791 32.697C96.965 34.608 97.487 35.825 98.443 37.39C98.877 37.65 99.225 37.911 99.66 37.998C101.398 38.345 104.44 38.432 106.09 37.998C107.046 37.738 108.263 36.086 108.524 34.608C108.871 32.784 109.219 31.48 109.306 30.351C109.48 29.221 109.566 26.701 109.653 26.005C109.914 24.093 109.48 21.138 109.393 20.965Z" fill="#EFEFEF"/>
<path d="M100.268 128.381C100.268 128.381 104.874 130.38 116.259 128.641C116.259 128.641 113.044 144.806 114.521 152.888C114.521 152.888 115.998 154.974 126.949 158.972C126.949 158.972 131.815 160.189 131.642 162.622C131.642 162.622 131.815 163.144 125.906 162.97C119.996 162.796 114.434 161.753 110.523 161.753C106.613 161.753 102.441 161.926 101.746 160.797C100.964 159.754 101.92 157.06 103.049 155.495C104.267 153.845 103.919 152.627 103.832 149.673C103.57 141.938 97.661 133.943 100.268 128.381Z" fill="black"/>
<path d="M99.312 129.859C98.703 130.728 99.398 134.029 100.268 137.245C101.137 140.461 103.049 142.373 103.483 147.674C103.918 152.888 104.005 153.584 102.527 156.625C101.05 159.666 100.615 162.448 105.743 162.535C110.87 162.622 113.651 162.448 118.865 163.23C124.08 164.012 125.905 164.273 128.773 163.839C131.641 163.404 132.249 162.448 131.033 161.579C129.816 160.71 124.775 159.754 122.603 158.016C120.517 156.451 114.607 153.844 114.521 153.149C114.261 150.802 114.173 142.286 114.607 139.505C115.042 136.723 115.65 132.725 115.824 131.683C115.998 130.64 116.867 129.597 115.389 129.945C113.912 130.292 108.35 131.075 104.179 130.814C100.007 130.554 99.573 129.597 99.312 129.859Z" fill="#88CE02"/>
<path opacity="0.3" d="M102.267 156.713C103.744 157.408 105.917 157.929 107.568 157.929C107.568 157.929 106.959 160.797 107.916 162.535C108.871 164.274 100.963 163.231 100.963 163.231L100.616 157.061L102.267 156.713ZM125.297 164.186C126.687 163.752 127.644 162.188 126.514 160.71C125.297 159.233 124.254 158.972 125.818 158.886C127.383 158.799 133.118 162.275 133.118 162.275L130.164 164.969L125.297 164.186ZM99.051 133.248C101.05 133.943 104.091 134.117 106.699 134.03C109.306 133.943 113.217 133.595 115.738 132.726C118.258 131.857 117.215 133.682 117.215 133.682L115.825 134.986C115.825 134.986 112.522 136.289 107.134 136.203C100.79 136.116 98.877 135.421 98.877 135.421L99.051 133.248ZM99.225 137.593C101.225 138.289 104.265 138.463 106.873 138.375C109.48 138.289 112.956 138.289 115.476 137.332C116.519 136.985 115.911 138.462 115.911 138.462L115.476 139.244C115.476 139.244 112.087 140.461 106.786 140.374C100.442 140.287 99.312 139.765 99.312 139.765L99.225 137.593Z" fill="black"/>
<path d="M93.49 76.672C93.49 77.28 100.268 80.669 104.005 81.365C107.742 82.06 115.564 81.365 116.78 81.105L116.606 82.321C116.606 82.321 107.307 83.711 100.181 81.8C93.054 79.888 93.837 79.453 93.837 79.453L93.49 76.672Z" fill="black"/>
<path d="M78.975 150.803C80.018 151.325 83.755 152.281 86.188 151.759C86.536 151.672 86.188 145.763 87.145 143.069C88.535 139.331 90.795 136.289 91.837 129.685C88.187 129.338 84.016 128.381 81.843 127.686C79.063 136.203 80.018 143.503 78.975 150.803ZM84.798 156.279C85.407 156.452 85.841 157.147 86.015 156.713C86.362 155.931 85.407 154.453 85.32 153.411V153.324C84.538 152.629 79.236 152.542 79.584 152.889C78.976 154.019 78.02 153.845 77.673 156.105C77.499 157.235 78.889 156.279 80.193 156.192C77.846 157.756 75.153 159.755 74.717 161.492C74.196 163.926 75.065 164.622 77.673 165.926C79.933 166.447 82.626 166.534 84.712 166.447C87.058 166.012 87.493 164.883 86.798 163.318C85.754 160.972 85.059 157.93 84.798 156.278" fill="#EFEFEF"/>
<path d="M85.754 43.386C88.623 45.038 92.62 44.603 94.097 44.516C94.445 44.516 97.922 43.908 98.095 43.994C98.443 44.082 98.443 44.342 98.443 44.342C98.443 44.342 97.139 45.037 94.185 45.211C91.404 45.385 88.101 45.211 86.276 44.342C84.103 43.386 85.754 43.386 85.754 43.386ZM115.303 45.038C115.824 45.385 119.213 46.688 120.691 48.253C121.995 49.644 121.3 49.557 121.039 49.209C120.691 48.774 117.997 46.949 116.954 46.515C115.911 46.081 114.607 45.298 114.607 45.125C114.607 44.951 115.303 45.038 115.303 45.038Z" fill="black"/>
<path d="M85.32 81.104C87.84 80.93 90.447 81.539 92.099 83.276C92.968 84.146 94.359 85.101 94.185 85.97C94.185 86.231 93.663 86.927 93.229 87.448C92.969 87.795 92.186 88.578 91.925 88.838C91.578 89.099 90.361 90.055 90.1 90.228C89.84 90.403 89.492 90.838 89.23 90.924C88.362 91.359 87.406 91.011 86.537 90.577C85.668 90.142 86.711 90.055 85.755 89.36C83.409 87.709 82.105 86.579 83.061 83.363C83.148 82.755 84.103 82.061 85.32 81.104Z" fill="#EFEFEF"/>
<path opacity="0.4" d="M63.159 61.202C55.337 64.33 35.435 74.238 29.786 77.28C34.479 80.235 36.652 87.36 37.347 94.574C37.434 95.27 37.521 95.878 37.608 96.573C37.695 97.181 37.782 97.616 37.868 97.877C37.868 97.964 37.868 98.137 37.955 98.224C43.083 84.232 61.42 69.458 62.115 68.328C62.463 67.808 61.681 65.548 62.897 63.375C64.462 60.593 67.504 59.377 63.159 61.202ZM81.757 126.816C85.754 118.821 85.841 111.173 85.754 102.222C85.754 98.484 88.448 93.183 87.058 94.661C81.843 100.483 68.721 111.434 59.248 112.041C72.544 111.607 77.758 118.299 81.757 126.816Z" fill="black"/>
<path d="M22.138 84.666C27.092 81.103 52.73 67.46 58.9 65.547C65.07 63.548 63.158 61.201 63.158 61.201C63.158 61.201 38.13 71.978 23.181 81.277" fill="black"/>
<path opacity="0.4" d="M95.14 59.55C93.14 58.769 91.577 61.115 92.098 63.375C92.62 65.635 97.313 68.155 97.052 76.411C96.878 83.19 95.401 85.971 95.401 85.971L92.098 81.799C92.098 81.799 91.577 72.413 90.447 71.022C89.317 69.632 85.754 67.112 84.364 65.808C82.973 64.504 85.928 62.766 85.754 60.333C85.58 57.987 87.232 53.293 87.232 53.293L95.14 59.55ZM107.22 96.573C107.046 103.09 108.524 112.737 109.132 117.343C109.74 121.949 110.522 122.297 109.132 124.383C107.742 126.382 105.917 129.684 105.917 129.684L99.92 129.163C99.92 129.163 104.7 123.079 104.96 121.949C105.22 120.82 102.527 112.216 102.527 112.216L107.22 96.573ZM95.662 35.738C96.878 38.432 98.356 39.648 100.702 40.431C102.092 40.953 107.567 41.648 109.74 39.214C110.696 38.084 110.088 35.043 110.088 35.043L105.134 39.04L98.442 37.824L97.66 35.825L95.662 35.738Z" fill="black"/>
<path d="M96.183 41.735C98.443 43.212 104.091 44.603 105.655 44.864C107.22 45.211 109.74 43.212 110.957 42.691C112.261 42.083 114.52 41.735 117.127 44.081C117.387 44.342 116.519 45.472 116.519 45.472C116.432 45.385 115.91 45.385 115.215 45.037C114.52 44.69 113.911 44.429 112.869 44.516C108.523 45.037 107.828 46.515 104.004 45.646C100.18 44.776 99.224 44.081 95.488 44.255" fill="#88CE02"/>
<path d="M96.183 41.735C98.443 43.212 104.091 44.603 105.655 44.864C107.22 45.211 109.74 43.212 110.957 42.691C112.261 42.083 114.52 41.735 117.127 44.081C117.387 44.342 116.519 45.472 116.519 45.472C116.432 45.385 115.91 45.385 115.215 45.037C114.52 44.69 113.911 44.429 112.869 44.516C108.523 45.037 107.828 46.515 104.004 45.646C100.18 44.776 99.224 44.081 95.488 44.255" stroke="black" stroke-width="1.586" stroke-linejoin="round"/>
<path d="M95.4 41.995C98.269 43.212 103.83 44.515 105.395 44.864C106.959 45.211 109.479 43.647 110.696 42.864C112.869 41.474 115.65 42.604 116.954 44.081C117.822 45.037 118.17 45.646 118.17 45.906C118.17 46.254 117.128 45.906 117.128 45.906C116.519 45.646 115.824 45.559 115.303 45.211C114.607 44.864 113.912 44.342 112.87 44.429C108.524 44.951 107.655 46.428 103.918 45.559C100.181 44.689 99.225 43.907 95.228 44.168" fill="#88CE02"/>
<path d="M81.93 123.166C81.757 122.992 82.104 122.819 81.93 122.819C80.8 122.819 79.236 121.949 78.367 120.733C74.63 115.345 69.155 111.782 59.247 112.043C44.387 112.39 38.477 106.307 37.347 94.661C36.739 88.317 35 82.147 31.437 78.67L29.351 79.974C33.349 83.45 34.653 89.099 35.521 96.834C36.912 108.479 46.298 113.867 57.248 114.041C68.633 114.215 72.718 116.561 76.976 122.298C78.366 124.122 79.931 124.731 81.147 124.992L81.93 123.166Z" fill="black"/>
<path opacity="0.4" d="M122.255 67.285C122.515 68.589 123.211 71.109 124.601 72.325C125.21 72.934 125.297 73.108 124.775 73.108C124.253 73.108 120.43 72.934 120.43 72.934L119.387 71.109L122.255 67.285Z" fill="black"/>
</svg>
