<?xml version="1.0" encoding="UTF-8" standalone="no"?>
<!-- Created with Inkscape (http://www.inkscape.org/) -->

<svg
   width="3894.9827"
   height="3183.113"
   viewBox="0 0 3894.9827 3183.113"
   version="1.1"
   id="svg1"
   xml:space="preserve"
   xmlns="http://www.w3.org/2000/svg"
   xmlns:svg="http://www.w3.org/2000/svg"><defs
     id="defs1"><linearGradient
       id="paint0_linear_1_3568"
       x1="3874.3501"
       y1="3635.1899"
       x2="11545.7"
       y2="11811.2"
       gradientUnits="userSpaceOnUse"><stop
         offset="0.296"
         stop-color="#00AFFF"
         id="stop4-9" /><stop
         offset="0.694"
         stop-color="#5282FF"
         id="stop5-9" /><stop
         offset="1"
         stop-color="#945DFF"
         id="stop6-0" /></linearGradient><linearGradient
       id="paint1_linear_1_3568"
       x1="4317.48"
       y1="4050.97"
       x2="11570.3"
       y2="11780.9"
       gradientUnits="userSpaceOnUse"><stop
         offset="0.108"
         stop-color="#C757BC"
         id="stop7" /><stop
         offset="0.173"
         stop-color="#CD5CA9"
         id="stop8" /><stop
         offset="0.492"
         stop-color="#E8744F"
         id="stop9" /><stop
         offset="0.716"
         stop-color="#F88316"
         id="stop10-8" /><stop
         offset="0.823"
         stop-color="#FF8900"
         id="stop11-1" /></linearGradient><radialGradient
       id="paint0_radial_1_3631-4"
       cx="0"
       cy="0"
       r="1"
       gradientUnits="userSpaceOnUse"
       gradientTransform="matrix(168.095,0,0,168.095,76.8515,23.6675)"><stop
         stop-color="white"
         id="stop4-0" /><stop
         offset="0.5"
         stop-color="#4C6B97"
         id="stop5-3" /><stop
         offset="1"
         stop-color="#231F20"
         id="stop6-9" /></radialGradient><linearGradient
       id="paint0_linear_1_3608-5"
       x1="7566.27"
       y1="2243.1799"
       x2="2232.99"
       y2="10623.3"
       gradientUnits="userSpaceOnUse"><stop
         stop-color="#41873F"
         id="stop10-66" /><stop
         offset="0.3288"
         stop-color="#418B3D"
         id="stop11-4" /><stop
         offset="0.6352"
         stop-color="#419637"
         id="stop12-0" /><stop
         offset="0.9319"
         stop-color="#3FA92D"
         id="stop13-0" /><stop
         offset="1"
         stop-color="#3FAE2A"
         id="stop14-4" /></linearGradient><linearGradient
       id="paint1_linear_1_3608-6"
       x1="4742.23"
       y1="6920.0801"
       x2="18099.199"
       y2="-336.80499"
       gradientUnits="userSpaceOnUse"><stop
         offset="0.1376"
         stop-color="#41873F"
         id="stop15-2" /><stop
         offset="0.4032"
         stop-color="#54A044"
         id="stop16-6" /><stop
         offset="0.7136"
         stop-color="#66B848"
         id="stop17-7" /><stop
         offset="0.9081"
         stop-color="#6CC04A"
         id="stop18-5" /></linearGradient><linearGradient
       id="paint2_linear_1_3608-6"
       x1="-329.26801"
       y1="6282.8398"
       x2="10929.9"
       y2="6282.8398"
       gradientUnits="userSpaceOnUse"><stop
         offset="0.09192"
         stop-color="#6CC04A"
         id="stop19-9" /><stop
         offset="0.2864"
         stop-color="#66B848"
         id="stop20-8" /><stop
         offset="0.5968"
         stop-color="#54A044"
         id="stop21-7" /><stop
         offset="0.8624"
         stop-color="#41873F"
         id="stop22-2" /></linearGradient><linearGradient
       id="paint3_linear_1_3608-8"
       x1="-5523.9199"
       y1="1888.8199"
       x2="5735.1401"
       y2="1888.8199"
       gradientUnits="userSpaceOnUse"><stop
         offset="0.09192"
         stop-color="#6CC04A"
         id="stop23-2" /><stop
         offset="0.2864"
         stop-color="#66B848"
         id="stop24-9" /><stop
         offset="0.5968"
         stop-color="#54A044"
         id="stop25-9" /><stop
         offset="0.8624"
         stop-color="#41873F"
         id="stop26-6" /></linearGradient><linearGradient
       id="paint4_linear_1_3608-0"
       x1="7375.4302"
       y1="-7082.0801"
       x2="4523.0801"
       y2="7864.2002"
       gradientUnits="userSpaceOnUse"><stop
         stop-color="#41873F"
         id="stop27-2" /><stop
         offset="0.3288"
         stop-color="#418B3D"
         id="stop28-7" /><stop
         offset="0.6352"
         stop-color="#419637"
         id="stop29-6" /><stop
         offset="0.9319"
         stop-color="#3FA92D"
         id="stop30-1" /><stop
         offset="1"
         stop-color="#3FAE2A"
         id="stop31-3" /></linearGradient><linearGradient
       id="paint0_linear_1_3565"
       x1="10508.3"
       y1="7.33499"
       x2="5.1499901"
       y2="10510.3"
       gradientUnits="userSpaceOnUse"><stop
         offset="0.00344"
         stop-color="#E44857"
         id="stop2" /><stop
         offset="0.4689"
         stop-color="#C711E1"
         id="stop3" /><stop
         offset="1"
         stop-color="#7F52FF"
         id="stop4-5" /></linearGradient></defs><g
     id="g25"
     transform="translate(-91.94529,-1559.9241)"><g
       style="fill:none"
       id="g39"
       transform="translate(114.46758,3678.6241)"><path
         d="m 159.258,134.138 v 32.04 c 52.179,0 92.807,-52.463 75.738,-109.3684 C 227.537,31.942 208.55,12.1815 184.656,4.41845 129.978,-13.3461 79.5693,28.9372 79.5693,83.2425 h 30.8557 c 0.004,0 0.008,-0.0078 0.008,-0.0078 0.005,-34.0818 32.41,-60.4292 66.839,-47.4267 12.755,4.8166 22.928,15.403 27.56,28.6765 12.494,35.8095 -12.785,69.5245 -45.503,69.5725 v -31.936 l -0.005,-0.002 h -30.761 c -0.002,0 -0.005,0.005 -0.005,0.005 v 32.014 z m -30.706,24.607 h -23.635 l -0.005,-0.006 v -24.601 h 23.646 v 24.602 c 0,0 -0.002,0.005 -0.006,0.005 z M 104.929,134.138 H 85.1157 c -0.0087,0 -0.015,-0.005 -0.015,-0.005 v -20.611 c 0,0 0.0063,-0.016 0.015,-0.016 h 19.7983 c 0.008,0 0.015,0.007 0.015,0.007 z m -77.3953,64.541 c -4.0112,-2.898 -9.003,-4.366 -14.836,-4.366 H 0 v 41.927 h 12.6977 c 5.8193,0 10.8124,-1.55 14.841,-4.604 2.1931,-1.62 3.9152,-3.883 5.1214,-6.723 1.1988,-2.827 1.8069,-6.16 1.8069,-9.908 0,-3.705 -0.6081,-6.997 -1.8094,-9.782 -1.2037,-2.802 -2.9283,-5.002 -5.1239,-6.544 z M 7.41675,201.4 h 3.98505 c 4.4348,0 8.0846,0.907 10.8534,2.701 3.0717,1.928 4.6305,5.596 4.6305,10.903 0,5.466 -1.5626,9.3 -4.6429,11.399 h -0.0025 c -2.6505,1.824 -6.2791,2.75 -10.7837,2.75 H 7.41675 Z m 32.25015,34.84 h 7.1401 v -29.53 h -7.1401 z m 3.6386,-42.443 c -1.2212,0 -2.2716,0.45 -3.119,1.332 -0.856,0.85 -1.2909,1.927 -1.2909,3.201 0,1.271 0.4324,2.364 1.2859,3.251 0.8524,0.89 1.9041,1.34 3.124,1.34 1.2199,0 2.2704,-0.45 3.1252,-1.34 0.8548,-0.888 1.286,-1.983 1.286,-3.251 0,-1.272 -0.4337,-2.349 -1.286,-3.194 -0.4062,-0.433 -0.8928,-0.775 -1.4301,-1.005 -0.5373,-0.23 -1.1141,-0.343 -1.6951,-0.334 z m 29.4302,15.381 c -2.1532,-1.994 -4.5569,-3.156 -7.1563,-3.156 -3.9414,0 -7.2174,1.418 -9.7357,4.214 -2.5495,2.773 -3.8442,6.342 -3.8442,10.609 0,4.167 1.2735,7.724 3.7906,10.577 2.5358,2.76 5.8305,4.158 9.7893,4.158 2.7526,0 5.119,-0.798 7.0467,-2.373 v 0.681 c 0,2.449 -0.6305,4.356 -1.8729,5.664 -1.2424,1.308 -2.9645,1.97 -5.1177,1.97 -3.2959,0 -5.3619,-1.349 -7.8766,-4.885 l -4.8622,4.862 0.1308,0.192 c 1.0505,1.533 2.6592,3.034 4.7825,4.461 2.1234,1.42 4.7925,2.142 7.9352,2.142 4.2392,0 7.6672,-1.36 10.193,-4.041 2.5383,-2.696 3.8255,-6.305 3.8255,-10.725 v -26.819 h -7.028 z m -1.8728,17.439 c -1.2474,1.476 -2.8499,2.191 -4.8972,2.191 -2.0473,0 -3.6411,-0.715 -4.871,-2.188 -1.2224,-1.466 -1.8442,-3.411 -1.8442,-5.776 0,-2.405 0.6218,-4.372 1.8455,-5.849 1.2124,-1.461 2.851,-2.202 4.8697,-2.202 2.0449,0 3.6486,0.721 4.8972,2.206 1.2423,1.475 1.8728,3.441 1.8728,5.845 0,2.365 -0.6305,4.309 -1.8728,5.773 z m 15.0117,9.623 h 7.1401 v -29.53 h -7.1401 z m 3.6385,-42.443 c -1.2199,0 -2.2716,0.45 -3.1189,1.332 -0.8561,0.85 -1.291,1.927 -1.291,3.201 0,1.271 0.4324,2.364 1.286,3.251 0.8523,0.89 1.904,1.34 3.1252,1.34 0.5811,0.009 1.1579,-0.105 1.6952,-0.335 0.5374,-0.23 1.0239,-0.572 1.43,-1.005 0.8536,-0.888 1.286,-1.983 1.286,-3.251 0,-1.272 -0.4362,-2.349 -1.286,-3.194 -0.4063,-0.433 -0.8929,-0.774 -1.4302,-1.004 -0.5373,-0.23 -1.1153,-0.344 -1.6963,-0.335 z m 19.1529,4.935 h -7.028 v 7.978 h -4.0838 v 6.772 h 4.0818 v 12.266 c 0,3.839 0.737,6.586 2.191,8.163 1.458,1.585 4.046,2.387 7.693,2.387 1.161,0 2.328,-0.04 3.47,-0.116 l 0.321,-0.024 v -6.767 l -2.447,0.134 c -1.701,0 -2.835,-0.311 -3.375,-0.922 -0.548,-0.623 -0.823,-1.938 -0.823,-3.908 v -11.213 h 6.645 v -6.772 h -6.645 z m 31.149,10.187 c -2.164,-1.922 -5.155,-2.897 -8.889,-2.897 -2.376,0 -4.598,0.542 -6.607,1.602 -1.859,0.982 -3.685,2.607 -4.845,4.734 l 0.072,0.091 4.572,4.554 c 1.883,-3.125 3.978,-4.21 6.754,-4.21 1.492,0 2.729,0.417 3.681,1.238 0.947,0.816 1.408,1.853 1.408,3.167 v 1.434 c -1.702,-0.549 -3.473,-0.833 -5.254,-0.843 -3.554,0 -6.445,0.869 -8.592,2.585 -2.176,1.738 -3.278,4.221 -3.278,7.387 0,2.774 0.929,5.028 2.769,6.704 1.857,1.616 4.175,2.436 6.895,2.436 2.718,0 5.261,-1.141 7.57,-3.093 v 2.432 h 7.029 v -18.984 c 0,-3.593 -1.105,-6.398 -3.285,-8.337 z m -12.676,16.037 c 0.81,-0.588 1.954,-0.885 3.402,-0.885 1.718,0 3.54,0.36 5.42,1.069 v 2.897 c -1.552,1.501 -3.626,2.263 -6.164,2.263 -1.236,0 -2.197,-0.285 -2.857,-0.852 -0.648,-0.552 -0.964,-1.256 -0.964,-2.147 0,-1.013 0.38,-1.781 1.163,-2.345 z m 21.65,11.284 h 7.14 v -41.928 h -7.14 z m 33.046,0.632 c -11.452,0 -20.769,-9.696 -20.769,-21.614 0,-11.918 9.316,-21.615 20.768,-21.615 11.451,0 20.767,9.697 20.767,21.615 0,11.918 -9.314,21.614 -20.766,21.614 z m -0.001,-35.613 c -7.417,0 -13.449,6.28 -13.449,13.999 0,7.718 6.032,13.996 13.447,13.996 7.416,0 13.45,-6.277 13.45,-13.996 0,-7.719 -6.034,-13.997 -13.45,-13.997 m 46.226,24.421 c -1.278,1.49 -2.584,2.782 -3.59,3.452 -0.987,0.659 -2.233,0.996 -3.703,0.996 -2.104,0 -3.795,-0.797 -5.173,-2.44 -1.371,-1.634 -2.065,-3.733 -2.065,-6.243 0,-2.509 0.685,-4.604 2.038,-6.227 1.36,-1.634 3.042,-2.425 5.144,-2.425 2.301,0 4.726,1.488 6.803,4.045 l 4.719,-4.71 c -3.078,-4.168 -7.002,-6.107 -11.686,-6.107 -3.92,0 -7.318,1.486 -10.1,4.416 -2.766,2.907 -4.169,6.612 -4.169,11.008 0,4.396 1.402,8.11 4.166,11.039 2.766,2.931 6.165,4.417 10.103,4.417 5.169,0 9.342,-2.323 12.154,-6.578 z m 29.303,-14.845 c -1.012,-1.468 -2.39,-2.65 -4.1,-3.515 -1.702,-0.862 -3.688,-1.299 -5.899,-1.299 -3.985,0 -7.247,1.53 -9.695,4.552 -2.377,2.996 -3.581,6.722 -3.581,11.074 0,4.474 1.321,8.179 3.928,11.009 2.592,2.816 6.062,4.245 10.313,4.245 4.814,0 8.766,-2.027 11.743,-6.024 l 0.16,-0.216 -4.657,-4.658 c -0.432,0.542 -1.043,1.157 -1.603,1.704 -0.704,0.693 -1.367,1.228 -2.075,1.595 -1.068,0.553 -2.264,0.826 -3.603,0.826 -1.978,0 -3.617,-0.605 -4.869,-1.8 -1.171,-1.118 -1.857,-2.624 -2.038,-4.485 H 260.3 l 0.065,-2.712 c 0,-1.92 -0.252,-3.769 -0.746,-5.499 -0.49,-1.719 -1.253,-3.341 -2.258,-4.797 z m -15.605,6.952 c 0.344,-1.413 0.969,-2.588 1.865,-3.501 0.967,-0.992 2.227,-1.494 3.742,-1.494 1.732,0 3.072,0.512 3.983,1.526 0.845,0.937 1.321,2.103 1.42,3.469 z m 43.025,-8.869 c -2.164,-1.922 -5.156,-2.897 -8.89,-2.897 -2.376,0 -4.598,0.542 -6.606,1.603 -1.861,0.982 -3.686,2.607 -4.845,4.733 l 0.072,0.091 4.572,4.555 c 1.883,-3.126 3.978,-4.211 6.754,-4.211 1.491,0 2.729,0.417 3.681,1.238 0.947,0.816 1.408,1.854 1.408,3.167 v 1.435 c -1.703,-0.55 -3.474,-0.834 -5.256,-0.843 -3.552,0 -6.445,0.869 -8.592,2.584 -2.174,1.738 -3.277,4.222 -3.277,7.387 0,2.774 0.929,5.028 2.77,6.704 1.855,1.616 4.174,2.437 6.893,2.437 2.719,0 5.263,-1.142 7.57,-3.093 v 2.431 h 7.031 v -18.983 c 0,-3.594 -1.106,-6.399 -3.285,-8.338 z m -12.676,16.037 c 0.809,-0.587 1.952,-0.884 3.401,-0.884 1.719,0 3.54,0.359 5.421,1.068 v 2.898 c -1.554,1.5 -3.626,2.263 -6.166,2.263 -1.235,0 -2.195,-0.286 -2.856,-0.852 -0.648,-0.553 -0.963,-1.257 -0.963,-2.148 0,-1.013 0.38,-1.781 1.163,-2.345 z M 315.532,209.5 c -1.989,-2.306 -4.782,-3.477 -8.308,-3.477 -2.832,0 -5.132,0.847 -6.853,2.516 v -1.829 h -7.002 v 29.531 h 7.14 v -16.286 c 0,-2.237 0.511,-4.014 1.52,-5.282 1.007,-1.263 2.39,-1.879 4.231,-1.879 1.617,0 2.842,0.55 3.747,1.679 0.908,1.135 1.368,2.698 1.368,4.651 v 17.117 h 7.14 v -17.117 c 0,-4.09 -1.003,-7.329 -2.983,-9.624 z"
         fill="#0080ff"
         id="path1-6" /></g><g
       style="fill:none"
       id="g40"
       transform="translate(110.05895,4109.776)"><path
         d="m 250.716,70.497 c -5.765,-4 -18.976,-5.5 -29.304,-3.5 -1.2,-10 -6.725,-18.749 -16.333,-26.499 l -5.524,-4 -3.844,5.75 c -4.803,7.5 -7.205,18 -6.485,28 0.24,3.499 1.441,9.749 5.044,15.249 -3.362,2 -10.328,4.5 -19.455,4.5 H 1.155 l -0.480001,2 C -1.007,101.996 -1.007,133.245 18.689,157.244 c 14.892,18.249 36.99,27.499 66.053,27.499 62.93,0 109.528,-30.25 131.386,-84.997 8.647,0.25 27.142,0 36.51,-18.75 0.24,-0.5 0.72,-1.5 2.401,-5.249 l 0.961,-2 z M 139.986,0 h -26.42 v 24.999 h 26.42 z m 0,29.999 h -26.42 v 24.999 h 26.42 z m -31.225,0 h -26.42 v 24.999 h 26.42 z m -31.225,0 H 51.115 V 54.998 H 77.536 Z M 46.311,59.998 H 19.89 v 24.999 h 26.42 z m 31.225,0 H 51.115 v 24.999 h 26.421 z m 31.225,0 h -26.42 v 24.999 h 26.42 z m 31.226,0 h -26.422 v 24.999 h 26.422 z m 31.225,0 H 144.79 v 24.999 h 26.422 z"
         fill="#2396ed"
         id="path1-62" /></g><g
       style="fill:none"
       id="g41"
       transform="translate(103.03046,4109.3299)"><path
         d="m 475.85015,218.90447 c 7.045,0 12.776,5.627 12.94,12.634 l 0.004,0.31 v 117.93199 c 0,7.045 -5.629,12.776 -12.634,12.94 l -0.31,0.004 h -103.55 c -7.044,0 -12.776,-5.629 -12.94,-12.634 l -0.004,-0.31 V 231.84847 c 0,-7.046 5.63,-12.776 12.634,-12.94 l 0.31,-0.004 z m 0,7.191 h -103.55 c -1.4871,0.002 -2.9159,0.57887 -3.98743,1.61012 -1.07151,1.03125 -1.70272,2.43688 -1.76157,3.92288 l -0.004,0.22 v 117.93199 c 0.002,1.487 0.57887,2.916 1.61012,3.987 1.03125,1.072 2.43688,1.703 3.92288,1.762 l 0.22,0.004 h 103.55 c 1.487,-0.002 2.916,-0.578 3.987,-1.609 1.072,-1.032 1.703,-2.437 1.762,-3.923 l 0.004,-0.22 V 231.84747 c -0.002,-1.5252 -0.609,-2.98744 -1.687,-4.06594 -1.079,-1.07849 -2.541,-1.68421 -4.066,-1.68606 z m -84.134,86.292 16.18,14.38199 -16.18,14.382 z m 14.382,-71.91 v 40.829 c 7.18,-2.337 17.217,-4.874 26.966,-4.874 8.89,0 14.211,3.495 17.11,6.427 6.091,6.163 6.266,13.988 6.26,15.1 l -10e-4,0.046 0.002,43.14599 h -14.382 v -42.94699 c -0.07,-3.357 -1.688,-7.389 -8.99,-7.389 -14.476,0 -30.697,7.208 -31.179,7.424 l -0.01,0.004 -10.158,4.603 v -62.369 z m 50.337,0 c -0.971,8.169 -4.283,16 -10.787,23.37 h -14.382 c 5.652,-7.415 9.201,-15.219 10.787,-23.37 z m 268.016,24.248 c 12.76,0 26.022,8.104 26.022,27.527 0,19.427 -13.262,27.52799 -26.022,27.52799 -12.833,0 -26.093,-8.10099 -26.093,-27.52799 0,-19.423 13.26,-27.527 26.093,-27.527 z m 116.724,1.005 v 31.687 c 0,7.308 2.366,10.607 8.103,10.607 5.733,0 8.027,-3.299 8.027,-10.607 v -31.687 h 14.051 v 31.757 c 0,14.053 -6.738,22.07899 -22.222,22.07899 -15.486,0 -22.296,-8.02599 -22.296,-22.07899 v -31.757 z m -305.684,0 v 19.712 h 17.634 v -19.712 h 14.339 v 53.04799 h -14.339 v -21.43399 h -17.634 v 21.43399 h -14.337 v -53.04799 z m 88.29,0 v 11.901 h -23.515 v 8.602 h 16.775 v 11.184 h -16.775 v 9.82 h 24.734 v 11.54099 h -39.07 v -53.04799 z m 37.684,0 c 13.62,0 21.936,4.518 21.936,17.276 0,8.315 -3.515,13.12 -10.467,15.483 l 11.254,20.28999 h -15.196 l -10.253,-18.42199 h -3.942 v 18.42099 h -14.05 v -53.04799 z m 119.304,0 v 19.214 l 14.627,-19.214 h 16.629 l -17.85,20.933 19.426,32.11499 h -16.201 l -12.543,-21.21999 -4.088,4.731 v 16.48999 h -14.335 v -53.04999 z m -56.318,10.824 c -7.527,0 -11.756,5.95 -11.756,15.698 0,9.753 4.229,16.06 11.756,16.06 7.455,0 11.683,-6.307 11.683,-16.06 0,-9.749 -4.228,-15.698 -11.683,-15.698 z m -63.49,0.788 h -6.164 v 12.115 h 6.164 c 5.879,0 8.459,-1.649 8.459,-6.093 0,-4.442 -2.58,-6.022 -8.459,-6.022 z"
         fill="#430098"
         id="path1-2" /></g><g
       style="fill:none"
       id="g42"
       transform="translate(97.602348,4515.506)"><path
         d="M 161.667,75.8433 121.418,38.0788 80.833,0 38.153,40.0454 0,75.8433 80.833,151.688 Z"
         fill="url(#paint0_linear_1_3568)"
         id="path1-4"
         style="fill:url(#paint0_linear_1_3568)" /><path
         d="m 80.833,151.688 40.249,37.764 40.585,38.079 42.68,-40.046 38.153,-35.797 -80.833,-75.8447 z"
         fill="url(#paint1_linear_1_3568)"
         id="path2-0"
         style="fill:url(#paint1_linear_1_3568)" /><path
         d="M 161.667,75.8433 H 80.833 v 75.8447 h 80.834 z"
         fill="#000000"
         id="path3-6" /><path
         d="m 312.036,150.614 v -20.917 l 7.392,-8.153 21.661,29.07 h 18.715 l -29.103,-38.467 27.188,-29.975 h -17.37 l -27.553,30.734 h -0.93 V 82.172 h -15.612 v 68.442 z m 59.243,-64.6927 v 12.9425 h -8.893 V 109.35 h 8.893 v 27.179 c 0,10.145 5.482,14.275 19.336,14.275 2.53,0.003 5.057,-0.203 7.549,-0.617 V 139.99 c -1.475,0.164 -2.96,0.243 -4.446,0.237 -5.119,0 -7.393,-2.181 -7.393,-6.874 V 109.35 h 11.839 V 98.8685 H 386.325 V 85.9213 Z m 64.315,65.7827 c 17.522,0 28.072,-10.145 28.072,-27.226 0,-16.93 -10.701,-27.2215 -28.072,-27.2215 -17.371,0 -28.073,10.3355 -28.073,27.2215 0,17.029 10.545,27.226 28.073,27.226 z m 0,-10.907 c -8.064,0 -12.617,-5.974 -12.617,-16.318 0,-10.24 4.598,-16.265 12.617,-16.265 7.958,0 12.611,6.021 12.611,16.265 0,10.339 -4.598,16.318 -12.611,16.318 z m 40.37,9.813 h 15.047 v -29.213 c 0,-7.347 5.634,-11.857 13.855,-11.857 2.43,0 5.947,0.38 7.134,0.759 V 98.1582 c -1.288,-0.379 -3.825,-0.6164 -5.891,-0.6164 -7.236,0 -13.132,3.9352 -14.633,9.1502 h -0.93 V 98.3956 H 475.97 v 52.2194 z"
         fill="#27282c"
         id="path4-2" /></g><g
       style="fill:none"
       id="g43"
       transform="matrix(1.9989919,0,0,1.9262727,91.945293,1603.5462)"><path
         d="m 128,134.6 c 70.692,0 128,-30.131 128,-67.3 C 256,30.1312 198.692,0 128,0 57.3075,0 0,30.1312 0,67.3 c 0,37.169 57.3075,67.3 128,67.3 z"
         fill="url(#paint0_radial_1_3631)"
         id="path1-31"
         style="fill:url(#paint0_radial_1_3631-4)" /><path
         d="m 128,129.6 c 67.931,0 123,-27.893 123,-62.3 C 251,32.8927 195.931,5 128,5 60.069,5 5,32.8927 5,67.3 c 0,34.407 55.069,62.3 123,62.3 z"
         fill="#6181b6"
         id="path2-1" /><path
         d="M 152.9,87.5 159,56.1 c 1.4,-7.1 0.2,-12.4 -3.4,-15.7 -3.5,-3.2 -9.5,-4.8 -18.3,-4.8 h -10.6 l 3,-15.6 c 0.1,-0.6 0,-1.2 -0.4,-1.7 -0.4,-0.5 -0.9,-0.7 -1.5,-0.7 h -14.6 c -1,0 -1.8,0.7 -2,1.6 l -6.5,33.3 c -0.6,-3.8 -2,-7 -4.4,-9.6 C 96,38 89.3,35.5 80.2,35.5 H 52.1 c -1,0 -1.8,0.7 -2,1.6 L 37,104.7 c -0.1,0.6 0,1.2 0.4,1.7 0.4,0.5 0.9,0.7 1.5,0.7 h 14.7 c 1,0 1.8,-0.7 2,-1.6 l 3.2,-16.3 h 10.9 c 5.7,0 10.6,-0.6 14.3,-1.8 3.9,-1.3 7.4,-3.4 10.5,-6.3 2.5,-2.3 4.6,-4.9 6.2,-7.7 l -2.6,13.5 c -0.1,0.6 0,1.2 0.4,1.7 0.4,0.5 0.9,0.7 1.5,0.7 h 14.6 c 1,0 1.8,-0.7 2,-1.6 l 7.2,-37 h 10 c 4.3,0 5.5,0.8 5.9,1.2 0.3,0.3 0.9,1.5 0.2,5.2 L 134.1,87 c -0.1,0.6 0,1.2 0.4,1.7 0.4,0.5 0.9,0.7 1.5,0.7 h 15 c 0.9,-0.3 1.7,-1 1.9,-1.9 z m -67.6,-26 c -0.9,4.7 -2.6,8.1 -5.1,10 -2.5,1.9 -6.6,2.9 -12,2.9 h -6.5 l 4.7,-24.2 h 8.4 c 6.2,0 8.7,1.3 9.7,2.4 1.3,1.6 1.6,4.7 0.8,8.9 z m 130,-18.6 C 211,38 204.3,35.5 195.2,35.5 h -28.3 c -1,0 -1.8,0.7 -2,1.6 l -13.1,67.5 c -0.1,0.6 0,1.2 0.4,1.7 0.4,0.5 0.9,0.7 1.5,0.7 h 14.7 c 1,0 1.8,-0.7 2,-1.6 l 3.2,-16.3 h 10.9 c 5.7,0 10.6,-0.6 14.3,-1.8 3.9,-1.3 7.4,-3.4 10.5,-6.3 2.6,-2.4 4.8,-5.1 6.4,-8 1.6,-2.9 2.8,-6.1 3.5,-9.6 1.7,-8.7 0.4,-15.5 -3.9,-20.5 z M 200,61.5 c -0.9,4.7 -2.6,8.1 -5.1,10 -2.5,1.9 -6.6,2.9 -12,2.9 h -6.5 l 4.7,-24.2 h 8.4 c 6.2,0 8.7,1.3 9.7,2.4 1.4,1.6 1.7,4.7 0.8,8.9 z"
         fill="#ffffff"
         id="path3-0" /><path
         d="m 74.8,48.2 c 5.6,0 9.3,1 11.2,3.1 1.9,2.1 2.3,5.6 1.3,10.6 -1,5.2 -3,9 -5.9,11.2 -2.9,2.2 -7.3,3.3 -13.2,3.3 H 59.3 L 64.8,48.2 Z M 39,105 h 14.7 l 3.5,-17.9 h 12.6 c 5.6,0 10.1,-0.6 13.7,-1.8 3.6,-1.2 6.8,-3.1 9.8,-5.9 2.5,-2.3 4.5,-4.8 6,-7.5 1.5,-2.7 2.6,-5.7 3.2,-9 1.6,-8 0.4,-14.2 -3.5,-18.7 C 95.1,39.7 88.9,37.5 80.4,37.5 H 52.1 Z m 74.3,-85.4 h 14.6 l -3.5,17.9 h 13 c 8.2,0 13.8,1.4 16.9,4.3 3.1,2.9 4,7.5 2.8,13.9 L 151,87.1 H 136.2 L 142,57.2 c 0.7,-3.4 0.4,-5.7 -0.7,-6.9 -1.1,-1.2 -3.6,-1.9 -7.3,-1.9 h -11.7 l -7.5,38.7 h -14.6 z m 76.2,28.6 c 5.6,0 9.3,1 11.2,3.1 1.9,2.1 2.3,5.6 1.3,10.6 -1,5.2 -3,9 -5.9,11.2 -2.9,2.2 -7.3,3.3 -13.2,3.3 H 174 l 5.5,-28.2 z M 153.7,105 h 14.7 l 3.5,-17.9 h 12.6 c 5.6,0 10.1,-0.6 13.7,-1.8 3.6,-1.2 6.8,-3.1 9.8,-5.9 2.5,-2.3 4.5,-4.8 6,-7.5 1.5,-2.7 2.6,-5.7 3.2,-9 1.6,-8 0.4,-14.2 -3.5,-18.7 -3.9,-4.5 -10.1,-6.7 -18.6,-6.7 h -28.3 z"
         fill="#000004"
         id="path4-3" /></g><g
       style="fill:none"
       id="g44"
       transform="translate(474.53298,3833.8612)"><path
         d="m 253.11,313.094 c -1.733,0 -3.351,-0.462 -4.854,-1.271 l -15.371,-9.13 c -2.312,-1.272 -1.156,-1.734 -0.462,-1.965 3.12,-1.04 3.698,-1.272 6.934,-3.12 0.347,-0.232 0.81,-0.116 1.156,0.115 l 11.789,7.05 c 0.462,0.231 1.04,0.231 1.386,0 l 46.115,-26.698 c 0.462,-0.231 0.694,-0.694 0.694,-1.271 v -53.28 c 0,-0.579 -0.232,-1.04 -0.694,-1.272 L 253.688,195.67 c -0.462,-0.232 -1.04,-0.232 -1.386,0 l -46.115,26.582 c -0.462,0.231 -0.694,0.809 -0.694,1.271 v 53.28 c 0,0.463 0.232,1.04 0.694,1.272 l 12.598,7.281 c 6.819,3.467 11.095,-0.578 11.095,-4.623 v -52.587 c 0,-0.693 0.578,-1.387 1.387,-1.387 h 5.894 c 0.694,0 1.387,0.578 1.387,1.387 v 52.587 c 0,9.13 -4.97,14.447 -13.638,14.447 -2.658,0 -4.738,0 -10.633,-2.89 l -12.135,-6.934 c -3.005,-1.733 -4.854,-4.97 -4.854,-8.437 v -53.28 c 0,-3.467 1.849,-6.704 4.854,-8.437 l 46.114,-26.698 c 2.89,-1.618 6.82,-1.618 9.709,0 l 46.114,26.698 c 3.005,1.733 4.855,4.97 4.855,8.437 v 53.28 c 0,3.467 -1.85,6.704 -4.855,8.437 l -46.114,26.698 c -1.503,0.694 -3.237,1.04 -4.855,1.04 z m 14.217,-36.637 c -20.225,0 -24.386,-9.246 -24.386,-17.105 0,-0.694 0.578,-1.387 1.387,-1.387 h 6.01 c 0.693,0 1.271,0.462 1.271,1.156 0.925,6.125 3.583,9.13 15.834,9.13 9.708,0 13.87,-2.196 13.87,-7.397 0,-3.005 -1.157,-5.2 -16.297,-6.703 -12.598,-1.272 -20.457,-4.045 -20.457,-14.1 0,-9.362 7.86,-14.91 21.035,-14.91 14.793,0 22.075,5.086 23,16.18 0,0.348 -0.116,0.694 -0.347,1.041 -0.232,0.231 -0.578,0.462 -0.925,0.462 h -6.01 c -0.578,0 -1.156,-0.462 -1.271,-1.04 -1.387,-6.356 -4.97,-8.437 -14.447,-8.437 -10.633,0 -11.905,3.699 -11.905,6.472 0,3.352 1.503,4.392 15.834,6.241 14.216,1.85 20.92,4.508 20.92,14.447 -0.116,10.171 -8.437,15.95 -23.116,15.95 z"
         fill="#539e43"
         id="path1-19" /><path
         d="m 110.028,104.712 c 0,-2.08 -1.156,-4.046 -3.005,-5.086 l -49.004,-28.2 c -0.81,-0.463 -1.734,-0.694 -2.658,-0.81 h -0.463 c -0.924,0 -1.849,0.347 -2.658,0.81 l -49.004,28.2 c -1.85,1.04 -3.004997,3.005 -3.004997,5.086 l 0.116,75.817 c 0,1.04 0.578,2.08 1.501997,2.543 0.925,0.578 2.08,0.578 2.89,0 l 29.125,-16.643 c 1.849,-1.04 3.005,-3.005 3.005,-5.085 v -35.482 c 0,-2.08 1.155,-4.045 3.005,-5.085 l 12.366,-7.166 c 0.925,-0.578 1.965,-0.81 3.005,-0.81 1.04,0 2.08,0.232 2.89,0.81 l 12.366,7.166 c 1.85,1.04 3.005,3.004 3.005,5.085 v 35.482 c 0,2.08 1.156,4.045 3.005,5.085 l 29.125,16.643 c 0.45,0.283 0.971,0.434 1.502,0.434 0.532,0 1.053,-0.151 1.503,-0.434 0.925,-0.463 1.503,-1.503 1.503,-2.543 z M 345.571,0.347006 c -0.924,-0.463 -2.08,-0.463 -2.89,0 -0.924,0.578 -1.502,1.502004 -1.502,2.542004 V 78.014 c 0,0.693 -0.346,1.386 -1.04,1.849 -0.693,0.346 -1.387,0.346 -2.08,0 l -12.251,-7.05 c -0.898,-0.5114 -1.914,-0.7803 -2.947,-0.7803 -1.034,0 -2.05,0.2689 -2.948,0.7803 l -49.004,28.316 c -1.849,1.04 -3.005,3.005 -3.005,5.085 v 56.516 c 0,2.08 1.156,4.046 3.005,5.086 l 49.004,28.316 c 0.898,0.511 1.914,0.78 2.948,0.78 1.033,0 2.049,-0.269 2.947,-0.78 l 49.004,-28.316 c 1.849,-1.04 3.005,-3.005 3.005,-5.086 V 21.844 c 0,-2.196 -1.156,-4.16 -3.005,-5.201 z M 341.064,144.123 c 0,0.578 -0.231,1.04 -0.694,1.271 l -16.758,9.708 c -0.234,0.114 -0.491,0.174 -0.751,0.174 -0.261,0 -0.518,-0.06 -0.752,-0.174 l -16.758,-9.708 c -0.463,-0.231 -0.694,-0.809 -0.694,-1.271 v -19.417 c 0,-0.578 0.231,-1.04 0.694,-1.271 l 16.758,-9.709 c 0.234,-0.114 0.491,-0.174 0.752,-0.174 0.26,0 0.517,0.06 0.751,0.174 l 16.758,9.709 c 0.463,0.23 0.694,0.809 0.694,1.271 z m 167.584,-19.879 c 1.85,-1.04 2.89,-3.005 2.89,-5.086 v -13.753 c 0,-2.08 -1.156,-4.045 -2.89,-5.085 l -48.657,-28.2 c -0.898,-0.5114 -1.914,-0.7803 -2.947,-0.7803 -1.034,0 -2.05,0.2689 -2.948,0.7803 l -49.004,28.315 c -1.85,1.04 -3.005,3.005 -3.005,5.085 v 56.517 c 0,2.08 1.156,4.045 3.005,5.085 l 48.657,27.738 c 1.85,1.04 4.046,1.04 5.78,0 L 489,178.45 c 0.925,-0.463 1.503,-1.503 1.503,-2.543 0,-1.04 -0.578,-2.08 -1.503,-2.543 l -49.235,-28.316 c -0.925,-0.578 -1.503,-1.502 -1.503,-2.542 v -17.683 c 0,-1.04 0.578,-2.08 1.503,-2.543 l 15.371,-8.784 c 0.45,-0.283 0.971,-0.433 1.503,-0.433 0.531,0 1.052,0.15 1.502,0.433 l 15.372,8.784 c 0.925,0.578 1.502,1.502 1.502,2.543 v 13.869 c 0,1.04 0.578,2.08 1.503,2.542 0.45,0.283 0.971,0.434 1.503,0.434 0.531,0 1.052,-0.151 1.502,-0.434 z"
         fill="#333333"
         id="path2-69" /><path
         d="m 456.292,121.585 c 0.172,-0.113 0.373,-0.173 0.578,-0.173 0.206,0 0.406,0.06 0.578,0.173 l 9.362,5.432 c 0.346,0.232 0.577,0.578 0.577,1.04 v 10.865 c 0,0.462 -0.23,0.809 -0.577,1.04 l -9.362,5.432 c -0.172,0.113 -0.372,0.173 -0.578,0.173 -0.205,0 -0.406,-0.06 -0.578,-0.173 l -9.361,-5.432 c -0.347,-0.231 -0.578,-0.578 -0.578,-1.04 v -10.864 c 0,-0.463 0.23,-0.81 0.578,-1.04 z"
         fill="#539e43"
         id="path3-3" /><path
         d="m 191.971,72.351 c -0.898,-0.5112 -1.914,-0.78 -2.947,-0.78 -1.033,0 -2.049,0.2688 -2.947,0.78 l -48.657,28.083 c -1.85,1.04 -2.89,3.005 -2.89,5.085 v 56.286 c 0,2.08 1.156,4.045 2.89,5.085 l 48.657,28.085 c 0.898,0.511 1.914,0.78 2.947,0.78 1.033,0 2.049,-0.269 2.947,-0.78 l 48.658,-28.085 c 1.849,-1.04 2.89,-3.005 2.89,-5.085 V 105.52 c 0,-2.08 -1.157,-4.045 -2.89,-5.085 z"
         fill="url(#paint0_linear_1_3608)"
         id="path4-38"
         style="fill:url(#paint0_linear_1_3608-5)" /><g
         mask="url(#mask0_1_3608)"
         id="g6"><path
           d="M 240.744,100.435 191.856,72.351 c -0.48,-0.2426 -0.984,-0.4362 -1.503,-0.578 l -54.783,93.848 c 0.454,0.554 1.002,1.024 1.619,1.387 l 48.888,28.085 c 1.387,0.809 3.005,1.04 4.507,0.577 l 51.432,-94.078 c -0.347,-0.462 -0.81,-0.811 -1.272,-1.157 z"
           fill="url(#paint1_linear_1_3608)"
           id="path6"
           style="fill:url(#paint1_linear_1_3608-6)" /></g><g
         mask="url(#mask1_1_3608)"
         id="g10"><path
           fill-rule="evenodd"
           clip-rule="evenodd"
           d="m 240.86,166.891 c 1.387,-0.809 2.427,-2.196 2.89,-3.698 L 190.121,71.657 c -1.387,-0.231 -2.89,-0.116 -4.16,0.693 l -48.542,27.97 52.355,95.465 c 0.761,-0.125 1.501,-0.358 2.196,-0.693 z"
           fill="url(#paint2_linear_1_3608)"
           id="path8"
           style="fill:url(#paint2_linear_1_3608-6)" /><path
           fill-rule="evenodd"
           clip-rule="evenodd"
           d="m 240.86,166.891 -48.773,28.085 c -0.689,0.351 -1.431,0.585 -2.196,0.693 l 0.925,1.734 54.089,-31.32 v -0.694 l -1.387,-2.312 c -0.231,1.618 -1.271,3.005 -2.658,3.814 z"
           fill="url(#paint3_linear_1_3608)"
           id="path9"
           style="fill:url(#paint3_linear_1_3608-8)" /><path
           fill-rule="evenodd"
           clip-rule="evenodd"
           d="m 240.86,166.891 -48.773,28.085 c -0.689,0.351 -1.431,0.585 -2.196,0.693 l 0.925,1.734 54.089,-31.32 v -0.694 l -1.387,-2.312 c -0.231,1.618 -1.271,3.005 -2.658,3.814 z"
           fill="url(#paint4_linear_1_3608)"
           id="path10"
           style="fill:url(#paint4_linear_1_3608-0)" /></g></g><g
       style="fill:none"
       id="g45"
       transform="translate(455.95191,3320.8332)"><path
         d="m 152.31,230.297 15.56,50.487 c 3.496,11.463 4.954,19.465 4.37,24.026 8.51,-22.792 14.456,-47.63 17.839,-74.513 h 18.71 c -8.045,43.766 -18.656,75.57 -31.827,95.41 -10.262,15.289 -21.504,22.933 -33.746,22.933 -3.264,0 -7.288,-0.986 -12.063,-2.944 v -10.55 c 2.333,0.342 5.07,0.525 8.218,0.525 5.711,0 10.314,-1.583 13.816,-4.742 4.193,-3.849 6.292,-8.175 6.292,-12.97 0,-3.274 -1.637,-9.993 -4.896,-20.157 l -21.68,-67.505 z m -119.087,-31.031 28.5,86.956 h 0.176 l 28.675,-86.956 h 23.428 c 5.13,43.124 8.16,82.581 9.09,118.346 H 103.34 c -0.695,-33.433 -2.62,-64.871 -5.768,-94.32 H 97.4 l -30.078,94.32 H 52.28 l -29.896,-94.32 h -0.176 c -2.218,28.282 -3.614,59.72 -4.196,94.32 H 0 c 1.164,-42.08 4.077,-81.525 8.739,-118.346 z"
         fill="#00758f"
         id="path1-21" /><path
         d="m 352.498,197.51 c 30.657,0 45.986,19.586 45.986,58.739 0,21.276 -4.61,37.347 -13.821,48.204 -1.66,1.984 -3.495,3.698 -5.427,5.286 l 21.695,10.727 -0.021,-0.001 -7.703,13.302 -28.253,-16.485 c -4.683,1.387 -9.836,2.08 -15.451,2.08 -15.053,0 -26.297,-4.387 -33.731,-13.15 -8.16,-9.694 -12.238,-24.955 -12.238,-45.757 0,-21.156 4.602,-37.166 13.816,-48.037 8.392,-9.944 20.11,-14.908 35.148,-14.908 z m -93.88,0.171 c 10.957,0 20.92,2.932 29.894,8.775 l -4.558,10.157 c -7.679,-3.264 -15.25,-4.903 -22.716,-4.903 -6.058,0 -10.726,1.458 -13.98,4.392 -3.272,2.908 -5.296,6.65 -5.296,11.212 0,7.01 4.994,13.089 14.215,18.225 3.021,1.651 6.031,3.322 9.031,5.011 l 0.688,0.387 0.345,0.194 0.689,0.387 0.344,0.194 0.688,0.388 c 6.98,3.935 13.548,7.691 13.548,7.691 9.22,6.545 13.816,13.523 13.816,25.016 0,10.037 -3.678,18.276 -11.01,24.723 -7.337,6.418 -17.194,9.636 -29.538,9.636 -11.545,0 -22.734,-3.704 -33.572,-11.05 l 5.07,-10.166 c 9.327,4.675 17.767,7.01 25.346,7.01 7.108,0 12.672,-1.587 16.697,-4.721 4.017,-3.157 6.424,-7.56 6.424,-13.143 0,-7.027 -4.888,-13.034 -13.855,-18.073 -2.807,-1.551 -5.605,-3.116 -8.395,-4.697 l -0.687,-0.389 c -1.262,-0.713 -2.533,-1.435 -3.778,-2.142 l -0.675,-0.384 c -6.055,-3.444 -11.29,-6.453 -11.29,-6.453 -8.964,-6.557 -13.459,-13.592 -13.459,-25.184 0,-9.587 3.352,-17.336 10.046,-23.231 6.71,-5.908 15.367,-8.862 25.968,-8.862 z m 175.895,1.584 v 103.788 h 37.238 v 14.558 H 415.627 V 199.266 Z m 57.93,103.833 v 2.46 h -4.094 v 12.04 h -3.13 v -12.04 h -4.253 v -2.46 z m 7.56,0 3.931,9.884 3.611,-9.884 h 4.437 v 14.5 h -2.95 v -11.035 l -4.11,11.035 h -2.127 l -4.117,-11.035 h -0.158 v 11.035 h -2.791 v -14.5 z M 350.57,212.064 c -18.066,0 -27.104,14.91 -27.104,44.71 0,17.07 2.395,29.448 7.176,37.163 4.428,7.14 11.363,10.703 20.806,10.703 18.066,0 27.103,-15.026 27.103,-45.064 0,-16.831 -2.395,-29.103 -7.17,-36.822 -4.433,-7.124 -11.365,-10.69 -20.81,-10.69"
         fill="#f29111"
         id="path2-5" /><path
         d="m 303.218,7.33299 c 5.993,-14.726 26.948,-3.574 35.08,1.57 1.993,1.28701 4.279,4.00601 6.564,5.01101 3.565,0.14 7.127,0.419 10.698,0.568 6.698,1.574 12.972,2.86 18.25,5.866 24.528,14.445 40.495,29.165 55.19,53.479 3.14,5.15 4.709,10.723 7.274,16.296 3.56,8.307 7.56,17.027 11.692,24.882 1.85,3.724 3.281,7.865 5.85,11.01 1.003,1.438 3.852,1.862 5.555,2.721 4.708,2.437 10.412,4.287 14.84,7.147 8.269,5.156 16.264,11.3 23.532,17.59 2.709,2.428 4.555,5.865 7.136,8.433 v 1.296 c -2.291,0.703 -4.574,1.423 -6.859,2 -4.991,1.282 -9.412,0.992 -14.254,2.275 -2.992,0.868 -6.707,2.013 -9.845,2.304 l 0.29,0.292 c 1.846,5.275 11.834,9.565 16.402,12.72 5.548,4.004 10.689,8.86 14.827,14.437 1.429,1.423 2.858,2.718 4.28,4.137 0.994,1.438 1.274,3.298 2.28,4.58 v 0.434 c -1.114,-0.393 -1.915,-1.143 -2.674,-1.927 l -0.453,-0.473 c -0.453,-0.47 -0.91,-0.932 -1.431,-1.313 -3.148,-2.15 -6.274,-4.722 -9.422,-6.721 -5.412,-3.434 -11.689,-5.427 -17.246,-8.874 -3.142,-2.001 -6.137,-4.28 -9.132,-6.57 -2.715,-2.007 -5.705,-5.861 -7.411,-8.721 -1.005,-1.58 -1.143,-3.437 -2.291,-4.58 0.205,-1.909 1.954,-2.476 3.719,-2.942 l 0.406,-0.107 c 0.609,-0.158 1.205,-0.316 1.725,-0.525 7.414,-3.148 16.253,-4.29 27.667,-4.004 -0.43,-2.866 -7.562,-6.437 -9.839,-8.153 -4.57,-3.294 -9.409,-6.731 -14.257,-9.729 -2.569,-1.57 -6.996,-2.716 -9.842,-3.999 -3.851,-1.574 -12.41,-3.147 -14.544,-6.145 -3.625,-4.726 -6.229,-10.363 -8.757,-16.057 l -0.688,-1.554 c -0.229,-0.518 -0.459,-1.036 -0.69,-1.553 -2.988,-6.857 -6.7,-14.006 -9.695,-21.027 -1.566,-3.425 -2.285,-6.431 -4,-9.716 -10.407,-20.158 -25.81,-37.035 -44.485,-48.904 -6.137,-3.862 -12.98,-7.436 -20.534,-9.865 -4.281,-1.293 -9.419,-0.578 -13.98,-1.57 h -3.002 c -2.562,-0.722 -4.701,-3.438 -6.7,-4.87 -4.415,-2.998 -8.837,-5.011 -14.117,-7.15001 -1.85,-0.858 -7.133,-2.856 -8.977,-1.283 -1.142,0.287 -1.721,0.718 -2.002,1.864 -1.136,1.71001 -0.137,4.28601 0.57,5.86301 2.142,4.57 5.134,7.286 7.85,11.148 2.416,3.425 5.417,7.287 7.13,11.011 3.696,8.005 5.417,16.874 8.842,24.878 1.27,3.01 3.279,6.435 5.128,9.15 1.567,2.155 4.416,3.713 5.278,6.441 1.718,2.86 -2.572,12.297 -3.565,15.294 -3.715,11.727 -2.995,28.028 1.283,38.193 l 0.228,0.536 0.228,0.543 c 1.562,3.723 3.234,7.732 7.387,8.773 0.286,-0.284 0,-0.135 0.567,-0.284 1.005,-7.868 1.288,-15.445 4,-21.601 1.567,-3.849 4.696,-6.57 6.841,-9.712 1.43,0.856 1.43,3.437 2.282,5.145 1.856,4.43 3.849,9.287 6.137,13.73 4.696,9.15 9.98,18.021 15.967,26.025 2.005,2.859 4.85,6.006 7.416,8.581 1.143,0.997 2.423,1.573 3.282,2.856 h 0.28 v 0.432 c -4.278,-1.577 -6.99,-6.003 -10.402,-8.587 -6.424,-4.857 -14.117,-12.151 -18.545,-19.15 -1.852,-4.018 -3.854,-7.869 -5.85,-11.867 v -0.289 c -0.853,1.142 -0.567,2.276 -0.994,4.004 -1.852,7.145 -0.426,15.296 -6.843,17.866 -7.274,3.01 -12.7,-4.857 -14.977,-8.432 -7.276,-11.866 -9.269,-31.884 -4.138,-48.043 1.14,-3.577 1.295,-7.867 3.285,-10.723 -0.43,-2.582 -2.42,-3.288 -3.571,-4.87 -1.996,-2.704 -3.705,-5.854 -5.268,-8.857 -3.002,-5.866 -5.138,-12.875 -7.417,-19.166 -1.002,-2.569 -1.289,-5.148 -2.288,-7.58 -1.704,-3.712 -4.845,-7.436 -7.268,-10.72 -3.281,-4.72 -12.837,-13.868 -8.985,-23.16801 z M 349.99,35.348 c 0.381,0.382 0.841,0.716 1.317,1.045 l 0.574,0.394 c 0.765,0.53 1.506,1.088 1.96,1.848 0.72,1.006 0.854,1.999 1.716,3.007 0,3.437 -0.996,5.722 -3.007,7.146 0,0 -0.137,0.15 -0.278,0.29 -1.14,-2.291 -2.139,-4.57 -3.287,-6.859 -1.414,-1.998 -3.413,-3.583 -4.565,-5.866 h -0.277 v -0.287 c 1.721,-0.425 3.428,-0.718 5.847,-0.718 z"
         fill="#00758f"
         id="path3-9" /></g><rect
       style="fill:#f9f9f9;fill-opacity:1;stroke-width:25"
       id="rect47"
       width="57.899567"
       height="28.949783"
       x="3929.0283"
       y="1559.9241" /><g
       style="fill:none"
       id="g1"
       transform="translate(529.17921,1917.5714)"><path
         d="M 105.092,109.34 H 0 V 4.289 H 105.092 L 52.546,56.794 Z"
         fill="url(#paint0_linear_1_3565)"
         id="path1-5"
         style="fill:url(#paint0_linear_1_3565)" /><path
         d="m 269.144,30.636 c 7.254,0 14.172,1.977 20.102,5.278 5.93,3.28 10.555,8.221 13.814,14.172 3.302,6.266 5.278,13.184 5.278,20.754 0,7.57 -1.64,14.487 -4.941,20.753 -3.301,5.93 -7.906,10.871 -13.836,14.172 -5.93,3.638 -12.847,5.278 -20.417,5.278 -7.57,0 -14.487,-1.977 -20.417,-5.278 -6.266,-3.301 -10.87,-8.242 -14.172,-14.172 -3.301,-5.93 -4.941,-13.184 -4.941,-20.753 0,-7.57 1.64,-14.488 4.94,-20.754 3.302,-5.93 8.243,-10.534 14.173,-14.172 5.93,-3.638 12.847,-5.278 20.417,-5.278 z M 232.263,3.953 184.49,55.006 232.915,109.34 H 211.509 L 165.713,58.602 v 50.738 h -16.8 V 4.29 h 16.8 v 48.424 l 45.46,-48.76 z m 36.587,41.78 c -4.605,0 -8.558,0.989 -11.86,3.302 -3.3,1.976 -5.929,4.941 -7.906,8.894 -1.976,3.638 -2.964,8.243 -2.964,13.184 0,4.941 0.651,9.23 2.628,13.184 1.977,3.616 4.605,6.581 7.906,8.894 3.617,2.313 7.59,3.301 11.86,3.301 4.268,0 8.22,-0.988 11.522,-3.3 3.301,-1.977 5.93,-4.942 7.906,-8.895 1.977,-3.953 2.965,-8.243 2.965,-13.184 0,-4.941 -0.652,-9.23 -2.628,-13.184 -1.977,-3.617 -4.605,-6.581 -7.907,-8.894 -3.28,-2.313 -7.233,-3.302 -11.522,-3.302 z m 73.447,-32.55 h -16.149 v 13.185 c 0,1.976 -0.336,3.616 -1.64,4.605 -0.988,0.988 -2.628,1.64 -4.605,1.64 h -7.906 v 13.835 h 13.836 v 41.507 c 0,4.29 0.988,8.243 2.628,11.523 1.63,3.281 4.289,5.94 7.57,7.57 3.3,1.976 6.917,2.628 11.522,2.628 h 12.511 V 95.19 h -9.23 c -2.313,0 -4.29,-0.652 -5.93,-2.629 -1.495,-1.868 -2.31,-4.1885 -2.313,-6.581 V 46.45 H 360.38 V 32.612 H 342.59 V 13.182 Z M 372.933,0 h 16.464 v 109.34 h -16.464 z m 35.24,0.336 h 16.801 v 17.137 h -16.8 z m 0,32.277 h 16.465 v 77.042 h -16.464 z m 100.488,12.51 c -2.313,-4.604 -5.593,-8.242 -9.882,-10.534 -4.29,-2.628 -9.231,-3.953 -14.824,-3.953 -5.93,0 -11.208,1.64 -15.812,4.29 -3.617,2.313 -6.582,5.593 -8.895,9.23 V 32.297 H 443.436 V 109.34 H 459.9 V 66.172 c 0,-4.29 0.652,-7.907 2.313,-11.208 1.64,-3.301 3.953,-5.593 6.581,-7.57 2.965,-1.64 6.266,-2.628 10.22,-2.628 3.616,0 6.265,0.652 8.894,2.313 2.628,1.661 4.29,3.617 5.593,6.266 1.325,2.629 1.976,5.93 1.976,9.546 v 46.112 h 16.464 V 60.915 c 0.358,-5.909 -0.946,-11.166 -3.28,-15.792 z"
         fill="#000000"
         id="path2-3" /></g></g></svg>
