<?xml version="1.0" encoding="UTF-8" standalone="no"?>
<!-- Created with Inkscape (http://www.inkscape.org/) -->

<svg
   width="512"
   height="227.53101"
   viewBox="0 0 512 227.53101"
   version="1.1"
   id="svg1"
   xml:space="preserve"
   xmlns="http://www.w3.org/2000/svg"
   xmlns:svg="http://www.w3.org/2000/svg"><defs
     id="defs1"><linearGradient
       id="paint0_linear_1_3568"
       x1="3874.3501"
       y1="3635.1899"
       x2="11545.7"
       y2="11811.2"
       gradientUnits="userSpaceOnUse"><stop
         offset="0.296"
         stop-color="#00AFFF"
         id="stop4-9" /><stop
         offset="0.694"
         stop-color="#5282FF"
         id="stop5-9" /><stop
         offset="1"
         stop-color="#945DFF"
         id="stop6-0" /></linearGradient><linearGradient
       id="paint1_linear_1_3568"
       x1="4317.48"
       y1="4050.97"
       x2="11570.3"
       y2="11780.9"
       gradientUnits="userSpaceOnUse"><stop
         offset="0.108"
         stop-color="#C757BC"
         id="stop7" /><stop
         offset="0.173"
         stop-color="#CD5CA9"
         id="stop8" /><stop
         offset="0.492"
         stop-color="#E8744F"
         id="stop9" /><stop
         offset="0.716"
         stop-color="#F88316"
         id="stop10-8" /><stop
         offset="0.823"
         stop-color="#FF8900"
         id="stop11-1" /></linearGradient></defs><g
     id="g25"
     transform="translate(-97.602348,-4515.506)"><g
       style="fill:none"
       id="g42"
       transform="translate(97.602348,4515.506)"><path
         d="M 161.667,75.8433 121.418,38.0788 80.833,0 38.153,40.0454 0,75.8433 80.833,151.688 Z"
         fill="url(#paint0_linear_1_3568)"
         id="path1-4"
         style="fill:url(#paint0_linear_1_3568)" /><path
         d="m 80.833,151.688 40.249,37.764 40.585,38.079 42.68,-40.046 38.153,-35.797 -80.833,-75.8447 z"
         fill="url(#paint1_linear_1_3568)"
         id="path2-0"
         style="fill:url(#paint1_linear_1_3568)" /><path
         d="M 161.667,75.8433 H 80.833 v 75.8447 h 80.834 z"
         fill="#000000"
         id="path3-6" /><path
         d="m 312.036,150.614 v -20.917 l 7.392,-8.153 21.661,29.07 h 18.715 l -29.103,-38.467 27.188,-29.975 h -17.37 l -27.553,30.734 h -0.93 V 82.172 h -15.612 v 68.442 z m 59.243,-64.6927 v 12.9425 h -8.893 V 109.35 h 8.893 v 27.179 c 0,10.145 5.482,14.275 19.336,14.275 2.53,0.003 5.057,-0.203 7.549,-0.617 V 139.99 c -1.475,0.164 -2.96,0.243 -4.446,0.237 -5.119,0 -7.393,-2.181 -7.393,-6.874 V 109.35 h 11.839 V 98.8685 H 386.325 V 85.9213 Z m 64.315,65.7827 c 17.522,0 28.072,-10.145 28.072,-27.226 0,-16.93 -10.701,-27.2215 -28.072,-27.2215 -17.371,0 -28.073,10.3355 -28.073,27.2215 0,17.029 10.545,27.226 28.073,27.226 z m 0,-10.907 c -8.064,0 -12.617,-5.974 -12.617,-16.318 0,-10.24 4.598,-16.265 12.617,-16.265 7.958,0 12.611,6.021 12.611,16.265 0,10.339 -4.598,16.318 -12.611,16.318 z m 40.37,9.813 h 15.047 v -29.213 c 0,-7.347 5.634,-11.857 13.855,-11.857 2.43,0 5.947,0.38 7.134,0.759 V 98.1582 c -1.288,-0.379 -3.825,-0.6164 -5.891,-0.6164 -7.236,0 -13.132,3.9352 -14.633,9.1502 h -0.93 V 98.3956 H 475.97 v 52.2194 z"
         fill="#27282c"
         id="path4-2" /></g></g></svg>
