<?xml version="1.0" encoding="UTF-8" standalone="no"?>
<!-- Created with Inkscape (http://www.inkscape.org/) -->

<svg
   width="512"
   height="143.81999"
   viewBox="0 0 512 143.81999"
   version="1.1"
   id="svg1"
   xml:space="preserve"
   xmlns="http://www.w3.org/2000/svg"
   xmlns:svg="http://www.w3.org/2000/svg"><defs
     id="defs1" /><g
     id="g25"
     transform="translate(-462.38661,-4328.2344)"><g
       style="fill:none"
       id="g41"
       transform="translate(103.03046,4109.3299)"><path
         d="m 475.85015,218.90447 c 7.045,0 12.776,5.627 12.94,12.634 l 0.004,0.31 v 117.93199 c 0,7.045 -5.629,12.776 -12.634,12.94 l -0.31,0.004 h -103.55 c -7.044,0 -12.776,-5.629 -12.94,-12.634 l -0.004,-0.31 V 231.84847 c 0,-7.046 5.63,-12.776 12.634,-12.94 l 0.31,-0.004 z m 0,7.191 h -103.55 c -1.4871,0.002 -2.9159,0.57887 -3.98743,1.61012 -1.07151,1.03125 -1.70272,2.43688 -1.76157,3.92288 l -0.004,0.22 v 117.93199 c 0.002,1.487 0.57887,2.916 1.61012,3.987 1.03125,1.072 2.43688,1.703 3.92288,1.762 l 0.22,0.004 h 103.55 c 1.487,-0.002 2.916,-0.578 3.987,-1.609 1.072,-1.032 1.703,-2.437 1.762,-3.923 l 0.004,-0.22 V 231.84747 c -0.002,-1.5252 -0.609,-2.98744 -1.687,-4.06594 -1.079,-1.07849 -2.541,-1.68421 -4.066,-1.68606 z m -84.134,86.292 16.18,14.38199 -16.18,14.382 z m 14.382,-71.91 v 40.829 c 7.18,-2.337 17.217,-4.874 26.966,-4.874 8.89,0 14.211,3.495 17.11,6.427 6.091,6.163 6.266,13.988 6.26,15.1 l -10e-4,0.046 0.002,43.14599 h -14.382 v -42.94699 c -0.07,-3.357 -1.688,-7.389 -8.99,-7.389 -14.476,0 -30.697,7.208 -31.179,7.424 l -0.01,0.004 -10.158,4.603 v -62.369 z m 50.337,0 c -0.971,8.169 -4.283,16 -10.787,23.37 h -14.382 c 5.652,-7.415 9.201,-15.219 10.787,-23.37 z m 268.016,24.248 c 12.76,0 26.022,8.104 26.022,27.527 0,19.427 -13.262,27.52799 -26.022,27.52799 -12.833,0 -26.093,-8.10099 -26.093,-27.52799 0,-19.423 13.26,-27.527 26.093,-27.527 z m 116.724,1.005 v 31.687 c 0,7.308 2.366,10.607 8.103,10.607 5.733,0 8.027,-3.299 8.027,-10.607 v -31.687 h 14.051 v 31.757 c 0,14.053 -6.738,22.07899 -22.222,22.07899 -15.486,0 -22.296,-8.02599 -22.296,-22.07899 v -31.757 z m -305.684,0 v 19.712 h 17.634 v -19.712 h 14.339 v 53.04799 h -14.339 v -21.43399 h -17.634 v 21.43399 h -14.337 v -53.04799 z m 88.29,0 v 11.901 h -23.515 v 8.602 h 16.775 v 11.184 h -16.775 v 9.82 h 24.734 v 11.54099 h -39.07 v -53.04799 z m 37.684,0 c 13.62,0 21.936,4.518 21.936,17.276 0,8.315 -3.515,13.12 -10.467,15.483 l 11.254,20.28999 h -15.196 l -10.253,-18.42199 h -3.942 v 18.42099 h -14.05 v -53.04799 z m 119.304,0 v 19.214 l 14.627,-19.214 h 16.629 l -17.85,20.933 19.426,32.11499 h -16.201 l -12.543,-21.21999 -4.088,4.731 v 16.48999 h -14.335 v -53.04999 z m -56.318,10.824 c -7.527,0 -11.756,5.95 -11.756,15.698 0,9.753 4.229,16.06 11.756,16.06 7.455,0 11.683,-6.307 11.683,-16.06 0,-9.749 -4.228,-15.698 -11.683,-15.698 z m -63.49,0.788 h -6.164 v 12.115 h 6.164 c 5.879,0 8.459,-1.649 8.459,-6.093 0,-4.442 -2.58,-6.022 -8.459,-6.022 z"
         fill="#430098"
         id="path1-2" /></g></g></svg>
