<?xml version="1.0" encoding="UTF-8" standalone="no"?>
<!-- Created with Inkscape (http://www.inkscape.org/) -->

<svg
   width="511.74191"
   height="259.27631"
   viewBox="0 0 511.74191 259.27631"
   version="1.1"
   id="svg1"
   xml:space="preserve"
   xmlns="http://www.w3.org/2000/svg"
   xmlns:svg="http://www.w3.org/2000/svg"><defs
     id="defs1"><radialGradient
       id="paint0_radial_1_3631-4"
       cx="0"
       cy="0"
       r="1"
       gradientUnits="userSpaceOnUse"
       gradientTransform="matrix(168.095,0,0,168.095,76.8515,23.6675)"><stop
         stop-color="white"
         id="stop4-0" /><stop
         offset="0.5"
         stop-color="#4C6B97"
         id="stop5-3" /><stop
         offset="1"
         stop-color="#231F20"
         id="stop6-9" /></radialGradient></defs><g
     id="g25"
     transform="translate(-91.945293,-1603.5462)"><g
       style="fill:none"
       id="g43"
       transform="matrix(1.9989919,0,0,1.9262727,91.945293,1603.5462)"><path
         d="m 128,134.6 c 70.692,0 128,-30.131 128,-67.3 C 256,30.1312 198.692,0 128,0 57.3075,0 0,30.1312 0,67.3 c 0,37.169 57.3075,67.3 128,67.3 z"
         fill="url(#paint0_radial_1_3631)"
         id="path1-31"
         style="fill:url(#paint0_radial_1_3631-4)" /><path
         d="m 128,129.6 c 67.931,0 123,-27.893 123,-62.3 C 251,32.8927 195.931,5 128,5 60.069,5 5,32.8927 5,67.3 c 0,34.407 55.069,62.3 123,62.3 z"
         fill="#6181b6"
         id="path2-1" /><path
         d="M 152.9,87.5 159,56.1 c 1.4,-7.1 0.2,-12.4 -3.4,-15.7 -3.5,-3.2 -9.5,-4.8 -18.3,-4.8 h -10.6 l 3,-15.6 c 0.1,-0.6 0,-1.2 -0.4,-1.7 -0.4,-0.5 -0.9,-0.7 -1.5,-0.7 h -14.6 c -1,0 -1.8,0.7 -2,1.6 l -6.5,33.3 c -0.6,-3.8 -2,-7 -4.4,-9.6 C 96,38 89.3,35.5 80.2,35.5 H 52.1 c -1,0 -1.8,0.7 -2,1.6 L 37,104.7 c -0.1,0.6 0,1.2 0.4,1.7 0.4,0.5 0.9,0.7 1.5,0.7 h 14.7 c 1,0 1.8,-0.7 2,-1.6 l 3.2,-16.3 h 10.9 c 5.7,0 10.6,-0.6 14.3,-1.8 3.9,-1.3 7.4,-3.4 10.5,-6.3 2.5,-2.3 4.6,-4.9 6.2,-7.7 l -2.6,13.5 c -0.1,0.6 0,1.2 0.4,1.7 0.4,0.5 0.9,0.7 1.5,0.7 h 14.6 c 1,0 1.8,-0.7 2,-1.6 l 7.2,-37 h 10 c 4.3,0 5.5,0.8 5.9,1.2 0.3,0.3 0.9,1.5 0.2,5.2 L 134.1,87 c -0.1,0.6 0,1.2 0.4,1.7 0.4,0.5 0.9,0.7 1.5,0.7 h 15 c 0.9,-0.3 1.7,-1 1.9,-1.9 z m -67.6,-26 c -0.9,4.7 -2.6,8.1 -5.1,10 -2.5,1.9 -6.6,2.9 -12,2.9 h -6.5 l 4.7,-24.2 h 8.4 c 6.2,0 8.7,1.3 9.7,2.4 1.3,1.6 1.6,4.7 0.8,8.9 z m 130,-18.6 C 211,38 204.3,35.5 195.2,35.5 h -28.3 c -1,0 -1.8,0.7 -2,1.6 l -13.1,67.5 c -0.1,0.6 0,1.2 0.4,1.7 0.4,0.5 0.9,0.7 1.5,0.7 h 14.7 c 1,0 1.8,-0.7 2,-1.6 l 3.2,-16.3 h 10.9 c 5.7,0 10.6,-0.6 14.3,-1.8 3.9,-1.3 7.4,-3.4 10.5,-6.3 2.6,-2.4 4.8,-5.1 6.4,-8 1.6,-2.9 2.8,-6.1 3.5,-9.6 1.7,-8.7 0.4,-15.5 -3.9,-20.5 z M 200,61.5 c -0.9,4.7 -2.6,8.1 -5.1,10 -2.5,1.9 -6.6,2.9 -12,2.9 h -6.5 l 4.7,-24.2 h 8.4 c 6.2,0 8.7,1.3 9.7,2.4 1.4,1.6 1.7,4.7 0.8,8.9 z"
         fill="#ffffff"
         id="path3-0" /><path
         d="m 74.8,48.2 c 5.6,0 9.3,1 11.2,3.1 1.9,2.1 2.3,5.6 1.3,10.6 -1,5.2 -3,9 -5.9,11.2 -2.9,2.2 -7.3,3.3 -13.2,3.3 H 59.3 L 64.8,48.2 Z M 39,105 h 14.7 l 3.5,-17.9 h 12.6 c 5.6,0 10.1,-0.6 13.7,-1.8 3.6,-1.2 6.8,-3.1 9.8,-5.9 2.5,-2.3 4.5,-4.8 6,-7.5 1.5,-2.7 2.6,-5.7 3.2,-9 1.6,-8 0.4,-14.2 -3.5,-18.7 C 95.1,39.7 88.9,37.5 80.4,37.5 H 52.1 Z m 74.3,-85.4 h 14.6 l -3.5,17.9 h 13 c 8.2,0 13.8,1.4 16.9,4.3 3.1,2.9 4,7.5 2.8,13.9 L 151,87.1 H 136.2 L 142,57.2 c 0.7,-3.4 0.4,-5.7 -0.7,-6.9 -1.1,-1.2 -3.6,-1.9 -7.3,-1.9 h -11.7 l -7.5,38.7 h -14.6 z m 76.2,28.6 c 5.6,0 9.3,1 11.2,3.1 1.9,2.1 2.3,5.6 1.3,10.6 -1,5.2 -3,9 -5.9,11.2 -2.9,2.2 -7.3,3.3 -13.2,3.3 H 174 l 5.5,-28.2 z M 153.7,105 h 14.7 l 3.5,-17.9 h 12.6 c 5.6,0 10.1,-0.6 13.7,-1.8 3.6,-1.2 6.8,-3.1 9.8,-5.9 2.5,-2.3 4.5,-4.8 6,-7.5 1.5,-2.7 2.6,-5.7 3.2,-9 1.6,-8 0.4,-14.2 -3.5,-18.7 -3.9,-4.5 -10.1,-6.7 -18.6,-6.7 h -28.3 z"
         fill="#000004"
         id="path4-3" /></g></g></svg>
