<?xml version="1.0" encoding="UTF-8" standalone="no"?>
<!-- Created with Inkscape (http://www.inkscape.org/) -->

<svg
   width="371.34695"
   height="315.96643"
   viewBox="0 0 371.34695 315.96643"
   version="1.1"
   id="svg1"
   xml:space="preserve"
   xmlns="http://www.w3.org/2000/svg"
   xmlns:svg="http://www.w3.org/2000/svg"><defs
     id="defs1" /><g
     id="layer1"
     transform="translate(-568.84258,-1246.2959)"><g
       style="fill:none"
       id="g14"
       transform="matrix(1.4505741,0,0,1.3872354,568.84258,1246.2959)"><path
         d="m 210.483,73.8238 c -2.724,-0.9347 -5.472,-1.8006 -8.24,-2.597 0.465,-1.9 0.893,-3.777 1.273,-5.621 6.238,-30.281 2.16,-54.676 -11.769,-62.70797 -13.355,-7.7 -35.196,0.329 -57.254,19.52597 -2.174,1.8954 -4.3,3.8453 -6.375,5.848 -1.389,-1.3317 -2.803,-2.6376 -4.241,-3.917 C 100.759,3.82883 77.587,-4.82217 63.673,3.23283 50.33,10.9568 46.379,33.8898 51.995,62.5878 c 0.5587,2.8423 1.1896,5.6698 1.892,8.48 -3.28,0.932 -6.445,1.924 -9.474,2.98 C 17.309,83.4978 0,98.3068 0,113.668 c 0,15.865 18.582,31.778 46.812,41.427 2.2887,0.779 4.5964,1.501 6.921,2.165 -0.755,3.027 -1.4252,6.074 -2.01,9.138 -5.354,28.2 -1.173,50.591 12.134,58.266 13.744,7.926 36.812,-0.22 59.273,-19.855 1.821,-1.596 3.603,-3.238 5.342,-4.923 2.248,2.168 4.555,4.274 6.92,6.314 21.758,18.722 43.246,26.282 56.54,18.586 13.731,-7.949 18.194,-32.003 12.4,-61.268 -0.456,-2.293 -0.968,-4.574 -1.535,-6.842 1.62,-0.48 3.21,-0.974 4.76,-1.488 C 236.905,145.465 256,129.745 256,113.668 256,98.2508 238.132,83.3418 210.483,73.8238 Z m -6.365,70.9842 c -1.4,0.463 -2.836,0.91 -4.3,1.345 -3.24,-10.257 -7.612,-21.163 -12.963,-32.432 5.106,-11 9.31,-21.7672 12.459,-31.9572 2.619,0.758 5.16,1.557 7.61,2.4 23.69,8.156 38.14,20.2132 38.14,29.5042 0,9.896 -15.606,22.743 -40.946,31.14 z m -10.514,20.834 c 2.562,12.94 2.927,24.64 1.23,33.787 -1.524,8.219 -4.59,13.698 -8.382,15.893 -8.067,4.67 -25.32,-1.4 -43.927,-17.412 -2.2,-1.897 -4.346,-3.854 -6.437,-5.87 7.214,-7.889 14.423,-17.06 21.459,-27.246 12.376,-1.098 24.068,-2.894 34.671,-5.345 0.511,2.053 0.973,4.118 1.386,6.193 z M 87.276,214.515 c -7.882,2.783 -14.16,2.863 -17.955,0.675 -8.075,-4.657 -11.432,-22.636 -6.853,-46.752 0.5443,-2.85 1.1676,-5.684 1.869,-8.499 10.486,2.32 22.093,3.988 34.498,4.994 7.084,9.967 14.501,19.128 21.976,27.15 -1.589,1.537 -3.215,3.035 -4.877,4.492 -9.933,8.682 -19.886,14.842 -28.658,17.94 z M 50.35,144.747 c -12.483,-4.267 -22.792,-9.812 -29.858,-15.863 -6.35,-5.437 -9.555,-10.836 -9.555,-15.216 0,-9.322 13.897,-21.2122 37.076,-29.2932 2.813,-0.98 5.757,-1.905 8.812,-2.773 3.204,10.42 7.406,21.3152 12.477,32.3322 -5.137,11.18 -9.399,22.249 -12.634,32.792 -2.1219,-0.608 -4.2285,-1.268 -6.318,-1.979 z M 62.728,60.4868 c -4.811,-24.587 -1.616,-43.134 6.425,-47.789 8.564,-4.95797 27.502,2.111 47.463,19.835 1.302,1.1584 2.582,2.3403 3.841,3.545 -7.438,7.987 -14.787,17.08 -21.808,26.988 -12.04,1.116 -23.565,2.908 -34.161,5.309 -0.6528,-2.6138 -1.2397,-5.2446 -1.76,-7.888 z m 110.427,27.269 c -2.503,-4.3231 -5.098,-8.5917 -7.785,-12.803 8.168,1.033 15.994,2.404 23.343,4.08 -2.206,7.072 -4.956,14.465 -8.193,22.0452 -2.366,-4.4894 -4.822,-8.931 -7.365,-13.3222 z m -45.032,-43.861 c 5.044,5.465 10.096,11.566 15.065,18.186 -10.08,-0.476 -20.177,-0.478 -30.257,-0.006 4.974,-6.559 10.069,-12.652 15.192,-18.18 z m -45.321,43.935 c -2.5117,4.3559 -4.9213,8.7697 -7.227,13.2382 -3.184,-7.5532 -5.909,-14.9802 -8.134,-22.1522 7.304,-1.634 15.093,-2.97 23.209,-3.984 -2.7166,4.237 -5.3333,8.5382 -7.848,12.898 z m 8.081,65.3522 c -8.385,-0.936 -16.291,-2.203 -23.593,-3.793 2.26,-7.3 5.045,-14.885 8.298,-22.6 2.3148,4.471 4.7345,8.888 7.257,13.246 2.594,4.48 5.28,8.868 8.038,13.147 z m 37.542,31.03 c -5.184,-5.592 -10.354,-11.779 -15.403,-18.433 4.902,0.192 9.899,0.29 14.978,0.29 5.218,0 10.376,-0.117 15.453,-0.343 -4.985,6.774 -10.018,12.97 -15.028,18.486 z m 52.198,-57.817 c 3.422,7.8 6.306,15.345 8.596,22.52 -7.422,1.694 -15.436,3.058 -23.88,4.071 2.706,-4.29 5.326,-8.632 7.859,-13.026 2.575,-4.466 5.051,-8.989 7.425,-13.565 z m -16.898,8.101 c -3.878,6.736 -7.974,13.345 -12.281,19.815 -7.802,0.552 -15.622,0.827 -23.444,0.823 -7.967,0 -15.716,-0.248 -23.178,-0.732 -4.42,-6.455 -8.5938,-13.075 -12.513,-19.846 -3.9008,-6.735 -7.5434,-13.616 -10.922,-20.627 3.37,-7.013 7.0025,-13.897 10.89,-20.6372 l -0.001,0.001 c 3.886,-6.7418 8.027,-13.3335 12.413,-19.761 7.613,-0.576 15.42,-0.876 23.31,-0.876 7.926,0 15.744,0.303 23.355,0.883 4.342,6.4179 8.456,12.987 12.335,19.695 3.9,6.7252 7.581,13.5752 11.036,20.5402 -3.419,7.036 -7.088,13.947 -11,20.722 z m 22.56,-122.1242 c 8.572,4.944 11.906,24.881 6.52,51.026 -0.344,1.668 -0.73,3.367 -1.15,5.09 -10.622,-2.452 -22.155,-4.275 -34.23,-5.408 -7.034,-10.017 -14.323,-19.124 -21.64,-27.008 1.918,-1.8485 3.881,-3.649 5.888,-5.4 18.9,-16.447 36.564,-22.94097 44.612,-18.3 z M 128,90.8078 c 12.625,0 22.86,10.2352 22.86,22.8602 0,12.625 -10.235,22.86 -22.86,22.86 -12.625,0 -22.86,-10.235 -22.86,-22.86 0,-12.625 10.235,-22.8602 22.86,-22.8602 z"
         fill="#00d8ff"
         id="path1-1" /></g></g></svg>
