<?xml version="1.0" encoding="UTF-8" standalone="no"?>
<!-- Created with Inkscape (http://www.inkscape.org/) -->

<svg
   width="511.30701"
   height="313.09424"
   viewBox="0 0 511.30701 313.09424"
   version="1.1"
   id="svg1"
   xml:space="preserve"
   xmlns="http://www.w3.org/2000/svg"
   xmlns:svg="http://www.w3.org/2000/svg"><defs
     id="defs1"><linearGradient
       id="paint0_linear_1_3608-5"
       x1="7566.27"
       y1="2243.1799"
       x2="2232.99"
       y2="10623.3"
       gradientUnits="userSpaceOnUse"><stop
         stop-color="#41873F"
         id="stop10-66" /><stop
         offset="0.3288"
         stop-color="#418B3D"
         id="stop11-4" /><stop
         offset="0.6352"
         stop-color="#419637"
         id="stop12-0" /><stop
         offset="0.9319"
         stop-color="#3FA92D"
         id="stop13-0" /><stop
         offset="1"
         stop-color="#3FAE2A"
         id="stop14-4" /></linearGradient><linearGradient
       id="paint1_linear_1_3608-6"
       x1="4742.23"
       y1="6920.0801"
       x2="18099.199"
       y2="-336.80499"
       gradientUnits="userSpaceOnUse"><stop
         offset="0.1376"
         stop-color="#41873F"
         id="stop15-2" /><stop
         offset="0.4032"
         stop-color="#54A044"
         id="stop16-6" /><stop
         offset="0.7136"
         stop-color="#66B848"
         id="stop17-7" /><stop
         offset="0.9081"
         stop-color="#6CC04A"
         id="stop18-5" /></linearGradient><linearGradient
       id="paint2_linear_1_3608-6"
       x1="-329.26801"
       y1="6282.8398"
       x2="10929.9"
       y2="6282.8398"
       gradientUnits="userSpaceOnUse"><stop
         offset="0.09192"
         stop-color="#6CC04A"
         id="stop19-9" /><stop
         offset="0.2864"
         stop-color="#66B848"
         id="stop20-8" /><stop
         offset="0.5968"
         stop-color="#54A044"
         id="stop21-7" /><stop
         offset="0.8624"
         stop-color="#41873F"
         id="stop22-2" /></linearGradient><linearGradient
       id="paint3_linear_1_3608-8"
       x1="-5523.9199"
       y1="1888.8199"
       x2="5735.1401"
       y2="1888.8199"
       gradientUnits="userSpaceOnUse"><stop
         offset="0.09192"
         stop-color="#6CC04A"
         id="stop23-2" /><stop
         offset="0.2864"
         stop-color="#66B848"
         id="stop24-9" /><stop
         offset="0.5968"
         stop-color="#54A044"
         id="stop25-9" /><stop
         offset="0.8624"
         stop-color="#41873F"
         id="stop26-6" /></linearGradient><linearGradient
       id="paint4_linear_1_3608-0"
       x1="7375.4302"
       y1="-7082.0801"
       x2="4523.0801"
       y2="7864.2002"
       gradientUnits="userSpaceOnUse"><stop
         stop-color="#41873F"
         id="stop27-2" /><stop
         offset="0.3288"
         stop-color="#418B3D"
         id="stop28-7" /><stop
         offset="0.6352"
         stop-color="#419637"
         id="stop29-6" /><stop
         offset="0.9319"
         stop-color="#3FA92D"
         id="stop30-1" /><stop
         offset="1"
         stop-color="#3FAE2A"
         id="stop31-3" /></linearGradient></defs><g
     id="g25"
     transform="translate(-474.76398,-3833.861)"><g
       style="fill:none"
       id="g44"
       transform="translate(474.53298,3833.8612)"><path
         d="m 253.11,313.094 c -1.733,0 -3.351,-0.462 -4.854,-1.271 l -15.371,-9.13 c -2.312,-1.272 -1.156,-1.734 -0.462,-1.965 3.12,-1.04 3.698,-1.272 6.934,-3.12 0.347,-0.232 0.81,-0.116 1.156,0.115 l 11.789,7.05 c 0.462,0.231 1.04,0.231 1.386,0 l 46.115,-26.698 c 0.462,-0.231 0.694,-0.694 0.694,-1.271 v -53.28 c 0,-0.579 -0.232,-1.04 -0.694,-1.272 L 253.688,195.67 c -0.462,-0.232 -1.04,-0.232 -1.386,0 l -46.115,26.582 c -0.462,0.231 -0.694,0.809 -0.694,1.271 v 53.28 c 0,0.463 0.232,1.04 0.694,1.272 l 12.598,7.281 c 6.819,3.467 11.095,-0.578 11.095,-4.623 v -52.587 c 0,-0.693 0.578,-1.387 1.387,-1.387 h 5.894 c 0.694,0 1.387,0.578 1.387,1.387 v 52.587 c 0,9.13 -4.97,14.447 -13.638,14.447 -2.658,0 -4.738,0 -10.633,-2.89 l -12.135,-6.934 c -3.005,-1.733 -4.854,-4.97 -4.854,-8.437 v -53.28 c 0,-3.467 1.849,-6.704 4.854,-8.437 l 46.114,-26.698 c 2.89,-1.618 6.82,-1.618 9.709,0 l 46.114,26.698 c 3.005,1.733 4.855,4.97 4.855,8.437 v 53.28 c 0,3.467 -1.85,6.704 -4.855,8.437 l -46.114,26.698 c -1.503,0.694 -3.237,1.04 -4.855,1.04 z m 14.217,-36.637 c -20.225,0 -24.386,-9.246 -24.386,-17.105 0,-0.694 0.578,-1.387 1.387,-1.387 h 6.01 c 0.693,0 1.271,0.462 1.271,1.156 0.925,6.125 3.583,9.13 15.834,9.13 9.708,0 13.87,-2.196 13.87,-7.397 0,-3.005 -1.157,-5.2 -16.297,-6.703 -12.598,-1.272 -20.457,-4.045 -20.457,-14.1 0,-9.362 7.86,-14.91 21.035,-14.91 14.793,0 22.075,5.086 23,16.18 0,0.348 -0.116,0.694 -0.347,1.041 -0.232,0.231 -0.578,0.462 -0.925,0.462 h -6.01 c -0.578,0 -1.156,-0.462 -1.271,-1.04 -1.387,-6.356 -4.97,-8.437 -14.447,-8.437 -10.633,0 -11.905,3.699 -11.905,6.472 0,3.352 1.503,4.392 15.834,6.241 14.216,1.85 20.92,4.508 20.92,14.447 -0.116,10.171 -8.437,15.95 -23.116,15.95 z"
         fill="#539e43"
         id="path1-19" /><path
         d="m 110.028,104.712 c 0,-2.08 -1.156,-4.046 -3.005,-5.086 l -49.004,-28.2 c -0.81,-0.463 -1.734,-0.694 -2.658,-0.81 h -0.463 c -0.924,0 -1.849,0.347 -2.658,0.81 l -49.004,28.2 c -1.85,1.04 -3.004997,3.005 -3.004997,5.086 l 0.116,75.817 c 0,1.04 0.578,2.08 1.501997,2.543 0.925,0.578 2.08,0.578 2.89,0 l 29.125,-16.643 c 1.849,-1.04 3.005,-3.005 3.005,-5.085 v -35.482 c 0,-2.08 1.155,-4.045 3.005,-5.085 l 12.366,-7.166 c 0.925,-0.578 1.965,-0.81 3.005,-0.81 1.04,0 2.08,0.232 2.89,0.81 l 12.366,7.166 c 1.85,1.04 3.005,3.004 3.005,5.085 v 35.482 c 0,2.08 1.156,4.045 3.005,5.085 l 29.125,16.643 c 0.45,0.283 0.971,0.434 1.502,0.434 0.532,0 1.053,-0.151 1.503,-0.434 0.925,-0.463 1.503,-1.503 1.503,-2.543 z M 345.571,0.347006 c -0.924,-0.463 -2.08,-0.463 -2.89,0 -0.924,0.578 -1.502,1.502004 -1.502,2.542004 V 78.014 c 0,0.693 -0.346,1.386 -1.04,1.849 -0.693,0.346 -1.387,0.346 -2.08,0 l -12.251,-7.05 c -0.898,-0.5114 -1.914,-0.7803 -2.947,-0.7803 -1.034,0 -2.05,0.2689 -2.948,0.7803 l -49.004,28.316 c -1.849,1.04 -3.005,3.005 -3.005,5.085 v 56.516 c 0,2.08 1.156,4.046 3.005,5.086 l 49.004,28.316 c 0.898,0.511 1.914,0.78 2.948,0.78 1.033,0 2.049,-0.269 2.947,-0.78 l 49.004,-28.316 c 1.849,-1.04 3.005,-3.005 3.005,-5.086 V 21.844 c 0,-2.196 -1.156,-4.16 -3.005,-5.201 z M 341.064,144.123 c 0,0.578 -0.231,1.04 -0.694,1.271 l -16.758,9.708 c -0.234,0.114 -0.491,0.174 -0.751,0.174 -0.261,0 -0.518,-0.06 -0.752,-0.174 l -16.758,-9.708 c -0.463,-0.231 -0.694,-0.809 -0.694,-1.271 v -19.417 c 0,-0.578 0.231,-1.04 0.694,-1.271 l 16.758,-9.709 c 0.234,-0.114 0.491,-0.174 0.752,-0.174 0.26,0 0.517,0.06 0.751,0.174 l 16.758,9.709 c 0.463,0.23 0.694,0.809 0.694,1.271 z m 167.584,-19.879 c 1.85,-1.04 2.89,-3.005 2.89,-5.086 v -13.753 c 0,-2.08 -1.156,-4.045 -2.89,-5.085 l -48.657,-28.2 c -0.898,-0.5114 -1.914,-0.7803 -2.947,-0.7803 -1.034,0 -2.05,0.2689 -2.948,0.7803 l -49.004,28.315 c -1.85,1.04 -3.005,3.005 -3.005,5.085 v 56.517 c 0,2.08 1.156,4.045 3.005,5.085 l 48.657,27.738 c 1.85,1.04 4.046,1.04 5.78,0 L 489,178.45 c 0.925,-0.463 1.503,-1.503 1.503,-2.543 0,-1.04 -0.578,-2.08 -1.503,-2.543 l -49.235,-28.316 c -0.925,-0.578 -1.503,-1.502 -1.503,-2.542 v -17.683 c 0,-1.04 0.578,-2.08 1.503,-2.543 l 15.371,-8.784 c 0.45,-0.283 0.971,-0.433 1.503,-0.433 0.531,0 1.052,0.15 1.502,0.433 l 15.372,8.784 c 0.925,0.578 1.502,1.502 1.502,2.543 v 13.869 c 0,1.04 0.578,2.08 1.503,2.542 0.45,0.283 0.971,0.434 1.503,0.434 0.531,0 1.052,-0.151 1.502,-0.434 z"
         fill="#333333"
         id="path2-69" /><path
         d="m 456.292,121.585 c 0.172,-0.113 0.373,-0.173 0.578,-0.173 0.206,0 0.406,0.06 0.578,0.173 l 9.362,5.432 c 0.346,0.232 0.577,0.578 0.577,1.04 v 10.865 c 0,0.462 -0.23,0.809 -0.577,1.04 l -9.362,5.432 c -0.172,0.113 -0.372,0.173 -0.578,0.173 -0.205,0 -0.406,-0.06 -0.578,-0.173 l -9.361,-5.432 c -0.347,-0.231 -0.578,-0.578 -0.578,-1.04 v -10.864 c 0,-0.463 0.23,-0.81 0.578,-1.04 z"
         fill="#539e43"
         id="path3-3" /><path
         d="m 191.971,72.351 c -0.898,-0.5112 -1.914,-0.78 -2.947,-0.78 -1.033,0 -2.049,0.2688 -2.947,0.78 l -48.657,28.083 c -1.85,1.04 -2.89,3.005 -2.89,5.085 v 56.286 c 0,2.08 1.156,4.045 2.89,5.085 l 48.657,28.085 c 0.898,0.511 1.914,0.78 2.947,0.78 1.033,0 2.049,-0.269 2.947,-0.78 l 48.658,-28.085 c 1.849,-1.04 2.89,-3.005 2.89,-5.085 V 105.52 c 0,-2.08 -1.157,-4.045 -2.89,-5.085 z"
         fill="url(#paint0_linear_1_3608)"
         id="path4-38"
         style="fill:url(#paint0_linear_1_3608-5)" /><g
         mask="url(#mask0_1_3608)"
         id="g6"><path
           d="M 240.744,100.435 191.856,72.351 c -0.48,-0.2426 -0.984,-0.4362 -1.503,-0.578 l -54.783,93.848 c 0.454,0.554 1.002,1.024 1.619,1.387 l 48.888,28.085 c 1.387,0.809 3.005,1.04 4.507,0.577 l 51.432,-94.078 c -0.347,-0.462 -0.81,-0.811 -1.272,-1.157 z"
           fill="url(#paint1_linear_1_3608)"
           id="path6"
           style="fill:url(#paint1_linear_1_3608-6)" /></g><g
         mask="url(#mask1_1_3608)"
         id="g10"><path
           fill-rule="evenodd"
           clip-rule="evenodd"
           d="m 240.86,166.891 c 1.387,-0.809 2.427,-2.196 2.89,-3.698 L 190.121,71.657 c -1.387,-0.231 -2.89,-0.116 -4.16,0.693 l -48.542,27.97 52.355,95.465 c 0.761,-0.125 1.501,-0.358 2.196,-0.693 z"
           fill="url(#paint2_linear_1_3608)"
           id="path8"
           style="fill:url(#paint2_linear_1_3608-6)" /><path
           fill-rule="evenodd"
           clip-rule="evenodd"
           d="m 240.86,166.891 -48.773,28.085 c -0.689,0.351 -1.431,0.585 -2.196,0.693 l 0.925,1.734 54.089,-31.32 v -0.694 l -1.387,-2.312 c -0.231,1.618 -1.271,3.005 -2.658,3.814 z"
           fill="url(#paint3_linear_1_3608)"
           id="path9"
           style="fill:url(#paint3_linear_1_3608-8)" /><path
           fill-rule="evenodd"
           clip-rule="evenodd"
           d="m 240.86,166.891 -48.773,28.085 c -0.689,0.351 -1.431,0.585 -2.196,0.693 l 0.925,1.734 54.089,-31.32 v -0.694 l -1.387,-2.312 c -0.231,1.618 -1.271,3.005 -2.658,3.814 z"
           fill="url(#paint4_linear_1_3608)"
           id="path10"
           style="fill:url(#paint4_linear_1_3608-0)" /></g></g></g></svg>
