<?xml version="1.0" encoding="UTF-8" standalone="no"?>
<!-- Created with Inkscape (http://www.inkscape.org/) -->

<svg
   width="255.99973"
   height="184.743"
   viewBox="0 0 255.99973 184.743"
   version="1.1"
   id="svg1"
   xml:space="preserve"
   xmlns="http://www.w3.org/2000/svg"
   xmlns:svg="http://www.w3.org/2000/svg"><defs
     id="defs1" /><g
     id="g25"
     transform="translate(-110.05922,-4109.776)"><g
       style="fill:none"
       id="g40"
       transform="translate(110.05895,4109.776)"><path
         d="m 250.716,70.497 c -5.765,-4 -18.976,-5.5 -29.304,-3.5 -1.2,-10 -6.725,-18.749 -16.333,-26.499 l -5.524,-4 -3.844,5.75 c -4.803,7.5 -7.205,18 -6.485,28 0.24,3.499 1.441,9.749 5.044,15.249 -3.362,2 -10.328,4.5 -19.455,4.5 H 1.155 l -0.480001,2 C -1.007,101.996 -1.007,133.245 18.689,157.244 c 14.892,18.249 36.99,27.499 66.053,27.499 62.93,0 109.528,-30.25 131.386,-84.997 8.647,0.25 27.142,0 36.51,-18.75 0.24,-0.5 0.72,-1.5 2.401,-5.249 l 0.961,-2 z M 139.986,0 h -26.42 v 24.999 h 26.42 z m 0,29.999 h -26.42 v 24.999 h 26.42 z m -31.225,0 h -26.42 v 24.999 h 26.42 z m -31.225,0 H 51.115 V 54.998 H 77.536 Z M 46.311,59.998 H 19.89 v 24.999 h 26.42 z m 31.225,0 H 51.115 v 24.999 h 26.421 z m 31.225,0 h -26.42 v 24.999 h 26.42 z m 31.226,0 h -26.422 v 24.999 h 26.422 z m 31.225,0 H 144.79 v 24.999 h 26.422 z"
         fill="#2396ed"
         id="path1-62" /></g></g></svg>
