<?xml version="1.0" encoding="UTF-8" standalone="no"?>
<!-- Created with Inkscape (http://www.inkscape.org/) -->

<svg
   width="318.51501"
   height="247.98828"
   viewBox="0 0 318.51501 247.98828"
   version="1.1"
   id="svg1"
   xml:space="preserve"
   xmlns="http://www.w3.org/2000/svg"
   xmlns:svg="http://www.w3.org/2000/svg"><defs
     id="defs1" /><g
     id="g25"
     transform="translate(-114.46758,-3678.9298)"><g
       style="fill:none"
       id="g39"
       transform="translate(114.46758,3678.6241)"><path
         d="m 159.258,134.138 v 32.04 c 52.179,0 92.807,-52.463 75.738,-109.3684 C 227.537,31.942 208.55,12.1815 184.656,4.41845 129.978,-13.3461 79.5693,28.9372 79.5693,83.2425 h 30.8557 c 0.004,0 0.008,-0.0078 0.008,-0.0078 0.005,-34.0818 32.41,-60.4292 66.839,-47.4267 12.755,4.8166 22.928,15.403 27.56,28.6765 12.494,35.8095 -12.785,69.5245 -45.503,69.5725 v -31.936 l -0.005,-0.002 h -30.761 c -0.002,0 -0.005,0.005 -0.005,0.005 v 32.014 z m -30.706,24.607 h -23.635 l -0.005,-0.006 v -24.601 h 23.646 v 24.602 c 0,0 -0.002,0.005 -0.006,0.005 z M 104.929,134.138 H 85.1157 c -0.0087,0 -0.015,-0.005 -0.015,-0.005 v -20.611 c 0,0 0.0063,-0.016 0.015,-0.016 h 19.7983 c 0.008,0 0.015,0.007 0.015,0.007 z m -77.3953,64.541 c -4.0112,-2.898 -9.003,-4.366 -14.836,-4.366 H 0 v 41.927 h 12.6977 c 5.8193,0 10.8124,-1.55 14.841,-4.604 2.1931,-1.62 3.9152,-3.883 5.1214,-6.723 1.1988,-2.827 1.8069,-6.16 1.8069,-9.908 0,-3.705 -0.6081,-6.997 -1.8094,-9.782 -1.2037,-2.802 -2.9283,-5.002 -5.1239,-6.544 z M 7.41675,201.4 h 3.98505 c 4.4348,0 8.0846,0.907 10.8534,2.701 3.0717,1.928 4.6305,5.596 4.6305,10.903 0,5.466 -1.5626,9.3 -4.6429,11.399 h -0.0025 c -2.6505,1.824 -6.2791,2.75 -10.7837,2.75 H 7.41675 Z m 32.25015,34.84 h 7.1401 v -29.53 h -7.1401 z m 3.6386,-42.443 c -1.2212,0 -2.2716,0.45 -3.119,1.332 -0.856,0.85 -1.2909,1.927 -1.2909,3.201 0,1.271 0.4324,2.364 1.2859,3.251 0.8524,0.89 1.9041,1.34 3.124,1.34 1.2199,0 2.2704,-0.45 3.1252,-1.34 0.8548,-0.888 1.286,-1.983 1.286,-3.251 0,-1.272 -0.4337,-2.349 -1.286,-3.194 -0.4062,-0.433 -0.8928,-0.775 -1.4301,-1.005 -0.5373,-0.23 -1.1141,-0.343 -1.6951,-0.334 z m 29.4302,15.381 c -2.1532,-1.994 -4.5569,-3.156 -7.1563,-3.156 -3.9414,0 -7.2174,1.418 -9.7357,4.214 -2.5495,2.773 -3.8442,6.342 -3.8442,10.609 0,4.167 1.2735,7.724 3.7906,10.577 2.5358,2.76 5.8305,4.158 9.7893,4.158 2.7526,0 5.119,-0.798 7.0467,-2.373 v 0.681 c 0,2.449 -0.6305,4.356 -1.8729,5.664 -1.2424,1.308 -2.9645,1.97 -5.1177,1.97 -3.2959,0 -5.3619,-1.349 -7.8766,-4.885 l -4.8622,4.862 0.1308,0.192 c 1.0505,1.533 2.6592,3.034 4.7825,4.461 2.1234,1.42 4.7925,2.142 7.9352,2.142 4.2392,0 7.6672,-1.36 10.193,-4.041 2.5383,-2.696 3.8255,-6.305 3.8255,-10.725 v -26.819 h -7.028 z m -1.8728,17.439 c -1.2474,1.476 -2.8499,2.191 -4.8972,2.191 -2.0473,0 -3.6411,-0.715 -4.871,-2.188 -1.2224,-1.466 -1.8442,-3.411 -1.8442,-5.776 0,-2.405 0.6218,-4.372 1.8455,-5.849 1.2124,-1.461 2.851,-2.202 4.8697,-2.202 2.0449,0 3.6486,0.721 4.8972,2.206 1.2423,1.475 1.8728,3.441 1.8728,5.845 0,2.365 -0.6305,4.309 -1.8728,5.773 z m 15.0117,9.623 h 7.1401 v -29.53 h -7.1401 z m 3.6385,-42.443 c -1.2199,0 -2.2716,0.45 -3.1189,1.332 -0.8561,0.85 -1.291,1.927 -1.291,3.201 0,1.271 0.4324,2.364 1.286,3.251 0.8523,0.89 1.904,1.34 3.1252,1.34 0.5811,0.009 1.1579,-0.105 1.6952,-0.335 0.5374,-0.23 1.0239,-0.572 1.43,-1.005 0.8536,-0.888 1.286,-1.983 1.286,-3.251 0,-1.272 -0.4362,-2.349 -1.286,-3.194 -0.4063,-0.433 -0.8929,-0.774 -1.4302,-1.004 -0.5373,-0.23 -1.1153,-0.344 -1.6963,-0.335 z m 19.1529,4.935 h -7.028 v 7.978 h -4.0838 v 6.772 h 4.0818 v 12.266 c 0,3.839 0.737,6.586 2.191,8.163 1.458,1.585 4.046,2.387 7.693,2.387 1.161,0 2.328,-0.04 3.47,-0.116 l 0.321,-0.024 v -6.767 l -2.447,0.134 c -1.701,0 -2.835,-0.311 -3.375,-0.922 -0.548,-0.623 -0.823,-1.938 -0.823,-3.908 v -11.213 h 6.645 v -6.772 h -6.645 z m 31.149,10.187 c -2.164,-1.922 -5.155,-2.897 -8.889,-2.897 -2.376,0 -4.598,0.542 -6.607,1.602 -1.859,0.982 -3.685,2.607 -4.845,4.734 l 0.072,0.091 4.572,4.554 c 1.883,-3.125 3.978,-4.21 6.754,-4.21 1.492,0 2.729,0.417 3.681,1.238 0.947,0.816 1.408,1.853 1.408,3.167 v 1.434 c -1.702,-0.549 -3.473,-0.833 -5.254,-0.843 -3.554,0 -6.445,0.869 -8.592,2.585 -2.176,1.738 -3.278,4.221 -3.278,7.387 0,2.774 0.929,5.028 2.769,6.704 1.857,1.616 4.175,2.436 6.895,2.436 2.718,0 5.261,-1.141 7.57,-3.093 v 2.432 h 7.029 v -18.984 c 0,-3.593 -1.105,-6.398 -3.285,-8.337 z m -12.676,16.037 c 0.81,-0.588 1.954,-0.885 3.402,-0.885 1.718,0 3.54,0.36 5.42,1.069 v 2.897 c -1.552,1.501 -3.626,2.263 -6.164,2.263 -1.236,0 -2.197,-0.285 -2.857,-0.852 -0.648,-0.552 -0.964,-1.256 -0.964,-2.147 0,-1.013 0.38,-1.781 1.163,-2.345 z m 21.65,11.284 h 7.14 v -41.928 h -7.14 z m 33.046,0.632 c -11.452,0 -20.769,-9.696 -20.769,-21.614 0,-11.918 9.316,-21.615 20.768,-21.615 11.451,0 20.767,9.697 20.767,21.615 0,11.918 -9.314,21.614 -20.766,21.614 z m -0.001,-35.613 c -7.417,0 -13.449,6.28 -13.449,13.999 0,7.718 6.032,13.996 13.447,13.996 7.416,0 13.45,-6.277 13.45,-13.996 0,-7.719 -6.034,-13.997 -13.45,-13.997 m 46.226,24.421 c -1.278,1.49 -2.584,2.782 -3.59,3.452 -0.987,0.659 -2.233,0.996 -3.703,0.996 -2.104,0 -3.795,-0.797 -5.173,-2.44 -1.371,-1.634 -2.065,-3.733 -2.065,-6.243 0,-2.509 0.685,-4.604 2.038,-6.227 1.36,-1.634 3.042,-2.425 5.144,-2.425 2.301,0 4.726,1.488 6.803,4.045 l 4.719,-4.71 c -3.078,-4.168 -7.002,-6.107 -11.686,-6.107 -3.92,0 -7.318,1.486 -10.1,4.416 -2.766,2.907 -4.169,6.612 -4.169,11.008 0,4.396 1.402,8.11 4.166,11.039 2.766,2.931 6.165,4.417 10.103,4.417 5.169,0 9.342,-2.323 12.154,-6.578 z m 29.303,-14.845 c -1.012,-1.468 -2.39,-2.65 -4.1,-3.515 -1.702,-0.862 -3.688,-1.299 -5.899,-1.299 -3.985,0 -7.247,1.53 -9.695,4.552 -2.377,2.996 -3.581,6.722 -3.581,11.074 0,4.474 1.321,8.179 3.928,11.009 2.592,2.816 6.062,4.245 10.313,4.245 4.814,0 8.766,-2.027 11.743,-6.024 l 0.16,-0.216 -4.657,-4.658 c -0.432,0.542 -1.043,1.157 -1.603,1.704 -0.704,0.693 -1.367,1.228 -2.075,1.595 -1.068,0.553 -2.264,0.826 -3.603,0.826 -1.978,0 -3.617,-0.605 -4.869,-1.8 -1.171,-1.118 -1.857,-2.624 -2.038,-4.485 H 260.3 l 0.065,-2.712 c 0,-1.92 -0.252,-3.769 -0.746,-5.499 -0.49,-1.719 -1.253,-3.341 -2.258,-4.797 z m -15.605,6.952 c 0.344,-1.413 0.969,-2.588 1.865,-3.501 0.967,-0.992 2.227,-1.494 3.742,-1.494 1.732,0 3.072,0.512 3.983,1.526 0.845,0.937 1.321,2.103 1.42,3.469 z m 43.025,-8.869 c -2.164,-1.922 -5.156,-2.897 -8.89,-2.897 -2.376,0 -4.598,0.542 -6.606,1.603 -1.861,0.982 -3.686,2.607 -4.845,4.733 l 0.072,0.091 4.572,4.555 c 1.883,-3.126 3.978,-4.211 6.754,-4.211 1.491,0 2.729,0.417 3.681,1.238 0.947,0.816 1.408,1.854 1.408,3.167 v 1.435 c -1.703,-0.55 -3.474,-0.834 -5.256,-0.843 -3.552,0 -6.445,0.869 -8.592,2.584 -2.174,1.738 -3.277,4.222 -3.277,7.387 0,2.774 0.929,5.028 2.77,6.704 1.855,1.616 4.174,2.437 6.893,2.437 2.719,0 5.263,-1.142 7.57,-3.093 v 2.431 h 7.031 v -18.983 c 0,-3.594 -1.106,-6.399 -3.285,-8.338 z m -12.676,16.037 c 0.809,-0.587 1.952,-0.884 3.401,-0.884 1.719,0 3.54,0.359 5.421,1.068 v 2.898 c -1.554,1.5 -3.626,2.263 -6.166,2.263 -1.235,0 -2.195,-0.286 -2.856,-0.852 -0.648,-0.553 -0.963,-1.257 -0.963,-2.148 0,-1.013 0.38,-1.781 1.163,-2.345 z M 315.532,209.5 c -1.989,-2.306 -4.782,-3.477 -8.308,-3.477 -2.832,0 -5.132,0.847 -6.853,2.516 v -1.829 h -7.002 v 29.531 h 7.14 v -16.286 c 0,-2.237 0.511,-4.014 1.52,-5.282 1.007,-1.263 2.39,-1.879 4.231,-1.879 1.617,0 2.842,0.55 3.747,1.679 0.908,1.135 1.368,2.698 1.368,4.651 v 17.117 h 7.14 v -17.117 c 0,-4.09 -1.003,-7.329 -2.983,-9.624 z"
         fill="#0080ff"
         id="path1-6" /></g></g></svg>
