<?xml version="1.0" encoding="UTF-8" standalone="no"?>
<!-- Created with Inkscape (http://www.inkscape.org/) -->

<svg
   width="255.11"
   height="360.08801"
   viewBox="0 0 255.11 360.08801"
   version="1.1"
   id="svg1"
   xml:space="preserve"
   xmlns="http://www.w3.org/2000/svg"
   xmlns:svg="http://www.w3.org/2000/svg"><defs
     id="defs1" /><g
     id="layer1"
     transform="translate(-183.823,-665.47224)"><g
       style="fill:none"
       id="g11"
       transform="translate(183.378,665.47224)"><path
         d="M 255.555,70.766 232.314,331.126 127.844,360.088 23.662,331.166 0.445,70.766 Z"
         fill="#e44d26"
         id="path1" /><path
         d="m 128,337.95 84.417,-23.403 19.86,-222.49 H 128 Z"
         fill="#f16529"
         id="path2" /><path
         d="M 82.82,155.932 H 128 V 123.995 H 47.917 l 0.764,8.568 7.85,88.01 H 128 V 188.636 H 85.739 Z m 7.198,80.61 h -32.06 l 4.474,50.146 65.421,18.16 0.147,-0.04 V 271.58 l -0.14,0.037 -35.568,-9.604 z"
         fill="#ebebeb"
         id="path3" /><path
         d="M 24.18,0 H 40.41 V 16.035 H 55.257 V 0 H 71.488 V 48.558 H 55.258 V 32.298 H 40.411 v 16.26 H 24.181 Z M 92.83,16.103 H 78.544 V 0 h 44.814 V 16.103 H 109.063 V 48.558 H 92.833 V 16.103 Z M 130.47,0 h 16.923 L 157.803,17.062 168.203,0 h 16.93 V 48.558 H 168.969 V 24.49 l -11.166,17.265 h -0.28 L 146.35,24.49 v 24.068 h -15.88 z m 62.74,0 h 16.235 v 32.508 h 22.824 v 16.05 h -39.06 z"
         fill="#000000"
         id="path4" /><path
         d="m 127.89,220.573 h 39.327 l -3.708,41.42 -35.62,9.614 v 33.226 l 65.473,-18.145 0.48,-5.396 7.506,-84.08 0.779,-8.576 H 127.89 Z m 0,-64.719 v 0.078 h 77.143 l 0.64,-7.178 1.456,-16.191 0.763,-8.568 H 127.89 Z"
         fill="#ffffff"
         id="path5" /></g></g></svg>
