<?xml version="1.0" encoding="UTF-8" standalone="no"?>
<!-- Created with Inkscape (http://www.inkscape.org/) -->

<svg
   width="511.99966"
   height="111.043"
   viewBox="0 0 511.99966 111.043"
   version="1.1"
   id="svg1"
   xml:space="preserve"
   xmlns="http://www.w3.org/2000/svg"
   xmlns:svg="http://www.w3.org/2000/svg"><defs
     id="defs1"><linearGradient
       id="paint0_linear_1_3565"
       x1="10508.3"
       y1="7.33499"
       x2="5.1499901"
       y2="10510.3"
       gradientUnits="userSpaceOnUse"><stop
         offset="0.00344"
         stop-color="#E44857"
         id="stop2" /><stop
         offset="0.4689"
         stop-color="#C711E1"
         id="stop3" /><stop
         offset="1"
         stop-color="#7F52FF"
         id="stop4-5" /></linearGradient></defs><g
     id="g25"
     transform="translate(-529.17921,-1917.5714)"><g
       style="fill:none"
       id="g1"
       transform="translate(529.17921,1917.5714)"><path
         d="M 105.092,109.34 H 0 V 4.289 H 105.092 L 52.546,56.794 Z"
         fill="url(#paint0_linear_1_3565)"
         id="path1-5"
         style="fill:url(#paint0_linear_1_3565)" /><path
         d="m 269.144,30.636 c 7.254,0 14.172,1.977 20.102,5.278 5.93,3.28 10.555,8.221 13.814,14.172 3.302,6.266 5.278,13.184 5.278,20.754 0,7.57 -1.64,14.487 -4.941,20.753 -3.301,5.93 -7.906,10.871 -13.836,14.172 -5.93,3.638 -12.847,5.278 -20.417,5.278 -7.57,0 -14.487,-1.977 -20.417,-5.278 -6.266,-3.301 -10.87,-8.242 -14.172,-14.172 -3.301,-5.93 -4.941,-13.184 -4.941,-20.753 0,-7.57 1.64,-14.488 4.94,-20.754 3.302,-5.93 8.243,-10.534 14.173,-14.172 5.93,-3.638 12.847,-5.278 20.417,-5.278 z M 232.263,3.953 184.49,55.006 232.915,109.34 H 211.509 L 165.713,58.602 v 50.738 h -16.8 V 4.29 h 16.8 v 48.424 l 45.46,-48.76 z m 36.587,41.78 c -4.605,0 -8.558,0.989 -11.86,3.302 -3.3,1.976 -5.929,4.941 -7.906,8.894 -1.976,3.638 -2.964,8.243 -2.964,13.184 0,4.941 0.651,9.23 2.628,13.184 1.977,3.616 4.605,6.581 7.906,8.894 3.617,2.313 7.59,3.301 11.86,3.301 4.268,0 8.22,-0.988 11.522,-3.3 3.301,-1.977 5.93,-4.942 7.906,-8.895 1.977,-3.953 2.965,-8.243 2.965,-13.184 0,-4.941 -0.652,-9.23 -2.628,-13.184 -1.977,-3.617 -4.605,-6.581 -7.907,-8.894 -3.28,-2.313 -7.233,-3.302 -11.522,-3.302 z m 73.447,-32.55 h -16.149 v 13.185 c 0,1.976 -0.336,3.616 -1.64,4.605 -0.988,0.988 -2.628,1.64 -4.605,1.64 h -7.906 v 13.835 h 13.836 v 41.507 c 0,4.29 0.988,8.243 2.628,11.523 1.63,3.281 4.289,5.94 7.57,7.57 3.3,1.976 6.917,2.628 11.522,2.628 h 12.511 V 95.19 h -9.23 c -2.313,0 -4.29,-0.652 -5.93,-2.629 -1.495,-1.868 -2.31,-4.1885 -2.313,-6.581 V 46.45 H 360.38 V 32.612 H 342.59 V 13.182 Z M 372.933,0 h 16.464 v 109.34 h -16.464 z m 35.24,0.336 h 16.801 v 17.137 h -16.8 z m 0,32.277 h 16.465 v 77.042 h -16.464 z m 100.488,12.51 c -2.313,-4.604 -5.593,-8.242 -9.882,-10.534 -4.29,-2.628 -9.231,-3.953 -14.824,-3.953 -5.93,0 -11.208,1.64 -15.812,4.29 -3.617,2.313 -6.582,5.593 -8.895,9.23 V 32.297 H 443.436 V 109.34 H 459.9 V 66.172 c 0,-4.29 0.652,-7.907 2.313,-11.208 1.64,-3.301 3.953,-5.593 6.581,-7.57 2.965,-1.64 6.266,-2.628 10.22,-2.628 3.616,0 6.265,0.652 8.894,2.313 2.628,1.661 4.29,3.617 5.593,6.266 1.325,2.629 1.976,5.93 1.976,9.546 v 46.112 h 16.464 V 60.915 c 0.358,-5.909 -0.946,-11.166 -3.28,-15.792 z"
         fill="#000000"
         id="path2-3" /></g></g></svg>
